<svg xmlns="http://www.w3.org/2000/svg" xmlns:xlink="http://www.w3.org/1999/xlink" width="1080" zoomAndPan="magnify" viewBox="0 0 810 809.999993" height="1080" preserveAspectRatio="xMidYMid meet" version="1.0"><defs><g/><clipPath id="15f3cb7bfd"><path d="M 618.875 302 L 747 302 L 747 451 L 618.875 451 Z M 618.875 302 " clip-rule="nonzero"/></clipPath></defs><path fill="#ffffff" d="M 721.648438 350.070312 C 721.648438 350.773438 721.078125 351.347656 720.375 351.347656 C 719.667969 351.347656 719.097656 350.773438 719.097656 350.070312 C 719.097656 349.367188 719.667969 348.792969 720.375 348.792969 C 721.078125 348.792969 721.648438 349.367188 721.648438 350.070312 " fill-opacity="1" fill-rule="nonzero"/><g clip-path="url(#15f3cb7bfd)"><path fill="#ffffff" d="M 695.359375 418.378906 C 695.359375 418.378906 692.785156 424.746094 690.910156 427.320312 C 689.035156 429.894531 691.695312 432.382812 691.695312 432.382812 C 691.695312 432.382812 703.035156 444.332031 703.339844 446.339844 C 703.570312 447.847656 698.128906 445.941406 694.765625 447.328125 C 690.183594 447.492188 688.902344 443.628906 687.878906 440.429688 C 686.765625 436.960938 684.738281 429.765625 683.625 426.425781 C 683.625 426.425781 688.160156 419.511719 695.359375 418.378906 Z M 642.097656 358.183594 L 620.113281 335.804688 L 622.035156 348.238281 L 669.839844 389.9375 L 657.101562 381.214844 L 663.035156 392.382812 L 668.617188 394.476562 L 664.695312 393.953125 L 666.4375 397.792969 L 668.625 398.503906 C 662.601562 402.859375 656.78125 407.996094 651.957031 414.0625 L 653.527344 418.25 C 653.527344 418.25 660.984375 407.191406 671.453125 402.480469 C 671.453125 402.480469 663.40625 407.320312 658.238281 415.695312 L 658.695312 418.25 C 658.695312 418.25 667.398438 411.96875 680.875 409.023438 C 680.875 409.023438 675.773438 410.789062 672.761719 411.835938 C 672.761719 411.835938 679.503906 415.894531 686.109375 416.808594 C 686.109375 416.808594 681.792969 420.144531 680.089844 422.238281 C 680.089844 422.238281 682.578125 435.195312 685.980469 443.570312 C 685.980469 443.570312 684.964844 445.890625 682.578125 446.351562 C 680.1875 446.808594 675.445312 445.957031 675.214844 449.652344 C 675.214844 449.652344 676.917969 447.820312 679.175781 448.3125 C 681.433594 448.804688 684.210938 448.609375 686.339844 447.199219 C 686.339844 447.199219 689.121094 449.066406 692.523438 449.164062 C 692.585938 449.164062 692.652344 449.164062 692.71875 449.167969 C 692.589844 449.421875 692.476562 449.699219 692.390625 450.015625 C 692.390625 450.015625 693.359375 449.285156 694.71875 449.128906 C 694.929688 449.117188 695.144531 449.109375 695.355469 449.097656 C 695.730469 449.109375 696.128906 449.171875 696.535156 449.304688 C 698.761719 450.046875 702.6875 450.613281 705.347656 449.347656 C 705.347656 449.347656 708.007812 451.355469 713.113281 450.570312 C 718.214844 449.785156 721.136719 448.300781 722.445312 450.175781 C 722.445312 450.175781 723.011719 448.171875 720.65625 447.691406 C 718.300781 447.210938 712.238281 450.746094 707.046875 446.382812 C 701.859375 442.019531 695.097656 430.722656 695.097656 430.722656 C 695.097656 430.722656 699.761719 422.390625 708.140625 416.285156 C 716.511719 410.179688 727.15625 400.320312 724.800781 384.09375 C 722.445312 367.867188 720.441406 357.660156 730.121094 353.648438 C 739.808594 349.636719 746.828125 350.136719 746.828125 350.136719 C 746.828125 350.136719 747.679688 344.640625 731.585938 347.257812 C 731.585938 347.257812 723.46875 335.609375 711.367188 335.808594 L 709.535156 338.6875 C 709.535156 338.6875 712.019531 338.75 714.277344 339.503906 C 714.277344 339.503906 711.300781 339.601562 709.207031 340.160156 L 709.011719 342.644531 C 709.011719 342.644531 711.957031 341.730469 714.636719 342.449219 C 714.636719 342.449219 709.765625 342.609375 707.472656 345.164062 L 706.851562 348.207031 C 706.851562 348.207031 708.816406 346.765625 710.058594 346.277344 C 710.058594 346.277344 708.421875 348.335938 707.539062 349.515625 L 707.472656 351.835938 C 707.472656 351.835938 708.976562 350.59375 710.285156 349.613281 L 708.226562 352.359375 C 708.226562 352.359375 708.660156 353.65625 709.125 355.601562 C 710.894531 351.492188 715.339844 344.398438 723.699219 349.253906 C 723.699219 349.253906 723.929688 352.71875 720.460938 352.621094 C 718.957031 352.578125 716.644531 352.800781 714.511719 353.640625 C 711.535156 354.816406 709.746094 357.875 710.058594 361.058594 C 710.125 361.75 710.171875 362.453125 710.1875 363.15625 C 710.320312 368.523438 710.777344 375.914062 699.132812 381.476562 C 693.871094 383.988281 686.542969 387.359375 678.820312 391.886719 L 622.730469 302 L 618.894531 318.402344 L 634.246094 343.003906 L 625.871094 332.1875 L 623.953125 335.804688 L 642.097656 358.183594 " fill-opacity="1" fill-rule="nonzero"/></g><g fill="#ffffff" fill-opacity="1"><g transform="translate(34.662077, 423.658124)"><g><path d="M 33.65625 -55.921875 C 35.101562 -55.921875 35.859375 -55.953125 35.921875 -56.015625 C 36.648438 -56.128906 37.3125 -56.003906 37.90625 -55.640625 C 38.570312 -55.347656 39.097656 -55.035156 39.484375 -54.703125 C 39.878906 -54.367188 40.226562 -53.898438 40.53125 -53.296875 C 40.78125 -52.816406 40.890625 -52.273438 40.859375 -51.671875 C 40.828125 -51.066406 40.71875 -50.429688 40.53125 -49.765625 C 40.175781 -48.441406 39.664062 -47.265625 39 -46.234375 C 38.332031 -45.210938 37.5625 -44.503906 36.6875 -44.109375 C 35.8125 -43.710938 35.015625 -43.335938 34.296875 -42.984375 C 34.171875 -42.921875 33.894531 -42.84375 33.46875 -42.75 C 33.050781 -42.664062 32.507812 -42.472656 31.84375 -42.171875 C 31.1875 -41.867188 30.644531 -41.609375 30.21875 -41.390625 C 29.800781 -41.179688 29.53125 -41.046875 29.40625 -40.984375 C 29.34375 -40.929688 28.648438 -40.660156 27.328125 -40.171875 C 26.054688 -39.628906 24.941406 -39.117188 23.984375 -38.640625 C 23.617188 -38.453125 23.285156 -38.28125 22.984375 -38.125 C 22.679688 -37.976562 22.378906 -37.785156 22.078125 -37.546875 C 21.835938 -37.367188 21.503906 -37.066406 21.078125 -36.640625 C 20.660156 -36.222656 20.222656 -35.726562 19.765625 -35.15625 C 19.316406 -34.582031 18.863281 -33.960938 18.40625 -33.296875 C 17.957031 -32.628906 17.582031 -31.9375 17.28125 -31.21875 C 16.5625 -29.46875 16.019531 -27.144531 15.65625 -24.25 C 15.53125 -23.226562 15.484375 -22.140625 15.515625 -20.984375 C 15.546875 -19.835938 15.625 -18.664062 15.75 -17.46875 C 15.800781 -17.164062 15.859375 -16.863281 15.921875 -16.5625 C 15.984375 -16.257812 16.046875 -15.957031 16.109375 -15.65625 C 17.015625 -13.175781 18.535156 -11.378906 20.671875 -10.265625 C 22.816406 -9.148438 25.125 -8.59375 27.59375 -8.59375 C 28.738281 -8.59375 30.082031 -8.648438 31.625 -8.765625 C 33.164062 -8.890625 34.535156 -9.070312 35.734375 -9.3125 C 36.285156 -9.375 36.832031 -9.476562 37.375 -9.625 C 37.914062 -9.78125 38.457031 -9.953125 39 -10.140625 C 39.78125 -10.441406 40.257812 -10.601562 40.4375 -10.625 C 40.625 -10.65625 40.957031 -10.519531 41.4375 -10.21875 C 41.800781 -10.039062 42.015625 -9.921875 42.078125 -9.859375 C 42.078125 -9.742188 42.09375 -9.59375 42.125 -9.40625 C 42.15625 -9.226562 42.195312 -8.957031 42.25 -8.59375 C 42.3125 -8.289062 42.34375 -8.003906 42.34375 -7.734375 C 42.34375 -7.460938 42.375 -7.175781 42.4375 -6.875 C 42.5625 -5.90625 42.625 -5.03125 42.625 -4.25 C 42.625 -3.46875 42.441406 -2.742188 42.078125 -2.078125 C 41.296875 -0.566406 40.269531 0.648438 39 1.578125 C 37.726562 2.515625 36.3125 3.285156 34.75 3.890625 C 33.300781 4.367188 31.789062 4.789062 30.21875 5.15625 C 28.65625 5.519531 27.085938 5.703125 25.515625 5.703125 C 24.242188 5.703125 22.867188 5.582031 21.390625 5.34375 C 19.921875 5.101562 18.613281 4.648438 17.46875 3.984375 C 14.082031 2.109375 11.0625 -0.273438 8.40625 -3.171875 C 5.757812 -6.066406 4.101562 -9.472656 3.4375 -13.390625 C 3.3125 -14.054688 3.21875 -14.613281 3.15625 -15.0625 C 3.101562 -15.519531 3.046875 -15.898438 2.984375 -16.203125 C 2.804688 -16.921875 2.71875 -18.066406 2.71875 -19.640625 C 2.71875 -21.390625 2.820312 -23.046875 3.03125 -24.609375 C 3.238281 -26.179688 3.523438 -27.703125 3.890625 -29.171875 C 4.253906 -30.648438 4.707031 -32.128906 5.25 -33.609375 C 5.789062 -35.085938 6.421875 -36.644531 7.140625 -38.28125 C 7.804688 -39.84375 8.457031 -41.148438 9.09375 -42.203125 C 9.726562 -43.265625 10.40625 -44.25 11.125 -45.15625 C 11.851562 -46.0625 12.695312 -46.953125 13.65625 -47.828125 C 14.625 -48.703125 15.769531 -49.679688 17.09375 -50.765625 C 18.363281 -51.671875 20.054688 -52.515625 22.171875 -53.296875 C 22.585938 -53.410156 23.050781 -53.570312 23.5625 -53.78125 C 24.082031 -54 24.644531 -54.226562 25.25 -54.46875 C 25.789062 -54.65625 26.269531 -54.789062 26.6875 -54.875 C 27.113281 -54.96875 27.476562 -55.078125 27.78125 -55.203125 C 28.445312 -55.316406 29.273438 -55.445312 30.265625 -55.59375 C 31.265625 -55.75 32.394531 -55.859375 33.65625 -55.921875 Z M 33.65625 -55.921875 "/></g></g></g><g fill="#ffffff" fill-opacity="1"><g transform="translate(79.082237, 423.658124)"><g><path d="M 20.265625 -38.546875 C 21.046875 -38.546875 21.53125 -38.578125 21.71875 -38.640625 C 22.675781 -38.703125 23.878906 -38.609375 25.328125 -38.359375 C 26.835938 -38.054688 28.179688 -37.453125 29.359375 -36.546875 C 30.535156 -35.648438 31.578125 -34.597656 32.484375 -33.390625 C 33.390625 -32.179688 34.203125 -30.882812 34.921875 -29.5 C 35.648438 -28.113281 36.285156 -26.785156 36.828125 -25.515625 C 36.890625 -25.390625 36.9375 -25.238281 36.96875 -25.0625 C 37 -24.882812 37.039062 -24.734375 37.09375 -24.609375 C 37.21875 -24.304688 37.335938 -23.835938 37.453125 -23.203125 C 37.578125 -22.578125 37.671875 -21.84375 37.734375 -21 C 38.035156 -18.882812 38.035156 -17.3125 37.734375 -16.28125 C 37.671875 -16.039062 37.640625 -15.226562 37.640625 -13.84375 C 37.578125 -13.125 37.546875 -12.535156 37.546875 -12.078125 C 37.546875 -11.628906 37.546875 -11.285156 37.546875 -11.046875 C 37.484375 -10.015625 37.332031 -8.984375 37.09375 -7.953125 C 36.851562 -6.929688 36.523438 -5.910156 36.109375 -4.890625 C 36.046875 -4.648438 35.953125 -4.46875 35.828125 -4.34375 C 35.828125 -4.21875 35.796875 -4.125 35.734375 -4.0625 C 35.679688 -4.007812 35.53125 -3.738281 35.28125 -3.25 C 34.6875 -2.050781 33.816406 -0.878906 32.671875 0.265625 C 31.523438 1.410156 30.253906 2.421875 28.859375 3.296875 C 27.472656 4.171875 26.023438 4.878906 24.515625 5.421875 C 23.015625 5.972656 21.566406 6.25 20.171875 6.25 C 19.453125 6.25 18.65625 6.171875 17.78125 6.015625 C 16.90625 5.867188 16.015625 5.660156 15.109375 5.390625 C 14.203125 5.117188 13.34375 4.816406 12.53125 4.484375 C 11.71875 4.148438 11.007812 3.800781 10.40625 3.4375 C 7.570312 1.570312 5.550781 -0.835938 4.34375 -3.796875 C 3.132812 -6.753906 2.441406 -9.863281 2.265625 -13.125 C 2.203125 -13.78125 2.1875 -14.5 2.21875 -15.28125 C 2.25 -16.070312 2.320312 -16.921875 2.4375 -17.828125 C 2.6875 -19.515625 2.972656 -21.140625 3.296875 -22.703125 C 3.628906 -24.273438 4.039062 -25.753906 4.53125 -27.140625 C 4.769531 -27.867188 4.945312 -28.394531 5.0625 -28.71875 C 5.1875 -29.050781 5.304688 -29.320312 5.421875 -29.53125 C 5.546875 -29.75 5.679688 -29.960938 5.828125 -30.171875 C 5.984375 -30.390625 6.179688 -30.707031 6.421875 -31.125 C 6.722656 -31.726562 6.9375 -32.117188 7.0625 -32.296875 C 7.363281 -32.722656 7.632812 -33.128906 7.875 -33.515625 C 8.113281 -33.910156 8.320312 -34.289062 8.5 -34.65625 C 8.75 -35.320312 9.320312 -35.863281 10.21875 -36.28125 C 10.519531 -36.40625 10.804688 -36.507812 11.078125 -36.59375 C 11.347656 -36.6875 11.546875 -36.796875 11.671875 -36.921875 C 12.878906 -37.578125 13.84375 -37.9375 14.5625 -38 C 15.957031 -38.300781 17.859375 -38.484375 20.265625 -38.546875 Z M 23.078125 -26.515625 C 22.890625 -26.578125 22.421875 -26.609375 21.671875 -26.609375 C 20.921875 -26.609375 20.394531 -26.609375 20.09375 -26.609375 C 18.394531 -26.304688 17.109375 -25.457031 16.234375 -24.0625 C 15.367188 -22.675781 14.753906 -21.257812 14.390625 -19.8125 C 13.546875 -16.914062 13.300781 -14.59375 13.65625 -12.84375 C 13.78125 -12.1875 13.992188 -11.523438 14.296875 -10.859375 C 14.597656 -10.191406 15.019531 -9.53125 15.5625 -8.875 C 16.101562 -8.320312 16.644531 -7.925781 17.1875 -7.6875 C 17.675781 -7.445312 18.492188 -7.328125 19.640625 -7.328125 C 21.203125 -7.328125 22.359375 -7.703125 23.109375 -8.453125 C 23.867188 -9.210938 24.550781 -10.285156 25.15625 -11.671875 C 25.457031 -12.273438 25.664062 -12.742188 25.78125 -13.078125 C 25.90625 -13.410156 26 -13.710938 26.0625 -13.984375 C 26.125 -14.253906 26.15625 -14.539062 26.15625 -14.84375 C 26.15625 -15.144531 26.15625 -15.597656 26.15625 -16.203125 C 26.207031 -18.492188 25.960938 -20.722656 25.421875 -22.890625 C 25.242188 -23.734375 24.910156 -24.515625 24.421875 -25.234375 C 23.941406 -25.960938 23.492188 -26.390625 23.078125 -26.515625 Z M 23.078125 -26.515625 "/></g></g></g><g fill="#ffffff" fill-opacity="1"><g transform="translate(119.521776, 423.658124)"><g><path d="M 18.09375 -38.453125 C 18.519531 -38.515625 18.867188 -38.546875 19.140625 -38.546875 C 19.410156 -38.546875 19.601562 -38.546875 19.71875 -38.546875 C 19.90625 -38.484375 20.390625 -38.453125 21.171875 -38.453125 C 22.203125 -38.335938 23.515625 -38.128906 25.109375 -37.828125 C 26.703125 -37.523438 27.925781 -37.039062 28.78125 -36.375 C 29.625 -35.59375 30.222656 -34.78125 30.578125 -33.9375 C 30.878906 -33.269531 30.789062 -32.453125 30.3125 -31.484375 C 29.707031 -30.460938 28.875 -29.664062 27.8125 -29.09375 C 26.757812 -28.519531 25.660156 -28.234375 24.515625 -28.234375 C 23.796875 -28.234375 22.921875 -28.320312 21.890625 -28.5 C 21.171875 -28.625 20.507812 -28.6875 19.90625 -28.6875 C 19.300781 -28.6875 18.757812 -28.6875 18.28125 -28.6875 C 17.488281 -28.625 16.765625 -28.140625 16.109375 -27.234375 C 15.921875 -26.929688 15.875 -26.644531 15.96875 -26.375 C 16.0625 -26.101562 16.164062 -25.878906 16.28125 -25.703125 C 16.53125 -25.453125 17.046875 -25.191406 17.828125 -24.921875 C 18.609375 -24.648438 19.875 -24.273438 21.625 -23.796875 C 22.894531 -23.492188 24.265625 -23.070312 25.734375 -22.53125 C 27.210938 -21.988281 28.40625 -21.382812 29.3125 -20.71875 C 32.875 -18.0625 34.863281 -14.59375 35.28125 -10.3125 C 35.28125 -10.070312 35.28125 -9.785156 35.28125 -9.453125 C 35.28125 -9.117188 35.28125 -8.769531 35.28125 -8.40625 C 35.28125 -8.050781 35.265625 -7.738281 35.234375 -7.46875 C 35.210938 -7.195312 35.203125 -7.03125 35.203125 -6.96875 L 35.203125 -6.78125 C 35.203125 -6.726562 35.171875 -6.671875 35.109375 -6.609375 C 34.929688 -5.335938 34.429688 -4.160156 33.609375 -3.078125 C 32.796875 -1.992188 31.816406 -1 30.671875 -0.09375 C 29.523438 0.8125 28.316406 1.625 27.046875 2.34375 C 25.785156 3.070312 24.640625 3.707031 23.609375 4.25 C 22.160156 5.03125 20.625 5.453125 19 5.515625 C 18.03125 5.640625 17.425781 5.734375 17.1875 5.796875 C 16.832031 5.910156 16.59375 5.910156 16.46875 5.796875 C 15.144531 5.609375 14.015625 5.4375 13.078125 5.28125 C 12.140625 5.132812 11.367188 4.941406 10.765625 4.703125 C 10.648438 4.640625 10.484375 4.625 10.265625 4.65625 C 10.054688 4.6875 9.953125 4.644531 9.953125 4.53125 C 9.953125 4.40625 9.800781 4.265625 9.5 4.109375 C 9.195312 3.960938 8.835938 3.800781 8.421875 3.625 L 7.875 3.25 L 7.875 3.53125 C 7.875 3.644531 7.84375 3.703125 7.78125 3.703125 C 7.65625 3.703125 7.257812 3.398438 6.59375 2.796875 C 5.9375 2.203125 5.21875 1.570312 4.4375 0.90625 C 3.644531 0.238281 3.203125 -0.132812 3.109375 -0.21875 C 3.023438 -0.3125 3.046875 -0.476562 3.171875 -0.71875 C 3.285156 -1.019531 3.328125 -1.378906 3.296875 -1.796875 C 3.265625 -2.222656 3.101562 -2.707031 2.8125 -3.25 C 2.625 -3.550781 2.453125 -3.835938 2.296875 -4.109375 C 2.148438 -4.390625 2.046875 -4.648438 1.984375 -4.890625 L 1.71875 -5.875 L 1.71875 -7.515625 C 1.78125 -8.117188 1.828125 -8.597656 1.859375 -8.953125 C 1.890625 -9.316406 1.90625 -9.5625 1.90625 -9.6875 C 2.019531 -10.34375 2.0625 -10.703125 2.03125 -10.765625 C 2 -10.828125 2.285156 -10.617188 2.890625 -10.140625 C 3.554688 -9.648438 4.207031 -9.253906 4.84375 -8.953125 C 5.476562 -8.648438 6.035156 -8.410156 6.515625 -8.234375 C 6.992188 -8.054688 7.59375 -7.875 8.3125 -7.6875 C 9.039062 -7.507812 9.796875 -7.34375 10.578125 -7.1875 C 11.367188 -7.039062 12.125 -6.90625 12.84375 -6.78125 C 13.570312 -6.664062 14.175781 -6.609375 14.65625 -6.609375 C 15.625 -6.609375 16.570312 -6.757812 17.5 -7.0625 C 18.4375 -7.363281 19.328125 -7.722656 20.171875 -8.140625 C 20.835938 -8.441406 21.320312 -8.863281 21.625 -9.40625 C 21.925781 -9.945312 21.988281 -10.460938 21.8125 -10.953125 C 21.6875 -11.304688 21.320312 -11.601562 20.71875 -11.84375 C 20.113281 -12.09375 18.96875 -12.488281 17.28125 -13.03125 C 15.226562 -13.695312 13.566406 -14.253906 12.296875 -14.703125 C 11.035156 -15.148438 9.984375 -15.585938 9.140625 -16.015625 C 8.410156 -16.378906 7.726562 -16.847656 7.09375 -17.421875 C 6.46875 -17.992188 5.910156 -18.582031 5.421875 -19.1875 C 3.554688 -21.289062 2.6875 -23.703125 2.8125 -26.421875 C 2.863281 -26.722656 2.90625 -27.039062 2.9375 -27.375 C 2.96875 -27.707031 3.046875 -28.023438 3.171875 -28.328125 C 4.015625 -30.617188 5.007812 -32.441406 6.15625 -33.796875 C 7.300781 -35.148438 8.957031 -36.3125 11.125 -37.28125 C 12.15625 -37.644531 12.789062 -37.828125 13.03125 -37.828125 C 13.144531 -37.828125 13.445312 -37.882812 13.9375 -38 C 14.601562 -38.125 15.296875 -38.210938 16.015625 -38.265625 C 16.734375 -38.328125 17.425781 -38.390625 18.09375 -38.453125 Z M 18.09375 -38.453125 "/></g></g></g><g fill="#ffffff" fill-opacity="1"><g transform="translate(156.794906, 423.658124)"><g><path d="M 13.84375 -53.75 C 14.144531 -53.863281 14.535156 -53.832031 15.015625 -53.65625 C 15.378906 -53.53125 15.800781 -53.300781 16.28125 -52.96875 C 16.769531 -52.644531 17.375 -52.332031 18.09375 -52.03125 C 20.75 -50.820312 22.679688 -49.523438 23.890625 -48.140625 L 24.703125 -47.5 L 24.703125 -46.140625 C 24.703125 -44.335938 24.613281 -42.46875 24.4375 -40.53125 C 24.3125 -39.269531 24.3125 -38.578125 24.4375 -38.453125 C 24.675781 -38.148438 25.335938 -38 26.421875 -38 C 26.898438 -38 27.472656 -38.070312 28.140625 -38.21875 C 28.804688 -38.375 29.289062 -38.484375 29.59375 -38.546875 C 30.070312 -38.671875 30.582031 -38.6875 31.125 -38.59375 C 31.664062 -38.5 32.085938 -38.394531 32.390625 -38.28125 C 32.578125 -38.21875 32.804688 -38.0625 33.078125 -37.8125 C 33.347656 -37.570312 33.632812 -37.300781 33.9375 -37 C 34.238281 -36.707031 34.523438 -36.410156 34.796875 -36.109375 C 35.066406 -35.804688 35.257812 -35.5625 35.375 -35.375 C 35.800781 -34.832031 35.921875 -33.898438 35.734375 -32.578125 C 35.734375 -31.910156 35.628906 -31.046875 35.421875 -29.984375 C 35.210938 -28.929688 34.804688 -28.226562 34.203125 -27.875 C 33.960938 -27.8125 33.570312 -27.507812 33.03125 -26.96875 C 32.1875 -26.125 31.367188 -25.625 30.578125 -25.46875 C 29.796875 -25.320312 28.863281 -25.25 27.78125 -25.25 C 27 -25.1875 26.140625 -24.972656 25.203125 -24.609375 C 24.265625 -24.242188 23.582031 -23.703125 23.15625 -22.984375 C 23.039062 -22.804688 22.96875 -22.203125 22.9375 -21.171875 C 22.90625 -20.148438 22.890625 -18.789062 22.890625 -17.09375 C 22.890625 -13.84375 22.953125 -12.035156 23.078125 -11.671875 C 23.316406 -11.128906 23.738281 -10.507812 24.34375 -9.8125 C 24.945312 -9.125 25.578125 -8.78125 26.234375 -8.78125 C 27.078125 -8.78125 27.90625 -8.851562 28.71875 -9 C 29.539062 -9.15625 30.34375 -9.351562 31.125 -9.59375 C 32.75 -10.070312 34.109375 -10.34375 35.203125 -10.40625 L 35.734375 -10.40625 L 35.921875 -10.046875 C 36.046875 -9.804688 36.046875 -9.535156 35.921875 -9.234375 C 35.378906 -7.722656 34.957031 -6.53125 34.65625 -5.65625 C 34.351562 -4.78125 34.140625 -4.191406 34.015625 -3.890625 C 33.660156 -2.984375 33.375 -2.242188 33.15625 -1.671875 C 32.945312 -1.097656 32.8125 -0.601562 32.75 -0.1875 C 32.632812 0.414062 32.363281 0.960938 31.9375 1.453125 C 31.875 1.628906 31.785156 1.78125 31.671875 1.90625 C 31.609375 1.957031 31.578125 1.984375 31.578125 1.984375 C 31.578125 2.285156 31.242188 2.585938 30.578125 2.890625 C 30.160156 3.078125 29.707031 3.347656 29.21875 3.703125 C 28.320312 4.429688 27.148438 4.945312 25.703125 5.25 C 24.609375 5.3125 23.535156 5.296875 22.484375 5.203125 C 21.429688 5.109375 20.390625 4.820312 19.359375 4.34375 C 17.003906 3.375 14.96875 1.835938 13.25 -0.265625 C 11.53125 -2.378906 10.519531 -4.703125 10.21875 -7.234375 C 10.164062 -7.660156 10.140625 -8.265625 10.140625 -9.046875 C 10.140625 -9.828125 10.140625 -10.820312 10.140625 -12.03125 C 10.191406 -14.445312 10.367188 -16.46875 10.671875 -18.09375 C 10.796875 -18.457031 10.84375 -18.832031 10.8125 -19.21875 C 10.78125 -19.613281 10.765625 -20.054688 10.765625 -20.546875 L 10.765625 -22.078125 L 10.5 -22.265625 C 10.195312 -22.742188 9.773438 -22.921875 9.234375 -22.796875 C 7.484375 -22.617188 6.363281 -22.378906 5.875 -22.078125 C 5.695312 -21.953125 5.546875 -21.890625 5.421875 -21.890625 C 5.304688 -21.890625 5.066406 -21.800781 4.703125 -21.625 C 3.984375 -21.257812 3.289062 -21.226562 2.625 -21.53125 C 2.195312 -21.71875 1.9375 -21.914062 1.84375 -22.125 C 1.757812 -22.332031 1.628906 -22.769531 1.453125 -23.4375 C 1.148438 -24.644531 1 -25.535156 1 -26.109375 C 1 -26.679688 1.117188 -27.421875 1.359375 -28.328125 C 1.660156 -28.984375 1.867188 -29.707031 1.984375 -30.5 C 2.773438 -34.476562 5.28125 -36.554688 9.5 -36.734375 C 10.769531 -36.859375 11.582031 -37.097656 11.9375 -37.453125 C 12.125 -37.640625 12.25 -37.882812 12.3125 -38.1875 C 12.425781 -38.550781 12.484375 -39.601562 12.484375 -41.34375 L 12.484375 -50.125 C 12.609375 -52.300781 13.0625 -53.507812 13.84375 -53.75 Z M 13.84375 -53.75 "/></g></g></g><g fill="#ffffff" fill-opacity="1"><g transform="translate(194.42991, 423.658124)"><g><path d="M 29.140625 -39.8125 C 29.679688 -40.050781 30.796875 -40.019531 32.484375 -39.71875 C 35.015625 -39.238281 36.671875 -38.578125 37.453125 -37.734375 C 38.003906 -37.191406 38.335938 -36.5 38.453125 -35.65625 C 38.578125 -34.8125 38.640625 -34.023438 38.640625 -33.296875 C 38.640625 -32.023438 38.59375 -30.695312 38.5 -29.3125 C 38.40625 -27.925781 38.238281 -26.628906 38 -25.421875 C 37.882812 -24.816406 37.8125 -24.210938 37.78125 -23.609375 C 37.75 -23.015625 37.703125 -22.382812 37.640625 -21.71875 C 37.578125 -20.632812 37.546875 -19.378906 37.546875 -17.953125 C 37.546875 -16.535156 37.546875 -14.953125 37.546875 -13.203125 C 37.546875 -9.828125 37.609375 -7.835938 37.734375 -7.234375 C 37.972656 -6.210938 38.785156 -5.550781 40.171875 -5.25 C 40.472656 -5.1875 40.6875 -5.097656 40.8125 -4.984375 C 41.113281 -4.554688 41.203125 -3.921875 41.078125 -3.078125 C 41.015625 -2.953125 40.96875 -2.800781 40.9375 -2.625 C 40.914062 -2.445312 40.875 -2.296875 40.8125 -2.171875 C 40.6875 -1.867188 40.5625 -1.566406 40.4375 -1.265625 C 40.320312 -0.960938 40.234375 -0.660156 40.171875 -0.359375 C 39.992188 0.421875 39.660156 1.171875 39.171875 1.890625 C 38.691406 2.617188 38.101562 3.253906 37.40625 3.796875 C 36.71875 4.335938 35.976562 4.773438 35.1875 5.109375 C 34.40625 5.441406 33.625 5.609375 32.84375 5.609375 C 32.0625 5.609375 31.25 5.273438 30.40625 4.609375 C 30.28125 4.492188 30.082031 4.300781 29.8125 4.03125 C 29.539062 3.757812 29.164062 3.378906 28.6875 2.890625 C 27.601562 1.804688 26.96875 1.144531 26.78125 0.90625 L 26.609375 0.640625 L 26.15625 0.90625 C 24.882812 1.875 24.035156 2.445312 23.609375 2.625 C 23.253906 2.988281 22.726562 3.332031 22.03125 3.65625 C 21.34375 3.988281 20.585938 4.273438 19.765625 4.515625 C 18.953125 4.765625 18.15625 4.960938 17.375 5.109375 C 16.59375 5.265625 15.957031 5.34375 15.46875 5.34375 C 14.257812 5.34375 12.976562 5.160156 11.625 4.796875 C 10.269531 4.429688 9.171875 3.828125 8.328125 2.984375 C 7.484375 2.203125 6.664062 1.164062 5.875 -0.125 C 5.09375 -1.425781 4.3125 -2.953125 3.53125 -4.703125 C 3.289062 -5.429688 3.019531 -6.941406 2.71875 -9.234375 C 2.59375 -10.734375 2.894531 -13.566406 3.625 -17.734375 C 3.738281 -18.210938 3.84375 -18.785156 3.9375 -19.453125 C 4.03125 -20.117188 4.132812 -20.90625 4.25 -21.8125 C 4.25 -21.863281 4.28125 -22.144531 4.34375 -22.65625 C 4.40625 -23.175781 4.492188 -23.945312 4.609375 -24.96875 C 4.859375 -26.84375 5.039062 -28.535156 5.15625 -30.046875 C 5.457031 -33.179688 5.519531 -34.925781 5.34375 -35.28125 C 5.21875 -35.53125 5.003906 -35.816406 4.703125 -36.140625 C 4.398438 -36.472656 4.25 -36.765625 4.25 -37.015625 C 4.25 -38.035156 4.703125 -38.695312 5.609375 -39 C 6.515625 -39.300781 7.359375 -39.484375 8.140625 -39.546875 C 8.441406 -39.597656 8.773438 -39.535156 9.140625 -39.359375 C 9.503906 -39.179688 9.894531 -39.0625 10.3125 -39 C 10.613281 -38.9375 11.066406 -38.800781 11.671875 -38.59375 C 12.273438 -38.382812 12.894531 -38.113281 13.53125 -37.78125 C 14.164062 -37.445312 14.753906 -37.113281 15.296875 -36.78125 C 15.835938 -36.445312 16.195312 -36.160156 16.375 -35.921875 C 16.613281 -35.441406 16.734375 -34.234375 16.734375 -32.296875 C 16.734375 -31.816406 16.734375 -31.179688 16.734375 -30.390625 C 16.734375 -29.609375 16.71875 -28.78125 16.6875 -27.90625 C 16.664062 -27.039062 16.625 -26.171875 16.5625 -25.296875 C 16.5 -24.421875 16.4375 -23.617188 16.375 -22.890625 C 16.375 -22.773438 16.375 -22.59375 16.375 -22.34375 C 16.375 -22.101562 16.34375 -21.800781 16.28125 -21.4375 C 15.925781 -18.1875 15.75 -15.234375 15.75 -12.578125 C 15.75 -11.128906 15.804688 -10.101562 15.921875 -9.5 C 16.046875 -9.195312 16.132812 -8.96875 16.1875 -8.8125 C 16.25 -8.664062 16.3125 -8.503906 16.375 -8.328125 C 16.5 -8.203125 16.738281 -7.972656 17.09375 -7.640625 C 17.457031 -7.304688 17.734375 -7.140625 17.921875 -7.140625 C 18.097656 -7.140625 18.820312 -7.988281 20.09375 -9.6875 C 20.75 -10.53125 21.300781 -11.3125 21.75 -12.03125 C 22.207031 -12.757812 22.585938 -13.53125 22.890625 -14.34375 C 23.191406 -15.15625 23.429688 -16.039062 23.609375 -17 C 23.796875 -17.96875 23.945312 -19.117188 24.0625 -20.453125 C 24.125 -20.691406 24.171875 -20.960938 24.203125 -21.265625 C 24.234375 -21.566406 24.25 -21.75 24.25 -21.8125 C 24.1875 -21.8125 24.203125 -21.972656 24.296875 -22.296875 C 24.390625 -22.628906 24.4375 -23.007812 24.4375 -23.4375 C 24.488281 -24.039062 24.5625 -24.988281 24.65625 -26.28125 C 24.75 -27.582031 24.851562 -28.535156 24.96875 -29.140625 C 25.15625 -30.046875 25.289062 -30.921875 25.375 -31.765625 C 25.46875 -32.609375 25.546875 -33.421875 25.609375 -34.203125 C 25.609375 -36.191406 25.546875 -37.394531 25.421875 -37.8125 C 25.304688 -38.238281 25.398438 -38.332031 25.703125 -38.09375 L 26.0625 -37.90625 L 26.234375 -38.1875 C 26.835938 -38.90625 27.804688 -39.445312 29.140625 -39.8125 Z M 29.140625 -39.8125 "/></g></g></g><g fill="#ffffff" fill-opacity="1"><g transform="translate(236.85976, 423.658124)"><g><path d="M 45.328125 -38.90625 C 47.015625 -39.09375 48.523438 -38.851562 49.859375 -38.1875 C 51.066406 -37.757812 52.148438 -36.914062 53.109375 -35.65625 C 53.953125 -34.445312 54.375 -33.8125 54.375 -33.75 C 54.375 -33.6875 54.46875 -33.503906 54.65625 -33.203125 C 55.019531 -32.660156 55.335938 -31.9375 55.609375 -31.03125 C 55.878906 -30.125 56.101562 -29.160156 56.28125 -28.140625 C 56.457031 -27.117188 56.609375 -26.125 56.734375 -25.15625 C 56.859375 -24.1875 56.945312 -23.34375 57 -22.625 C 57.0625 -21.78125 57.03125 -21.160156 56.90625 -20.765625 C 56.789062 -20.367188 56.703125 -19.78125 56.640625 -19 C 56.640625 -18.394531 56.582031 -17.789062 56.46875 -17.1875 C 56.40625 -16.882812 56.359375 -16.429688 56.328125 -15.828125 C 56.296875 -15.234375 56.3125 -14.484375 56.375 -13.578125 L 56.375 -10.859375 L 56.640625 -10.3125 C 57.066406 -9.46875 57.59375 -8.878906 58.21875 -8.546875 C 58.851562 -8.210938 59.59375 -8.046875 60.4375 -8.046875 C 61.28125 -7.929688 61.820312 -7.8125 62.0625 -7.6875 C 62.3125 -7.570312 62.492188 -7.242188 62.609375 -6.703125 L 62.609375 -3.171875 C 62.609375 -2.140625 62.59375 -1.335938 62.5625 -0.765625 C 62.539062 -0.191406 62.5 0.242188 62.4375 0.546875 C 62.25 1.085938 61.941406 1.628906 61.515625 2.171875 C 61.097656 2.710938 60.585938 3.207031 59.984375 3.65625 C 59.390625 4.113281 58.773438 4.492188 58.140625 4.796875 C 57.503906 5.097656 56.914062 5.304688 56.375 5.421875 C 55.34375 5.722656 54.046875 5.816406 52.484375 5.703125 C 51.515625 5.703125 50.972656 5.640625 50.859375 5.515625 C 50.609375 5.273438 50.363281 5.1875 50.125 5.25 C 49.882812 5.363281 49.523438 5.273438 49.046875 4.984375 C 46.929688 3.648438 45.554688 1.914062 44.921875 -0.21875 C 44.285156 -2.363281 43.96875 -4.613281 43.96875 -6.96875 C 43.96875 -7.75 44.015625 -8.632812 44.109375 -9.625 C 44.203125 -10.625 44.304688 -11.816406 44.421875 -13.203125 C 44.609375 -14.648438 44.703125 -16.375 44.703125 -18.375 C 44.703125 -19.269531 44.6875 -20.066406 44.65625 -20.765625 C 44.625 -21.460938 44.578125 -21.988281 44.515625 -22.34375 C 44.453125 -23.132812 44.375 -23.753906 44.28125 -24.203125 C 44.195312 -24.660156 44.109375 -25.035156 44.015625 -25.328125 C 43.929688 -25.628906 43.8125 -25.898438 43.65625 -26.140625 C 43.507812 -26.390625 43.316406 -26.632812 43.078125 -26.875 L 42.53125 -27.59375 L 41.984375 -27.5 C 41.378906 -27.382812 40.863281 -27.082031 40.4375 -26.59375 C 40.019531 -26.113281 39.660156 -25.554688 39.359375 -24.921875 C 39.054688 -24.296875 38.828125 -23.632812 38.671875 -22.9375 C 38.523438 -22.238281 38.394531 -21.648438 38.28125 -21.171875 C 38.15625 -20.328125 38.03125 -15.773438 37.90625 -7.515625 C 37.90625 -5.398438 37.890625 -3.753906 37.859375 -2.578125 C 37.835938 -1.398438 37.796875 -0.660156 37.734375 -0.359375 C 37.304688 1.566406 36.414062 3.117188 35.0625 4.296875 C 33.707031 5.472656 32.003906 6.0625 29.953125 6.0625 C 29.285156 6.0625 28.769531 5.972656 28.40625 5.796875 C 26.90625 5.191406 26.003906 4.4375 25.703125 3.53125 C 25.335938 2.6875 25.019531 1.613281 24.75 0.3125 C 24.476562 -0.976562 24.28125 -2.316406 24.15625 -3.703125 C 24.039062 -5.097656 23.953125 -6.472656 23.890625 -7.828125 C 23.828125 -9.179688 23.796875 -10.34375 23.796875 -11.3125 C 23.921875 -12.21875 24.039062 -12.847656 24.15625 -13.203125 C 24.394531 -13.628906 24.515625 -14.476562 24.515625 -15.75 C 24.578125 -16.289062 24.625 -16.722656 24.65625 -17.046875 C 24.6875 -17.378906 24.734375 -17.671875 24.796875 -17.921875 C 24.859375 -18.097656 24.890625 -19.0625 24.890625 -20.8125 C 24.890625 -21.050781 24.875 -21.488281 24.84375 -22.125 C 24.8125 -22.757812 24.75 -23.421875 24.65625 -24.109375 C 24.5625 -24.804688 24.4375 -25.441406 24.28125 -26.015625 C 24.132812 -26.585938 23.910156 -26.90625 23.609375 -26.96875 C 23.191406 -27.144531 22.832031 -26.992188 22.53125 -26.515625 C 21.863281 -25.484375 21.257812 -24.378906 20.71875 -23.203125 C 20.175781 -22.023438 19.664062 -20.804688 19.1875 -19.546875 C 19.125 -19.421875 19.003906 -19.085938 18.828125 -18.546875 C 18.578125 -18.003906 18.375 -17.476562 18.21875 -16.96875 C 18.070312 -16.457031 17.941406 -15.898438 17.828125 -15.296875 C 17.765625 -14.867188 17.582031 -14.023438 17.28125 -12.765625 C 17.15625 -12.160156 17.019531 -11.460938 16.875 -10.671875 C 16.726562 -9.890625 16.5625 -8.988281 16.375 -7.96875 C 16.007812 -5.851562 15.800781 -4.765625 15.75 -4.703125 C 15.75 -4.703125 15.597656 -4.191406 15.296875 -3.171875 C 15.054688 -2.378906 14.9375 -1.894531 14.9375 -1.71875 C 14.6875 -0.507812 14.410156 0.484375 14.109375 1.265625 C 13.628906 2.347656 12.816406 3.222656 11.671875 3.890625 C 10.347656 4.554688 9.382812 4.890625 8.78125 4.890625 C 7.570312 4.890625 6.601562 4.585938 5.875 3.984375 C 5.15625 3.378906 4.429688 2.65625 3.703125 1.8125 L 2.890625 0.90625 L 2.71875 0.09375 C 2.65625 -0.207031 2.59375 -0.492188 2.53125 -0.765625 C 2.46875 -1.035156 2.410156 -1.351562 2.359375 -1.71875 C 2.234375 -2.5 2.140625 -3.101562 2.078125 -3.53125 C 1.835938 -5.21875 1.929688 -6.875 2.359375 -8.5 C 2.472656 -8.800781 2.5625 -9.117188 2.625 -9.453125 C 2.6875 -9.785156 2.75 -10.164062 2.8125 -10.59375 C 2.925781 -11.488281 3.101562 -12.484375 3.34375 -13.578125 C 3.644531 -14.960938 3.796875 -15.742188 3.796875 -15.921875 C 3.921875 -16.222656 4.015625 -16.675781 4.078125 -17.28125 C 4.972656 -21.5625 5.421875 -24.910156 5.421875 -27.328125 C 5.421875 -28.890625 5.300781 -30.316406 5.0625 -31.609375 C 4.820312 -32.910156 4.367188 -34.285156 3.703125 -35.734375 C 3.460938 -36.285156 3.3125 -36.648438 3.25 -36.828125 C 3.195312 -37.003906 3.179688 -37.109375 3.203125 -37.140625 C 3.234375 -37.171875 3.28125 -37.15625 3.34375 -37.09375 C 3.40625 -37.039062 3.4375 -37.070312 3.4375 -37.1875 C 3.4375 -37.425781 3.976562 -37.640625 5.0625 -37.828125 C 5.550781 -37.941406 6.15625 -38 6.875 -38 C 7.601562 -38 8.390625 -38 9.234375 -38 C 10.984375 -37.9375 12.066406 -37.847656 12.484375 -37.734375 C 12.671875 -37.671875 13.515625 -36.796875 15.015625 -35.109375 C 15.503906 -34.503906 15.820312 -34.171875 15.96875 -34.109375 C 16.125 -34.046875 16.351562 -34.195312 16.65625 -34.5625 C 16.769531 -34.75 16.867188 -34.867188 16.953125 -34.921875 C 17.046875 -34.984375 17.125 -35.046875 17.1875 -35.109375 C 17.25 -35.109375 17.382812 -35.195312 17.59375 -35.375 C 17.8125 -35.5625 18.191406 -35.804688 18.734375 -36.109375 C 20.296875 -37.066406 21.769531 -37.710938 23.15625 -38.046875 C 24.550781 -38.378906 26.125 -38.546875 27.875 -38.546875 C 29.625 -38.546875 30.617188 -38.484375 30.859375 -38.359375 C 31.273438 -38.242188 31.722656 -38.0625 32.203125 -37.8125 C 32.691406 -37.570312 33.238281 -37.242188 33.84375 -36.828125 C 34.507812 -36.460938 34.867188 -36.28125 34.921875 -36.28125 C 35.046875 -36.21875 35.164062 -36.109375 35.28125 -35.953125 C 35.40625 -35.804688 35.53125 -35.675781 35.65625 -35.5625 C 36.4375 -34.71875 36.890625 -34.296875 37.015625 -34.296875 C 37.128906 -34.296875 38.0625 -34.988281 39.8125 -36.375 C 40.476562 -36.914062 41.140625 -37.378906 41.796875 -37.765625 C 42.460938 -38.160156 43.128906 -38.453125 43.796875 -38.640625 C 44.097656 -38.753906 44.367188 -38.8125 44.609375 -38.8125 C 44.847656 -38.8125 45.085938 -38.84375 45.328125 -38.90625 Z M 45.328125 -38.90625 "/></g></g></g><g fill="#ffffff" fill-opacity="1"><g transform="translate(300.911652, 423.658124)"><g><path d="M 20.90625 -38.28125 C 23.800781 -38.28125 26.4375 -37.660156 28.8125 -36.421875 C 31.195312 -35.179688 33.234375 -33.328125 34.921875 -30.859375 C 36.191406 -29.109375 36.945312 -27.476562 37.1875 -25.96875 C 37.425781 -24.09375 37.425781 -22.492188 37.1875 -21.171875 C 36.769531 -18.878906 35.414062 -17.28125 33.125 -16.375 C 30.820312 -15.53125 27.171875 -14.898438 22.171875 -14.484375 C 21.929688 -14.484375 21.398438 -14.4375 20.578125 -14.34375 C 19.765625 -14.25 18.921875 -14.140625 18.046875 -14.015625 C 17.171875 -13.898438 16.382812 -13.78125 15.6875 -13.65625 C 15 -13.539062 14.625 -13.421875 14.5625 -13.296875 C 14.445312 -13.179688 14.421875 -12.878906 14.484375 -12.390625 C 14.484375 -11.429688 14.78125 -10.738281 15.375 -10.3125 C 16.226562 -9.351562 17.46875 -8.582031 19.09375 -8 C 20.71875 -7.425781 22.195312 -7.140625 23.53125 -7.140625 C 25.457031 -7.265625 27.429688 -7.476562 29.453125 -7.78125 C 31.472656 -8.082031 33.390625 -8.566406 35.203125 -9.234375 C 36.285156 -9.585938 36.828125 -9.738281 36.828125 -9.6875 C 37.066406 -9.5 37.097656 -8.984375 36.921875 -8.140625 C 36.617188 -6.992188 36.585938 -6.210938 36.828125 -5.796875 C 37.128906 -5.191406 37.160156 -4.492188 36.921875 -3.703125 C 36.859375 -3.585938 36.828125 -3.453125 36.828125 -3.296875 C 36.828125 -3.148438 36.796875 -3.015625 36.734375 -2.890625 C 36.492188 -1.441406 35.890625 -0.191406 34.921875 0.859375 C 33.960938 1.910156 32.816406 2.785156 31.484375 3.484375 C 30.160156 4.179688 28.742188 4.707031 27.234375 5.0625 C 25.722656 5.425781 24.335938 5.609375 23.078125 5.609375 C 22.234375 5.609375 21.359375 5.53125 20.453125 5.375 C 19.546875 5.226562 18.578125 5.003906 17.546875 4.703125 C 14.710938 3.617188 12.34375 2.394531 10.4375 1.03125 C 8.539062 -0.320312 7.035156 -1.875 5.921875 -3.625 C 4.804688 -5.375 4.007812 -7.378906 3.53125 -9.640625 C 3.050781 -11.898438 2.8125 -14.445312 2.8125 -17.28125 C 2.75 -19.09375 2.75 -20.300781 2.8125 -20.90625 C 3.164062 -23.3125 3.8125 -25.570312 4.75 -27.6875 C 5.6875 -29.800781 6.921875 -31.640625 8.453125 -33.203125 C 9.992188 -34.773438 11.804688 -36.015625 13.890625 -36.921875 C 15.972656 -37.828125 18.3125 -38.28125 20.90625 -38.28125 Z M 21.890625 -28.40625 C 21.585938 -28.40625 21.347656 -28.4375 21.171875 -28.5 C 20.992188 -28.5625 20.875 -28.59375 20.8125 -28.59375 L 20.625 -28.59375 C 20.570312 -28.59375 20.515625 -28.5625 20.453125 -28.5 C 19.847656 -28.5 19.210938 -28.363281 18.546875 -28.09375 C 17.878906 -27.820312 17.226562 -27.488281 16.59375 -27.09375 C 15.96875 -26.707031 15.394531 -26.253906 14.875 -25.734375 C 14.363281 -25.222656 13.957031 -24.695312 13.65625 -24.15625 C 13.414062 -23.738281 13.414062 -23.40625 13.65625 -23.15625 L 13.9375 -22.890625 L 14.84375 -22.984375 C 16.289062 -23.097656 17.84375 -23.242188 19.5 -23.421875 C 21.15625 -23.609375 22.953125 -23.851562 24.890625 -24.15625 L 26.78125 -24.4375 C 26.90625 -24.550781 26.753906 -25 26.328125 -25.78125 C 25.785156 -26.632812 25.164062 -27.253906 24.46875 -27.640625 C 23.78125 -28.035156 22.921875 -28.289062 21.890625 -28.40625 Z M 21.890625 -28.40625 "/></g></g></g><g fill="#ffffff" fill-opacity="1"><g transform="translate(340.084639, 423.658124)"><g/></g></g><g fill="#ffffff" fill-opacity="1"><g transform="translate(361.797147, 423.658124)"><g><path d="M 13.203125 -56.46875 C 14.054688 -56.707031 15.082031 -56.582031 16.28125 -56.09375 C 16.820312 -55.914062 17.488281 -55.828125 18.28125 -55.828125 C 18.695312 -55.828125 19.054688 -55.84375 19.359375 -55.875 C 19.660156 -55.90625 19.875 -55.921875 20 -55.921875 C 20.539062 -56.035156 21.21875 -56.125 22.03125 -56.1875 C 22.84375 -56.25 23.6875 -56.320312 24.5625 -56.40625 C 25.4375 -56.5 26.3125 -56.5625 27.1875 -56.59375 C 28.0625 -56.625 28.863281 -56.640625 29.59375 -56.640625 C 31.757812 -56.640625 33.835938 -56.171875 35.828125 -55.234375 C 37.816406 -54.304688 39.609375 -53.085938 41.203125 -51.578125 C 42.804688 -50.066406 44.132812 -48.332031 45.1875 -46.375 C 46.25 -44.414062 46.960938 -42.410156 47.328125 -40.359375 C 47.328125 -40.117188 47.335938 -39.753906 47.359375 -39.265625 C 47.390625 -38.785156 47.40625 -38.289062 47.40625 -37.78125 C 47.40625 -37.269531 47.390625 -36.785156 47.359375 -36.328125 C 47.335938 -35.878906 47.328125 -35.53125 47.328125 -35.28125 C 47.328125 -35.226562 47.296875 -35.035156 47.234375 -34.703125 C 47.171875 -34.367188 47.109375 -34.113281 47.046875 -33.9375 C 46.742188 -31.644531 45.972656 -29.578125 44.734375 -27.734375 C 43.503906 -25.890625 41.925781 -24.335938 40 -23.078125 C 39.507812 -22.648438 38.992188 -22.316406 38.453125 -22.078125 C 37.671875 -21.710938 37.191406 -21.289062 37.015625 -20.8125 C 36.890625 -20.507812 36.890625 -20.296875 37.015625 -20.171875 C 37.066406 -20.117188 37.242188 -19.847656 37.546875 -19.359375 C 37.847656 -18.878906 38.332031 -18.1875 39 -17.28125 C 39.664062 -16.3125 40.207031 -15.554688 40.625 -15.015625 C 41.050781 -14.472656 41.351562 -14.050781 41.53125 -13.75 C 41.707031 -13.632812 42.082031 -13.289062 42.65625 -12.71875 C 43.226562 -12.144531 44.03125 -11.40625 45.0625 -10.5 C 46.03125 -9.65625 46.785156 -8.988281 47.328125 -8.5 C 47.867188 -8.019531 48.195312 -7.71875 48.3125 -7.59375 C 48.5625 -7.414062 49.046875 -7.175781 49.765625 -6.875 C 50.429688 -6.570312 50.835938 -6.375 50.984375 -6.28125 C 51.140625 -6.195312 51.1875 -5.941406 51.125 -5.515625 C 51.0625 -4.910156 50.953125 -4.171875 50.796875 -3.296875 C 50.648438 -2.421875 50.441406 -1.546875 50.171875 -0.671875 C 49.898438 0.203125 49.582031 1.03125 49.21875 1.8125 C 48.863281 2.59375 48.472656 3.195312 48.046875 3.625 C 47.503906 4.226562 46.75 4.816406 45.78125 5.390625 C 44.820312 5.960938 43.921875 6.25 43.078125 6.25 C 41.804688 6.25 40.566406 5.835938 39.359375 5.015625 C 38.148438 4.203125 37.019531 3.207031 35.96875 2.03125 C 34.914062 0.851562 33.960938 -0.394531 33.109375 -1.71875 C 32.265625 -3.039062 31.546875 -4.1875 30.953125 -5.15625 C 29.984375 -6.726562 29.195312 -8.039062 28.59375 -9.09375 C 27.988281 -10.144531 27.535156 -11.003906 27.234375 -11.671875 C 26.816406 -12.878906 26.171875 -13.890625 25.296875 -14.703125 C 24.421875 -15.515625 23.410156 -16.164062 22.265625 -16.65625 C 21.234375 -17.132812 20.566406 -16.832031 20.265625 -15.75 C 20.085938 -15.257812 19.96875 -14.695312 19.90625 -14.0625 C 19.84375 -13.4375 19.753906 -12.703125 19.640625 -11.859375 C 19.515625 -11.066406 19.453125 -10.671875 19.453125 -10.671875 C 19.453125 -10.617188 19.453125 -10.59375 19.453125 -10.59375 C 19.453125 -10.59375 19.390625 -10.46875 19.265625 -10.21875 C 19.023438 -8.226562 18.800781 -6.628906 18.59375 -5.421875 C 18.382812 -4.222656 18.21875 -3.410156 18.09375 -2.984375 C 18.03125 -2.921875 18 -2.738281 18 -2.4375 C 17.945312 -2.382812 17.859375 -2.265625 17.734375 -2.078125 C 17.554688 -1.660156 17.285156 -1.03125 16.921875 -0.1875 C 16.316406 1.207031 15.457031 2.503906 14.34375 3.703125 C 13.226562 4.910156 11.851562 5.515625 10.21875 5.515625 C 8.71875 5.515625 7.210938 5.109375 5.703125 4.296875 C 4.191406 3.484375 3.101562 2.382812 2.4375 1 C 2.320312 0.695312 2.445312 -0.117188 2.8125 -1.453125 C 2.988281 -2.171875 3.132812 -2.769531 3.25 -3.25 C 3.4375 -4.101562 3.617188 -4.875 3.796875 -5.5625 C 3.984375 -6.257812 4.132812 -6.910156 4.25 -7.515625 C 4.851562 -10.222656 5.394531 -12.976562 5.875 -15.78125 C 6.363281 -18.59375 6.664062 -21.382812 6.78125 -24.15625 C 6.90625 -26.332031 7.039062 -28.320312 7.1875 -30.125 C 7.34375 -31.9375 7.476562 -33.628906 7.59375 -35.203125 C 7.78125 -38.148438 7.78125 -40.625 7.59375 -42.625 C 7.539062 -42.976562 7.5 -43.363281 7.46875 -43.78125 C 7.4375 -44.207031 7.390625 -44.695312 7.328125 -45.25 C 7.328125 -46.332031 7.296875 -46.992188 7.234375 -47.234375 C 7.171875 -47.597656 7.171875 -47.957031 7.234375 -48.3125 C 7.359375 -48.675781 7.390625 -49.007812 7.328125 -49.3125 C 7.265625 -49.613281 7.265625 -49.976562 7.328125 -50.40625 C 7.328125 -50.644531 7.328125 -50.867188 7.328125 -51.078125 C 7.328125 -51.285156 7.265625 -51.539062 7.140625 -51.84375 C 6.960938 -52.332031 6.828125 -52.738281 6.734375 -53.0625 C 6.648438 -53.394531 6.664062 -53.710938 6.78125 -54.015625 C 7.019531 -54.617188 7.472656 -55.132812 8.140625 -55.5625 C 8.328125 -55.675781 8.734375 -55.820312 9.359375 -56 C 9.992188 -56.1875 11.273438 -56.34375 13.203125 -56.46875 Z M 27.328125 -44.421875 C 26.597656 -44.421875 25.859375 -44.359375 25.109375 -44.234375 C 24.359375 -44.117188 23.617188 -44.003906 22.890625 -43.890625 C 22.222656 -43.640625 21.722656 -43.378906 21.390625 -43.109375 C 21.066406 -42.835938 20.84375 -42.375 20.71875 -41.71875 C 20.601562 -41.226562 20.601562 -39.660156 20.71875 -37.015625 C 20.78125 -35.804688 20.8125 -34.851562 20.8125 -34.15625 C 20.8125 -33.46875 20.8125 -33.03125 20.8125 -32.84375 C 20.8125 -32.539062 20.992188 -32.148438 21.359375 -31.671875 C 21.472656 -31.546875 21.710938 -31.484375 22.078125 -31.484375 C 22.617188 -31.484375 23.445312 -31.601562 24.5625 -31.84375 C 25.675781 -32.09375 26.835938 -32.394531 28.046875 -32.75 C 29.253906 -33.113281 30.367188 -33.503906 31.390625 -33.921875 C 32.421875 -34.347656 33.144531 -34.773438 33.5625 -35.203125 C 34.414062 -36.046875 34.914062 -37.007812 35.0625 -38.09375 C 35.207031 -39.175781 34.953125 -40.257812 34.296875 -41.34375 C 33.628906 -42.550781 32.628906 -43.363281 31.296875 -43.78125 C 29.972656 -44.207031 28.648438 -44.421875 27.328125 -44.421875 Z M 27.328125 -44.421875 "/></g></g></g><g fill="#ffffff" fill-opacity="1"><g transform="translate(414.902308, 423.658124)"><g><path d="M 29.140625 -39.8125 C 29.679688 -40.050781 30.796875 -40.019531 32.484375 -39.71875 C 35.015625 -39.238281 36.671875 -38.578125 37.453125 -37.734375 C 38.003906 -37.191406 38.335938 -36.5 38.453125 -35.65625 C 38.578125 -34.8125 38.640625 -34.023438 38.640625 -33.296875 C 38.640625 -32.023438 38.59375 -30.695312 38.5 -29.3125 C 38.40625 -27.925781 38.238281 -26.628906 38 -25.421875 C 37.882812 -24.816406 37.8125 -24.210938 37.78125 -23.609375 C 37.75 -23.015625 37.703125 -22.382812 37.640625 -21.71875 C 37.578125 -20.632812 37.546875 -19.378906 37.546875 -17.953125 C 37.546875 -16.535156 37.546875 -14.953125 37.546875 -13.203125 C 37.546875 -9.828125 37.609375 -7.835938 37.734375 -7.234375 C 37.972656 -6.210938 38.785156 -5.550781 40.171875 -5.25 C 40.472656 -5.1875 40.6875 -5.097656 40.8125 -4.984375 C 41.113281 -4.554688 41.203125 -3.921875 41.078125 -3.078125 C 41.015625 -2.953125 40.96875 -2.800781 40.9375 -2.625 C 40.914062 -2.445312 40.875 -2.296875 40.8125 -2.171875 C 40.6875 -1.867188 40.5625 -1.566406 40.4375 -1.265625 C 40.320312 -0.960938 40.234375 -0.660156 40.171875 -0.359375 C 39.992188 0.421875 39.660156 1.171875 39.171875 1.890625 C 38.691406 2.617188 38.101562 3.253906 37.40625 3.796875 C 36.71875 4.335938 35.976562 4.773438 35.1875 5.109375 C 34.40625 5.441406 33.625 5.609375 32.84375 5.609375 C 32.0625 5.609375 31.25 5.273438 30.40625 4.609375 C 30.28125 4.492188 30.082031 4.300781 29.8125 4.03125 C 29.539062 3.757812 29.164062 3.378906 28.6875 2.890625 C 27.601562 1.804688 26.96875 1.144531 26.78125 0.90625 L 26.609375 0.640625 L 26.15625 0.90625 C 24.882812 1.875 24.035156 2.445312 23.609375 2.625 C 23.253906 2.988281 22.726562 3.332031 22.03125 3.65625 C 21.34375 3.988281 20.585938 4.273438 19.765625 4.515625 C 18.953125 4.765625 18.15625 4.960938 17.375 5.109375 C 16.59375 5.265625 15.957031 5.34375 15.46875 5.34375 C 14.257812 5.34375 12.976562 5.160156 11.625 4.796875 C 10.269531 4.429688 9.171875 3.828125 8.328125 2.984375 C 7.484375 2.203125 6.664062 1.164062 5.875 -0.125 C 5.09375 -1.425781 4.3125 -2.953125 3.53125 -4.703125 C 3.289062 -5.429688 3.019531 -6.941406 2.71875 -9.234375 C 2.59375 -10.734375 2.894531 -13.566406 3.625 -17.734375 C 3.738281 -18.210938 3.84375 -18.785156 3.9375 -19.453125 C 4.03125 -20.117188 4.132812 -20.90625 4.25 -21.8125 C 4.25 -21.863281 4.28125 -22.144531 4.34375 -22.65625 C 4.40625 -23.175781 4.492188 -23.945312 4.609375 -24.96875 C 4.859375 -26.84375 5.039062 -28.535156 5.15625 -30.046875 C 5.457031 -33.179688 5.519531 -34.925781 5.34375 -35.28125 C 5.21875 -35.53125 5.003906 -35.816406 4.703125 -36.140625 C 4.398438 -36.472656 4.25 -36.765625 4.25 -37.015625 C 4.25 -38.035156 4.703125 -38.695312 5.609375 -39 C 6.515625 -39.300781 7.359375 -39.484375 8.140625 -39.546875 C 8.441406 -39.597656 8.773438 -39.535156 9.140625 -39.359375 C 9.503906 -39.179688 9.894531 -39.0625 10.3125 -39 C 10.613281 -38.9375 11.066406 -38.800781 11.671875 -38.59375 C 12.273438 -38.382812 12.894531 -38.113281 13.53125 -37.78125 C 14.164062 -37.445312 14.753906 -37.113281 15.296875 -36.78125 C 15.835938 -36.445312 16.195312 -36.160156 16.375 -35.921875 C 16.613281 -35.441406 16.734375 -34.234375 16.734375 -32.296875 C 16.734375 -31.816406 16.734375 -31.179688 16.734375 -30.390625 C 16.734375 -29.609375 16.71875 -28.78125 16.6875 -27.90625 C 16.664062 -27.039062 16.625 -26.171875 16.5625 -25.296875 C 16.5 -24.421875 16.4375 -23.617188 16.375 -22.890625 C 16.375 -22.773438 16.375 -22.59375 16.375 -22.34375 C 16.375 -22.101562 16.34375 -21.800781 16.28125 -21.4375 C 15.925781 -18.1875 15.75 -15.234375 15.75 -12.578125 C 15.75 -11.128906 15.804688 -10.101562 15.921875 -9.5 C 16.046875 -9.195312 16.132812 -8.96875 16.1875 -8.8125 C 16.25 -8.664062 16.3125 -8.503906 16.375 -8.328125 C 16.5 -8.203125 16.738281 -7.972656 17.09375 -7.640625 C 17.457031 -7.304688 17.734375 -7.140625 17.921875 -7.140625 C 18.097656 -7.140625 18.820312 -7.988281 20.09375 -9.6875 C 20.75 -10.53125 21.300781 -11.3125 21.75 -12.03125 C 22.207031 -12.757812 22.585938 -13.53125 22.890625 -14.34375 C 23.191406 -15.15625 23.429688 -16.039062 23.609375 -17 C 23.796875 -17.96875 23.945312 -19.117188 24.0625 -20.453125 C 24.125 -20.691406 24.171875 -20.960938 24.203125 -21.265625 C 24.234375 -21.566406 24.25 -21.75 24.25 -21.8125 C 24.1875 -21.8125 24.203125 -21.972656 24.296875 -22.296875 C 24.390625 -22.628906 24.4375 -23.007812 24.4375 -23.4375 C 24.488281 -24.039062 24.5625 -24.988281 24.65625 -26.28125 C 24.75 -27.582031 24.851562 -28.535156 24.96875 -29.140625 C 25.15625 -30.046875 25.289062 -30.921875 25.375 -31.765625 C 25.46875 -32.609375 25.546875 -33.421875 25.609375 -34.203125 C 25.609375 -36.191406 25.546875 -37.394531 25.421875 -37.8125 C 25.304688 -38.238281 25.398438 -38.332031 25.703125 -38.09375 L 26.0625 -37.90625 L 26.234375 -38.1875 C 26.835938 -38.90625 27.804688 -39.445312 29.140625 -39.8125 Z M 29.140625 -39.8125 "/></g></g></g><g fill="#ffffff" fill-opacity="1"><g transform="translate(457.332145, 423.658124)"><g><path d="M 22.890625 -38.640625 C 23.367188 -38.703125 24.132812 -38.6875 25.1875 -38.59375 C 26.25 -38.5 27.082031 -38.363281 27.6875 -38.1875 C 27.988281 -38.125 28.351562 -38.03125 28.78125 -37.90625 C 29.5 -37.851562 30.21875 -37.550781 30.9375 -37 C 31.664062 -36.457031 32.347656 -35.8125 32.984375 -35.0625 C 33.617188 -34.3125 34.160156 -33.523438 34.609375 -32.703125 C 35.054688 -31.890625 35.375 -31.15625 35.5625 -30.5 C 36.039062 -29.101562 36.351562 -27.5625 36.5 -25.875 C 36.65625 -24.1875 36.703125 -22.378906 36.640625 -20.453125 C 36.585938 -19.546875 36.4375 -18.234375 36.1875 -16.515625 C 35.945312 -14.796875 35.585938 -12.609375 35.109375 -9.953125 C 34.929688 -9.171875 34.898438 -8.234375 35.015625 -7.140625 C 35.078125 -6.722656 35.347656 -6.363281 35.828125 -6.0625 C 36.128906 -5.882812 36.796875 -5.796875 37.828125 -5.796875 C 39.023438 -5.796875 39.867188 -5.914062 40.359375 -6.15625 C 41.316406 -6.394531 41.796875 -6.453125 41.796875 -6.328125 C 41.796875 -5.847656 41.71875 -5.210938 41.5625 -4.421875 C 41.414062 -3.640625 41.238281 -2.828125 41.03125 -1.984375 C 40.820312 -1.140625 40.582031 -0.34375 40.3125 0.40625 C 40.039062 1.15625 39.785156 1.710938 39.546875 2.078125 C 38.703125 3.410156 37.539062 4.363281 36.0625 4.9375 C 34.582031 5.507812 33.085938 5.796875 31.578125 5.796875 C 30.367188 5.796875 29.265625 5.492188 28.265625 4.890625 C 27.273438 4.285156 26.175781 3.257812 24.96875 1.8125 C 24.425781 1.144531 23.972656 0.507812 23.609375 -0.09375 C 23.253906 -0.695312 23.015625 -1.269531 22.890625 -1.8125 C 22.773438 -2.351562 22.671875 -3.078125 22.578125 -3.984375 C 22.484375 -4.890625 22.46875 -6.003906 22.53125 -7.328125 C 22.59375 -8.535156 22.679688 -9.769531 22.796875 -11.03125 C 22.921875 -12.300781 23.070312 -13.628906 23.25 -15.015625 C 23.488281 -16.398438 23.671875 -17.515625 23.796875 -18.359375 C 23.921875 -19.210938 23.984375 -19.816406 23.984375 -20.171875 C 23.984375 -20.898438 23.953125 -21.640625 23.890625 -22.390625 C 23.828125 -23.148438 23.734375 -23.921875 23.609375 -24.703125 C 23.609375 -25.367188 23.457031 -25.941406 23.15625 -26.421875 C 22.914062 -26.898438 22.78125 -27.140625 22.75 -27.140625 C 22.726562 -27.140625 22.59375 -27.140625 22.34375 -27.140625 L 21.890625 -27.234375 L 21.4375 -26.515625 C 20.894531 -25.785156 20.394531 -24.816406 19.9375 -23.609375 C 19.488281 -22.410156 19.207031 -21.359375 19.09375 -20.453125 C 18.96875 -19.304688 18.785156 -18.3125 18.546875 -17.46875 C 18.304688 -16.625 18.097656 -15.925781 17.921875 -15.375 C 17.796875 -15.019531 17.582031 -14.253906 17.28125 -13.078125 C 16.976562 -11.898438 16.554688 -10.316406 16.015625 -8.328125 C 15.109375 -5.003906 14.65625 -2.347656 14.65625 -0.359375 C 14.59375 0.179688 14.5625 0.628906 14.5625 0.984375 C 14.5625 1.347656 14.535156 1.59375 14.484375 1.71875 C 14.421875 2.019531 14.207031 2.335938 13.84375 2.671875 C 13.476562 3.003906 13.066406 3.320312 12.609375 3.625 C 12.160156 3.925781 11.710938 4.210938 11.265625 4.484375 C 10.816406 4.753906 10.441406 4.945312 10.140625 5.0625 C 9.953125 5.1875 9.691406 5.304688 9.359375 5.421875 C 9.035156 5.546875 8.8125 5.640625 8.6875 5.703125 C 8.144531 5.878906 7.421875 5.847656 6.515625 5.609375 C 4.828125 5.191406 3.722656 4.570312 3.203125 3.75 C 2.691406 2.9375 2.347656 1.75 2.171875 0.1875 C 1.929688 -1.382812 1.75 -2.472656 1.625 -3.078125 C 1.5625 -3.984375 1.742188 -4.914062 2.171875 -5.875 C 2.410156 -6.363281 2.601562 -7.085938 2.75 -8.046875 C 2.90625 -9.015625 3.046875 -10.191406 3.171875 -11.578125 C 3.410156 -13.210938 3.617188 -14.84375 3.796875 -16.46875 C 3.984375 -18.09375 4.078125 -19.722656 4.078125 -21.359375 C 4.128906 -22.015625 4.171875 -22.582031 4.203125 -23.0625 C 4.234375 -23.550781 4.28125 -24.035156 4.34375 -24.515625 C 4.40625 -25.003906 4.453125 -25.488281 4.484375 -25.96875 C 4.515625 -26.445312 4.53125 -26.957031 4.53125 -27.5 C 4.53125 -28.46875 4.46875 -29.070312 4.34375 -29.3125 C 4.21875 -29.613281 4.1875 -30.007812 4.25 -30.5 C 4.3125 -32.125 3.800781 -33.445312 2.71875 -34.46875 L 2.171875 -35.109375 L 2.359375 -35.5625 C 2.410156 -35.675781 2.539062 -35.851562 2.75 -36.09375 C 2.96875 -36.34375 3.195312 -36.601562 3.4375 -36.875 C 3.675781 -37.144531 3.898438 -37.382812 4.109375 -37.59375 C 4.328125 -37.800781 4.492188 -37.90625 4.609375 -37.90625 C 4.671875 -37.90625 4.804688 -37.90625 5.015625 -37.90625 C 5.234375 -37.90625 5.492188 -37.847656 5.796875 -37.734375 C 6.097656 -37.671875 6.425781 -37.609375 6.78125 -37.546875 C 7.144531 -37.484375 7.566406 -37.425781 8.046875 -37.375 C 9.859375 -37.132812 11.28125 -36.648438 12.3125 -35.921875 C 12.613281 -35.679688 12.910156 -35.425781 13.203125 -35.15625 C 13.503906 -34.882812 13.804688 -34.535156 14.109375 -34.109375 C 14.359375 -33.804688 14.601562 -33.503906 14.84375 -33.203125 C 15.082031 -32.898438 15.441406 -32.75 15.921875 -32.75 C 16.046875 -32.75 16.585938 -33.414062 17.546875 -34.75 C 18.148438 -35.707031 18.90625 -36.535156 19.8125 -37.234375 C 20.71875 -37.929688 21.742188 -38.398438 22.890625 -38.640625 Z M 22.890625 -38.640625 "/></g></g></g><g fill="#ffffff" fill-opacity="1"><g transform="translate(500.3048, 423.658124)"><g><path d="M 22.890625 -38.640625 C 23.367188 -38.703125 24.132812 -38.6875 25.1875 -38.59375 C 26.25 -38.5 27.082031 -38.363281 27.6875 -38.1875 C 27.988281 -38.125 28.351562 -38.03125 28.78125 -37.90625 C 29.5 -37.851562 30.21875 -37.550781 30.9375 -37 C 31.664062 -36.457031 32.347656 -35.8125 32.984375 -35.0625 C 33.617188 -34.3125 34.160156 -33.523438 34.609375 -32.703125 C 35.054688 -31.890625 35.375 -31.15625 35.5625 -30.5 C 36.039062 -29.101562 36.351562 -27.5625 36.5 -25.875 C 36.65625 -24.1875 36.703125 -22.378906 36.640625 -20.453125 C 36.585938 -19.546875 36.4375 -18.234375 36.1875 -16.515625 C 35.945312 -14.796875 35.585938 -12.609375 35.109375 -9.953125 C 34.929688 -9.171875 34.898438 -8.234375 35.015625 -7.140625 C 35.078125 -6.722656 35.347656 -6.363281 35.828125 -6.0625 C 36.128906 -5.882812 36.796875 -5.796875 37.828125 -5.796875 C 39.023438 -5.796875 39.867188 -5.914062 40.359375 -6.15625 C 41.316406 -6.394531 41.796875 -6.453125 41.796875 -6.328125 C 41.796875 -5.847656 41.71875 -5.210938 41.5625 -4.421875 C 41.414062 -3.640625 41.238281 -2.828125 41.03125 -1.984375 C 40.820312 -1.140625 40.582031 -0.34375 40.3125 0.40625 C 40.039062 1.15625 39.785156 1.710938 39.546875 2.078125 C 38.703125 3.410156 37.539062 4.363281 36.0625 4.9375 C 34.582031 5.507812 33.085938 5.796875 31.578125 5.796875 C 30.367188 5.796875 29.265625 5.492188 28.265625 4.890625 C 27.273438 4.285156 26.175781 3.257812 24.96875 1.8125 C 24.425781 1.144531 23.972656 0.507812 23.609375 -0.09375 C 23.253906 -0.695312 23.015625 -1.269531 22.890625 -1.8125 C 22.773438 -2.351562 22.671875 -3.078125 22.578125 -3.984375 C 22.484375 -4.890625 22.46875 -6.003906 22.53125 -7.328125 C 22.59375 -8.535156 22.679688 -9.769531 22.796875 -11.03125 C 22.921875 -12.300781 23.070312 -13.628906 23.25 -15.015625 C 23.488281 -16.398438 23.671875 -17.515625 23.796875 -18.359375 C 23.921875 -19.210938 23.984375 -19.816406 23.984375 -20.171875 C 23.984375 -20.898438 23.953125 -21.640625 23.890625 -22.390625 C 23.828125 -23.148438 23.734375 -23.921875 23.609375 -24.703125 C 23.609375 -25.367188 23.457031 -25.941406 23.15625 -26.421875 C 22.914062 -26.898438 22.78125 -27.140625 22.75 -27.140625 C 22.726562 -27.140625 22.59375 -27.140625 22.34375 -27.140625 L 21.890625 -27.234375 L 21.4375 -26.515625 C 20.894531 -25.785156 20.394531 -24.816406 19.9375 -23.609375 C 19.488281 -22.410156 19.207031 -21.359375 19.09375 -20.453125 C 18.96875 -19.304688 18.785156 -18.3125 18.546875 -17.46875 C 18.304688 -16.625 18.097656 -15.925781 17.921875 -15.375 C 17.796875 -15.019531 17.582031 -14.253906 17.28125 -13.078125 C 16.976562 -11.898438 16.554688 -10.316406 16.015625 -8.328125 C 15.109375 -5.003906 14.65625 -2.347656 14.65625 -0.359375 C 14.59375 0.179688 14.5625 0.628906 14.5625 0.984375 C 14.5625 1.347656 14.535156 1.59375 14.484375 1.71875 C 14.421875 2.019531 14.207031 2.335938 13.84375 2.671875 C 13.476562 3.003906 13.066406 3.320312 12.609375 3.625 C 12.160156 3.925781 11.710938 4.210938 11.265625 4.484375 C 10.816406 4.753906 10.441406 4.945312 10.140625 5.0625 C 9.953125 5.1875 9.691406 5.304688 9.359375 5.421875 C 9.035156 5.546875 8.8125 5.640625 8.6875 5.703125 C 8.144531 5.878906 7.421875 5.847656 6.515625 5.609375 C 4.828125 5.191406 3.722656 4.570312 3.203125 3.75 C 2.691406 2.9375 2.347656 1.75 2.171875 0.1875 C 1.929688 -1.382812 1.75 -2.472656 1.625 -3.078125 C 1.5625 -3.984375 1.742188 -4.914062 2.171875 -5.875 C 2.410156 -6.363281 2.601562 -7.085938 2.75 -8.046875 C 2.90625 -9.015625 3.046875 -10.191406 3.171875 -11.578125 C 3.410156 -13.210938 3.617188 -14.84375 3.796875 -16.46875 C 3.984375 -18.09375 4.078125 -19.722656 4.078125 -21.359375 C 4.128906 -22.015625 4.171875 -22.582031 4.203125 -23.0625 C 4.234375 -23.550781 4.28125 -24.035156 4.34375 -24.515625 C 4.40625 -25.003906 4.453125 -25.488281 4.484375 -25.96875 C 4.515625 -26.445312 4.53125 -26.957031 4.53125 -27.5 C 4.53125 -28.46875 4.46875 -29.070312 4.34375 -29.3125 C 4.21875 -29.613281 4.1875 -30.007812 4.25 -30.5 C 4.3125 -32.125 3.800781 -33.445312 2.71875 -34.46875 L 2.171875 -35.109375 L 2.359375 -35.5625 C 2.410156 -35.675781 2.539062 -35.851562 2.75 -36.09375 C 2.96875 -36.34375 3.195312 -36.601562 3.4375 -36.875 C 3.675781 -37.144531 3.898438 -37.382812 4.109375 -37.59375 C 4.328125 -37.800781 4.492188 -37.90625 4.609375 -37.90625 C 4.671875 -37.90625 4.804688 -37.90625 5.015625 -37.90625 C 5.234375 -37.90625 5.492188 -37.847656 5.796875 -37.734375 C 6.097656 -37.671875 6.425781 -37.609375 6.78125 -37.546875 C 7.144531 -37.484375 7.566406 -37.425781 8.046875 -37.375 C 9.859375 -37.132812 11.28125 -36.648438 12.3125 -35.921875 C 12.613281 -35.679688 12.910156 -35.425781 13.203125 -35.15625 C 13.503906 -34.882812 13.804688 -34.535156 14.109375 -34.109375 C 14.359375 -33.804688 14.601562 -33.503906 14.84375 -33.203125 C 15.082031 -32.898438 15.441406 -32.75 15.921875 -32.75 C 16.046875 -32.75 16.585938 -33.414062 17.546875 -34.75 C 18.148438 -35.707031 18.90625 -36.535156 19.8125 -37.234375 C 20.71875 -37.929688 21.742188 -38.398438 22.890625 -38.640625 Z M 22.890625 -38.640625 "/></g></g></g><g fill="#ffffff" fill-opacity="1"><g transform="translate(543.277454, 423.658124)"><g><path d="M 20.90625 -38.28125 C 23.800781 -38.28125 26.4375 -37.660156 28.8125 -36.421875 C 31.195312 -35.179688 33.234375 -33.328125 34.921875 -30.859375 C 36.191406 -29.109375 36.945312 -27.476562 37.1875 -25.96875 C 37.425781 -24.09375 37.425781 -22.492188 37.1875 -21.171875 C 36.769531 -18.878906 35.414062 -17.28125 33.125 -16.375 C 30.820312 -15.53125 27.171875 -14.898438 22.171875 -14.484375 C 21.929688 -14.484375 21.398438 -14.4375 20.578125 -14.34375 C 19.765625 -14.25 18.921875 -14.140625 18.046875 -14.015625 C 17.171875 -13.898438 16.382812 -13.78125 15.6875 -13.65625 C 15 -13.539062 14.625 -13.421875 14.5625 -13.296875 C 14.445312 -13.179688 14.421875 -12.878906 14.484375 -12.390625 C 14.484375 -11.429688 14.78125 -10.738281 15.375 -10.3125 C 16.226562 -9.351562 17.46875 -8.582031 19.09375 -8 C 20.71875 -7.425781 22.195312 -7.140625 23.53125 -7.140625 C 25.457031 -7.265625 27.429688 -7.476562 29.453125 -7.78125 C 31.472656 -8.082031 33.390625 -8.566406 35.203125 -9.234375 C 36.285156 -9.585938 36.828125 -9.738281 36.828125 -9.6875 C 37.066406 -9.5 37.097656 -8.984375 36.921875 -8.140625 C 36.617188 -6.992188 36.585938 -6.210938 36.828125 -5.796875 C 37.128906 -5.191406 37.160156 -4.492188 36.921875 -3.703125 C 36.859375 -3.585938 36.828125 -3.453125 36.828125 -3.296875 C 36.828125 -3.148438 36.796875 -3.015625 36.734375 -2.890625 C 36.492188 -1.441406 35.890625 -0.191406 34.921875 0.859375 C 33.960938 1.910156 32.816406 2.785156 31.484375 3.484375 C 30.160156 4.179688 28.742188 4.707031 27.234375 5.0625 C 25.722656 5.425781 24.335938 5.609375 23.078125 5.609375 C 22.234375 5.609375 21.359375 5.53125 20.453125 5.375 C 19.546875 5.226562 18.578125 5.003906 17.546875 4.703125 C 14.710938 3.617188 12.34375 2.394531 10.4375 1.03125 C 8.539062 -0.320312 7.035156 -1.875 5.921875 -3.625 C 4.804688 -5.375 4.007812 -7.378906 3.53125 -9.640625 C 3.050781 -11.898438 2.8125 -14.445312 2.8125 -17.28125 C 2.75 -19.09375 2.75 -20.300781 2.8125 -20.90625 C 3.164062 -23.3125 3.8125 -25.570312 4.75 -27.6875 C 5.6875 -29.800781 6.921875 -31.640625 8.453125 -33.203125 C 9.992188 -34.773438 11.804688 -36.015625 13.890625 -36.921875 C 15.972656 -37.828125 18.3125 -38.28125 20.90625 -38.28125 Z M 21.890625 -28.40625 C 21.585938 -28.40625 21.347656 -28.4375 21.171875 -28.5 C 20.992188 -28.5625 20.875 -28.59375 20.8125 -28.59375 L 20.625 -28.59375 C 20.570312 -28.59375 20.515625 -28.5625 20.453125 -28.5 C 19.847656 -28.5 19.210938 -28.363281 18.546875 -28.09375 C 17.878906 -27.820312 17.226562 -27.488281 16.59375 -27.09375 C 15.96875 -26.707031 15.394531 -26.253906 14.875 -25.734375 C 14.363281 -25.222656 13.957031 -24.695312 13.65625 -24.15625 C 13.414062 -23.738281 13.414062 -23.40625 13.65625 -23.15625 L 13.9375 -22.890625 L 14.84375 -22.984375 C 16.289062 -23.097656 17.84375 -23.242188 19.5 -23.421875 C 21.15625 -23.609375 22.953125 -23.851562 24.890625 -24.15625 L 26.78125 -24.4375 C 26.90625 -24.550781 26.753906 -25 26.328125 -25.78125 C 25.785156 -26.632812 25.164062 -27.253906 24.46875 -27.640625 C 23.78125 -28.035156 22.921875 -28.289062 21.890625 -28.40625 Z M 21.890625 -28.40625 "/></g></g></g><g fill="#ffffff" fill-opacity="1"><g transform="translate(582.450441, 423.658124)"><g><path d="M 5.25 -38.28125 C 5.488281 -38.332031 5.984375 -38.359375 6.734375 -38.359375 C 7.492188 -38.359375 8.054688 -38.300781 8.421875 -38.1875 C 9.804688 -37.945312 11.222656 -37.253906 12.671875 -36.109375 C 13.578125 -35.441406 14.085938 -34.925781 14.203125 -34.5625 C 14.328125 -34.144531 14.445312 -33.828125 14.5625 -33.609375 C 14.6875 -33.398438 14.867188 -33.085938 15.109375 -32.671875 C 15.410156 -32.546875 15.953125 -32.90625 16.734375 -33.75 C 17.035156 -34.050781 17.546875 -34.425781 18.265625 -34.875 C 18.992188 -35.332031 19.539062 -35.679688 19.90625 -35.921875 C 20.570312 -36.222656 21.207031 -36.523438 21.8125 -36.828125 C 22.414062 -37.128906 23.046875 -37.429688 23.703125 -37.734375 C 24.429688 -38.148438 25.25 -38.300781 26.15625 -38.1875 C 26.8125 -38.1875 27.410156 -37.972656 27.953125 -37.546875 L 28.328125 -37.28125 L 28.328125 -36.28125 C 28.328125 -35.914062 28.265625 -35.476562 28.140625 -34.96875 C 28.015625 -34.457031 27.875 -33.898438 27.71875 -33.296875 C 27.570312 -32.691406 27.410156 -32.132812 27.234375 -31.625 C 27.054688 -31.113281 26.90625 -30.675781 26.78125 -30.3125 C 26.238281 -29.164062 25.332031 -27.988281 24.0625 -26.78125 C 23.757812 -26.476562 23.488281 -26.222656 23.25 -26.015625 C 23.007812 -25.804688 22.800781 -25.609375 22.625 -25.421875 C 22.5625 -25.304688 22.410156 -25.125 22.171875 -24.875 C 21.929688 -24.632812 21.703125 -24.394531 21.484375 -24.15625 C 21.273438 -23.914062 21.066406 -23.6875 20.859375 -23.46875 C 20.648438 -23.257812 20.515625 -23.128906 20.453125 -23.078125 C 19.546875 -22.171875 18.773438 -21.007812 18.140625 -19.59375 C 17.503906 -18.175781 17.066406 -16.863281 16.828125 -15.65625 C 16.828125 -15.53125 16.8125 -15.132812 16.78125 -14.46875 C 16.75 -13.8125 16.734375 -13.078125 16.734375 -12.265625 C 16.734375 -11.453125 16.71875 -10.632812 16.6875 -9.8125 C 16.664062 -9 16.65625 -8.382812 16.65625 -7.96875 C 16.65625 -7.125 16.640625 -6.398438 16.609375 -5.796875 C 16.578125 -5.191406 16.53125 -4.738281 16.46875 -4.4375 C 16.40625 -4.132812 16.359375 -3.800781 16.328125 -3.4375 C 16.296875 -3.070312 16.28125 -2.679688 16.28125 -2.265625 C 16.28125 -1.296875 16.160156 -0.539062 15.921875 0 C 15.859375 0.238281 15.769531 0.660156 15.65625 1.265625 C 15.59375 1.742188 15.410156 2.40625 15.109375 3.25 L 14.75 4.53125 L 13.125 6.15625 L 10.765625 6.0625 C 9.984375 6 9.363281 5.96875 8.90625 5.96875 C 8.457031 5.96875 8.144531 5.9375 7.96875 5.875 C 7.601562 5.757812 7.191406 5.59375 6.734375 5.375 C 6.285156 5.164062 5.757812 4.910156 5.15625 4.609375 C 4.1875 4.003906 3.582031 3.492188 3.34375 3.078125 C 3.226562 2.773438 3.140625 2.515625 3.078125 2.296875 C 3.015625 2.085938 2.953125 1.863281 2.890625 1.625 C 2.773438 1.144531 2.773438 -0.207031 2.890625 -2.4375 C 2.890625 -3.769531 2.90625 -4.84375 2.9375 -5.65625 C 2.96875 -6.46875 3.015625 -7.023438 3.078125 -7.328125 C 3.140625 -7.628906 3.179688 -8.003906 3.203125 -8.453125 C 3.234375 -8.910156 3.25 -9.410156 3.25 -9.953125 C 3.25 -10.972656 3.3125 -12.175781 3.4375 -13.5625 C 3.5625 -14.957031 3.625 -17.039062 3.625 -19.8125 L 3.625 -24.0625 L 3.34375 -24.515625 C 3.164062 -24.941406 2.988281 -26.148438 2.8125 -28.140625 C 2.6875 -29.046875 2.609375 -29.90625 2.578125 -30.71875 C 2.546875 -31.53125 2.5625 -32.269531 2.625 -32.9375 C 2.6875 -35.050781 2.867188 -36.347656 3.171875 -36.828125 C 3.585938 -37.609375 4.28125 -38.09375 5.25 -38.28125 Z M 5.25 -38.28125 "/></g></g></g></svg>