<svg xmlns="http://www.w3.org/2000/svg" xmlns:xlink="http://www.w3.org/1999/xlink" width="1080" zoomAndPan="magnify" viewBox="0 0 810 809.999993" height="1080" preserveAspectRatio="xMidYMid meet" version="1.0"><defs><clipPath id="cfbfc6f8ab"><path d="M 204.628906 172.683594 L 603 172.683594 L 603 636 L 204.628906 636 Z M 204.628906 172.683594 " clip-rule="nonzero"/></clipPath></defs><path fill="#ffffff" d="M 524.347656 322.226562 C 524.347656 324.417969 522.574219 326.195312 520.378906 326.195312 C 518.191406 326.195312 516.410156 324.417969 516.410156 322.226562 C 516.410156 320.035156 518.191406 318.257812 520.378906 318.257812 C 522.574219 318.257812 524.347656 320.035156 524.347656 322.226562 " fill-opacity="1" fill-rule="nonzero"/><g clip-path="url(#cfbfc6f8ab)"><path fill="#ffffff" d="M 442.5625 534.726562 C 442.5625 534.726562 434.554688 554.535156 428.722656 562.542969 C 422.886719 570.546875 431.164062 578.285156 431.164062 578.285156 C 431.164062 578.285156 466.441406 615.464844 467.394531 621.707031 C 468.105469 626.398438 451.183594 620.472656 440.71875 624.777344 C 426.460938 625.289062 422.480469 613.269531 419.289062 603.316406 C 415.832031 592.53125 409.519531 570.140625 406.058594 559.761719 C 406.058594 559.761719 420.171875 538.253906 442.5625 534.726562 Z M 276.878906 347.46875 L 208.488281 277.847656 L 214.457031 316.53125 L 363.179688 446.253906 L 323.554688 419.113281 L 342.011719 453.847656 L 359.378906 460.363281 L 347.167969 458.734375 L 352.597656 470.679688 L 359.398438 472.894531 C 340.660156 486.441406 322.558594 502.421875 307.542969 521.292969 L 312.429688 534.320312 C 312.429688 534.320312 335.632812 499.917969 368.199219 485.261719 C 368.199219 485.261719 343.164062 500.324219 327.085938 526.378906 L 328.507812 534.320312 C 328.507812 534.320312 355.582031 514.777344 397.511719 505.617188 C 397.511719 505.617188 381.632812 511.113281 372.269531 514.371094 C 372.269531 514.371094 393.234375 526.992188 413.792969 529.839844 C 413.792969 529.839844 400.359375 540.21875 395.066406 546.734375 C 395.066406 546.734375 402.804688 587.035156 413.386719 613.089844 C 413.386719 613.089844 410.230469 620.3125 402.804688 621.738281 C 395.375 623.164062 380.617188 620.519531 379.902344 632.019531 C 379.902344 632.019531 385.195312 626.316406 392.21875 627.84375 C 399.242188 629.371094 407.890625 628.761719 414.507812 624.386719 C 414.507812 624.386719 423.15625 630.1875 433.738281 630.492188 C 433.941406 630.496094 434.144531 630.492188 434.347656 630.5 C 433.945312 631.296875 433.59375 632.164062 433.335938 633.136719 C 433.335938 633.136719 436.347656 630.875 440.570312 630.378906 C 441.234375 630.351562 441.894531 630.320312 442.550781 630.285156 C 443.726562 630.320312 444.957031 630.511719 446.226562 630.933594 C 453.144531 633.238281 465.359375 635.003906 473.632812 631.070312 C 473.632812 631.070312 481.910156 637.308594 497.789062 634.867188 C 513.664062 632.425781 522.757812 627.8125 526.828125 633.644531 C 526.828125 633.644531 528.59375 627.40625 521.261719 625.914062 C 513.933594 624.417969 495.078125 635.410156 478.925781 621.839844 C 462.78125 608.273438 441.75 573.128906 441.75 573.128906 C 441.75 573.128906 456.265625 547.210938 482.320312 528.210938 C 508.371094 509.210938 541.484375 478.546875 534.15625 428.066406 C 526.828125 377.589844 520.585938 345.839844 550.707031 333.355469 C 580.835938 320.871094 602.679688 322.429688 602.679688 322.429688 C 602.679688 322.429688 605.328125 305.332031 555.253906 313.476562 C 555.253906 313.476562 530.015625 277.246094 492.359375 277.855469 L 486.664062 286.8125 C 486.664062 286.8125 494.394531 287.015625 501.417969 289.355469 C 501.417969 289.355469 492.160156 289.660156 485.644531 291.390625 L 485.03125 299.125 C 485.03125 299.125 494.195312 296.277344 502.539062 298.515625 C 502.539062 298.515625 487.375 299.019531 480.25 306.960938 L 478.316406 316.425781 C 478.316406 316.425781 484.421875 311.949219 488.289062 310.421875 C 488.289062 310.421875 483.203125 316.832031 480.453125 320.5 L 480.25 327.722656 C 480.25 327.722656 484.929688 323.855469 489 320.800781 L 482.59375 329.347656 C 482.59375 329.347656 483.945312 333.378906 485.382812 339.4375 C 490.890625 326.652344 504.71875 304.585938 530.726562 319.683594 C 530.726562 319.683594 531.441406 330.472656 520.652344 330.164062 C 515.972656 330.03125 508.777344 330.722656 502.140625 333.339844 C 492.886719 336.988281 487.324219 346.503906 488.289062 356.402344 C 488.5 358.558594 488.640625 360.75 488.699219 362.9375 C 489.105469 379.625 490.53125 402.625 454.300781 419.925781 C 437.9375 427.742188 415.136719 438.222656 391.113281 452.308594 L 216.628906 172.691406 L 204.6875 223.710938 L 252.453125 300.246094 L 226.398438 266.59375 L 220.429688 277.847656 L 276.878906 347.46875 " fill-opacity="1" fill-rule="nonzero"/></g></svg>