<svg xmlns="http://www.w3.org/2000/svg" xmlns:xlink="http://www.w3.org/1999/xlink" width="1080" zoomAndPan="magnify" viewBox="0 0 810 809.999993" height="1080" preserveAspectRatio="xMidYMid meet" version="1.0"><defs><clipPath id="2f0d1cadb7"><path d="M 128 79.664062 L 685 79.664062 L 685 727 L 128 727 Z M 128 79.664062 " clip-rule="nonzero"/></clipPath></defs><rect x="-81" width="972" fill="#ffffff" y="-80.999999" height="971.999992" fill-opacity="1"/><rect x="-81" width="972" fill="#3dced7" y="-80.999999" height="971.999992" fill-opacity="1"/><path fill="#ffffff" d="M 238.195312 288.65625 C 238.195312 291.714844 240.675781 294.199219 243.742188 294.199219 C 246.804688 294.199219 249.289062 291.714844 249.289062 288.65625 C 249.289062 285.59375 246.804688 283.109375 243.742188 283.109375 C 240.675781 283.109375 238.195312 285.59375 238.195312 288.65625 " fill-opacity="1" fill-rule="nonzero"/><g clip-path="url(#2f0d1cadb7)"><path fill="#ffffff" d="M 352.496094 585.632812 C 352.496094 585.632812 363.6875 613.320312 371.839844 624.507812 C 379.996094 635.695312 368.429688 646.507812 368.429688 646.507812 C 368.429688 646.507812 319.125 698.46875 317.792969 707.191406 C 316.796875 713.75 340.449219 705.464844 355.078125 711.484375 C 375 712.195312 380.5625 695.402344 385.019531 681.492188 C 389.855469 666.414062 398.675781 635.128906 403.511719 620.621094 C 403.511719 620.621094 383.789062 590.5625 352.496094 585.632812 Z M 584.050781 323.929688 L 679.628906 226.632812 L 671.285156 280.691406 L 463.4375 461.988281 L 518.816406 424.054688 L 493.019531 472.601562 L 468.75 481.707031 L 485.816406 479.429688 L 478.230469 496.125 L 468.726562 499.222656 C 494.910156 518.15625 520.210938 540.484375 541.191406 566.859375 L 534.363281 585.0625 C 534.363281 585.0625 501.9375 536.988281 456.421875 516.507812 C 456.421875 516.507812 491.410156 537.558594 513.882812 573.964844 L 511.894531 585.0625 C 511.894531 585.0625 474.058594 557.757812 415.460938 544.953125 C 415.460938 544.953125 437.648438 552.632812 450.734375 557.183594 C 450.734375 557.183594 421.433594 574.824219 392.703125 578.804688 C 392.703125 578.804688 411.476562 593.3125 418.875 602.414062 C 418.875 602.414062 408.0625 658.738281 393.273438 695.148438 C 393.273438 695.148438 397.679688 705.246094 408.0625 707.238281 C 418.445312 709.230469 439.070312 705.53125 440.066406 721.601562 C 440.066406 721.601562 432.667969 713.636719 422.855469 715.769531 C 413.042969 717.90625 400.953125 717.054688 391.707031 710.9375 C 391.707031 710.9375 379.617188 719.042969 364.828125 719.46875 C 364.542969 719.476562 364.257812 719.472656 363.976562 719.480469 C 364.542969 720.59375 365.03125 721.808594 365.394531 723.167969 C 365.394531 723.167969 361.183594 720.003906 355.28125 719.3125 C 354.355469 719.273438 353.429688 719.230469 352.511719 719.179688 C 350.871094 719.230469 349.152344 719.5 347.378906 720.085938 C 337.707031 723.308594 320.640625 725.773438 309.074219 720.277344 C 309.074219 720.277344 297.507812 729 275.316406 725.585938 C 253.128906 722.171875 240.421875 715.726562 234.730469 723.875 C 234.730469 723.875 232.265625 715.15625 242.511719 713.070312 C 252.75 710.984375 279.105469 726.34375 301.675781 707.378906 C 324.242188 688.417969 353.636719 639.300781 353.636719 639.300781 C 353.636719 639.300781 333.347656 603.078125 296.933594 576.53125 C 260.523438 549.976562 214.25 507.117188 224.492188 436.574219 C 234.730469 366.027344 243.457031 321.652344 201.359375 304.203125 C 159.253906 286.761719 128.722656 288.941406 128.722656 288.941406 C 128.722656 288.941406 125.023438 265.046875 195.003906 276.421875 C 195.003906 276.421875 230.277344 225.789062 282.902344 226.640625 L 290.863281 239.160156 C 290.863281 239.160156 280.058594 239.441406 270.242188 242.714844 C 270.242188 242.714844 283.183594 243.140625 292.289062 245.558594 L 293.144531 256.367188 C 293.144531 256.367188 280.339844 252.386719 268.679688 255.515625 C 268.679688 255.515625 289.871094 256.222656 299.828125 267.320312 L 302.53125 280.550781 C 302.53125 280.550781 293.996094 274.289062 288.589844 272.160156 C 288.589844 272.160156 295.703125 281.117188 299.542969 286.238281 L 299.828125 296.335938 C 299.828125 296.335938 293.285156 290.933594 287.597656 286.664062 L 296.554688 298.609375 C 296.554688 298.609375 294.660156 304.242188 292.652344 312.707031 C 284.957031 294.839844 265.632812 264 229.28125 285.097656 C 229.28125 285.097656 228.285156 300.175781 243.363281 299.746094 C 249.90625 299.5625 259.960938 300.527344 269.234375 304.183594 C 282.167969 309.285156 289.941406 322.582031 288.589844 336.417969 C 288.296875 339.429688 288.097656 342.492188 288.019531 345.546875 C 287.453125 368.871094 285.460938 401.015625 336.09375 425.195312 C 358.960938 436.117188 390.828125 450.761719 424.402344 470.449219 L 668.25 79.671875 L 684.941406 150.976562 L 618.183594 257.933594 L 654.59375 210.902344 L 662.941406 226.632812 L 584.050781 323.929688 " fill-opacity="1" fill-rule="nonzero"/></g></svg>