<svg xmlns="http://www.w3.org/2000/svg" xmlns:xlink="http://www.w3.org/1999/xlink" width="1080" zoomAndPan="magnify" viewBox="0 0 810 809.999993" height="1080" preserveAspectRatio="xMidYMid meet" version="1.0"><defs><g/><clipPath id="d7f88dfdbb"><path d="M 397 150.492188 L 795.339844 150.492188 L 795.339844 614 L 397 614 Z M 397 150.492188 " clip-rule="nonzero"/></clipPath></defs><path fill="#ffffff" d="M 475.851562 300.03125 C 475.851562 302.222656 477.628906 304 479.820312 304 C 482.011719 304 483.789062 302.222656 483.789062 300.03125 C 483.789062 297.84375 482.011719 296.0625 479.820312 296.0625 C 477.628906 296.0625 475.851562 297.84375 475.851562 300.03125 " fill-opacity="1" fill-rule="nonzero"/><g clip-path="url(#d7f88dfdbb)"><path fill="#ffffff" d="M 557.640625 512.53125 C 557.640625 512.53125 565.648438 532.34375 571.480469 540.347656 C 577.316406 548.355469 569.039062 556.089844 569.039062 556.089844 C 569.039062 556.089844 533.761719 593.269531 532.808594 599.511719 C 532.097656 604.207031 549.019531 598.277344 559.484375 602.585938 C 573.742188 603.09375 577.722656 591.074219 580.914062 581.125 C 584.371094 570.335938 590.683594 547.949219 594.144531 537.566406 C 594.144531 537.566406 580.027344 516.058594 557.640625 512.53125 Z M 723.324219 325.273438 L 791.714844 255.652344 L 785.746094 294.335938 L 637.023438 424.058594 L 676.648438 396.917969 L 658.191406 431.65625 L 640.824219 438.171875 L 653.035156 436.539062 L 647.605469 448.484375 L 640.804688 450.699219 C 659.542969 464.25 677.644531 480.226562 692.660156 499.097656 L 687.773438 512.125 C 687.773438 512.125 664.570312 477.726562 632.003906 463.070312 C 632.003906 463.070312 657.039062 478.132812 673.117188 504.183594 L 671.695312 512.125 C 671.695312 512.125 644.621094 492.585938 602.691406 483.421875 C 602.691406 483.421875 618.570312 488.917969 627.933594 492.175781 C 627.933594 492.175781 606.96875 504.796875 586.410156 507.644531 C 586.410156 507.644531 599.84375 518.027344 605.136719 524.539062 C 605.136719 524.539062 597.398438 564.84375 586.816406 590.894531 C 586.816406 590.894531 589.972656 598.121094 597.398438 599.542969 C 604.828125 600.96875 619.585938 598.324219 620.300781 609.824219 C 620.300781 609.824219 615.007812 604.125 607.984375 605.652344 C 600.960938 607.179688 592.3125 606.566406 585.695312 602.191406 C 585.695312 602.191406 577.046875 607.992188 566.460938 608.296875 C 566.261719 608.304688 566.054688 608.300781 565.855469 608.304688 C 566.257812 609.101562 566.609375 609.96875 566.867188 610.941406 C 566.867188 610.941406 563.855469 608.679688 559.632812 608.1875 C 558.96875 608.15625 558.308594 608.125 557.652344 608.089844 C 556.476562 608.125 555.246094 608.316406 553.976562 608.738281 C 547.058594 611.046875 534.84375 612.808594 526.566406 608.875 C 526.566406 608.875 518.292969 615.117188 502.414062 612.675781 C 486.539062 610.230469 477.445312 605.617188 473.375 611.449219 C 473.375 611.449219 471.609375 605.210938 478.941406 603.71875 C 486.265625 602.226562 505.125 613.214844 521.277344 599.648438 C 537.421875 586.078125 558.453125 550.933594 558.453125 550.933594 C 558.453125 550.933594 543.9375 525.015625 517.882812 506.019531 C 491.828125 487.019531 458.71875 456.351562 466.046875 405.875 C 473.375 355.398438 479.617188 323.644531 449.492188 311.160156 C 419.367188 298.675781 397.519531 300.238281 397.519531 300.238281 C 397.519531 300.238281 394.875 283.140625 444.945312 291.28125 C 444.945312 291.28125 470.1875 255.050781 507.84375 255.660156 L 513.539062 264.617188 C 513.539062 264.617188 505.808594 264.820312 498.785156 267.160156 C 498.785156 267.160156 508.042969 267.464844 514.558594 269.195312 L 515.167969 276.929688 C 515.167969 276.929688 506.007812 274.082031 497.664062 276.320312 C 497.664062 276.320312 512.828125 276.828125 519.953125 284.769531 L 521.886719 294.234375 C 521.886719 294.234375 515.78125 289.753906 511.914062 288.230469 C 511.914062 288.230469 517 294.640625 519.75 298.304688 L 519.953125 305.527344 C 519.953125 305.527344 515.269531 301.664062 511.199219 298.609375 L 517.609375 307.15625 C 517.609375 307.15625 516.253906 311.1875 514.820312 317.242188 C 509.3125 304.457031 495.484375 282.390625 469.476562 297.488281 C 469.476562 297.488281 468.761719 308.277344 479.550781 307.96875 C 484.230469 307.839844 491.425781 308.527344 498.0625 311.144531 C 507.316406 314.796875 512.878906 324.308594 511.914062 334.210938 C 511.703125 336.363281 511.558594 338.554688 511.503906 340.742188 C 511.097656 357.433594 509.671875 380.433594 545.902344 397.734375 C 562.265625 405.546875 585.066406 416.027344 609.089844 430.113281 L 783.574219 150.496094 L 795.515625 201.519531 L 747.75 278.050781 L 773.800781 244.398438 L 779.773438 255.652344 L 723.324219 325.273438 " fill-opacity="1" fill-rule="nonzero"/></g><g fill="#ffffff" fill-opacity="1"><g transform="translate(6.001618, 407.932931)"><g><path d="M 49.21875 -81.78125 C 51.34375 -81.78125 52.445312 -81.820312 52.53125 -81.90625 C 53.59375 -82.082031 54.566406 -81.90625 55.453125 -81.375 C 56.421875 -80.9375 57.191406 -80.472656 57.765625 -79.984375 C 58.335938 -79.503906 58.84375 -78.820312 59.28125 -77.9375 C 59.632812 -77.226562 59.789062 -76.429688 59.75 -75.546875 C 59.707031 -74.671875 59.550781 -73.75 59.28125 -72.78125 C 58.75 -70.84375 58 -69.125 57.03125 -67.625 C 56.0625 -66.125 54.9375 -65.085938 53.65625 -64.515625 C 52.375 -63.941406 51.207031 -63.390625 50.15625 -62.859375 C 49.976562 -62.765625 49.578125 -62.648438 48.953125 -62.515625 C 48.335938 -62.390625 47.546875 -62.109375 46.578125 -61.671875 C 45.609375 -61.222656 44.8125 -60.84375 44.1875 -60.53125 C 43.570312 -60.226562 43.175781 -60.03125 43 -59.9375 C 42.914062 -59.851562 41.90625 -59.457031 39.96875 -58.75 C 38.113281 -57.957031 36.476562 -57.207031 35.0625 -56.5 C 34.53125 -56.238281 34.046875 -56 33.609375 -55.78125 C 33.171875 -55.5625 32.726562 -55.273438 32.28125 -54.921875 C 31.9375 -54.648438 31.453125 -54.207031 30.828125 -53.59375 C 30.210938 -52.976562 29.570312 -52.25 28.90625 -51.40625 C 28.25 -50.570312 27.585938 -49.664062 26.921875 -48.6875 C 26.265625 -47.71875 25.71875 -46.707031 25.28125 -45.65625 C 24.21875 -43.09375 23.421875 -39.695312 22.890625 -35.46875 C 22.710938 -33.96875 22.644531 -32.378906 22.6875 -30.703125 C 22.738281 -29.023438 22.851562 -27.304688 23.03125 -25.546875 C 23.113281 -25.097656 23.195312 -24.648438 23.28125 -24.203125 C 23.375 -23.765625 23.460938 -23.328125 23.546875 -22.890625 C 24.878906 -19.273438 27.109375 -16.648438 30.234375 -15.015625 C 33.367188 -13.390625 36.742188 -12.578125 40.359375 -12.578125 C 42.035156 -12.578125 44 -12.660156 46.25 -12.828125 C 48.5 -13.003906 50.503906 -13.269531 52.265625 -13.625 C 53.054688 -13.71875 53.847656 -13.875 54.640625 -14.09375 C 55.441406 -14.3125 56.238281 -14.554688 57.03125 -14.828125 C 58.175781 -15.265625 58.878906 -15.503906 59.140625 -15.546875 C 59.410156 -15.585938 59.898438 -15.390625 60.609375 -14.953125 C 61.140625 -14.691406 61.445312 -14.515625 61.53125 -14.421875 C 61.53125 -14.242188 61.550781 -14.019531 61.59375 -13.75 C 61.644531 -13.488281 61.710938 -13.097656 61.796875 -12.578125 C 61.878906 -12.128906 61.921875 -11.707031 61.921875 -11.3125 C 61.921875 -10.914062 61.96875 -10.5 62.0625 -10.0625 C 62.238281 -8.644531 62.328125 -7.363281 62.328125 -6.21875 C 62.328125 -5.070312 62.0625 -4.015625 61.53125 -3.046875 C 60.382812 -0.835938 58.882812 0.945312 57.03125 2.3125 C 55.175781 3.675781 53.101562 4.800781 50.8125 5.6875 C 48.695312 6.394531 46.488281 7.015625 44.1875 7.546875 C 41.894531 8.078125 39.601562 8.34375 37.3125 8.34375 C 35.457031 8.34375 33.445312 8.164062 31.28125 7.8125 C 29.125 7.457031 27.210938 6.796875 25.546875 5.828125 C 20.597656 3.085938 16.179688 -0.394531 12.296875 -4.625 C 8.421875 -8.863281 6 -13.847656 5.03125 -19.578125 C 4.851562 -20.554688 4.71875 -21.375 4.625 -22.03125 C 4.539062 -22.695312 4.453125 -23.25 4.359375 -23.6875 C 4.097656 -24.75 3.96875 -26.425781 3.96875 -28.71875 C 3.96875 -31.269531 4.117188 -33.691406 4.421875 -35.984375 C 4.734375 -38.285156 5.15625 -40.515625 5.6875 -42.671875 C 6.21875 -44.835938 6.878906 -47 7.671875 -49.15625 C 8.460938 -51.320312 9.390625 -53.59375 10.453125 -55.96875 C 11.421875 -58.269531 12.367188 -60.191406 13.296875 -61.734375 C 14.222656 -63.273438 15.210938 -64.707031 16.265625 -66.03125 C 17.328125 -67.351562 18.5625 -68.65625 19.96875 -69.9375 C 21.382812 -71.21875 23.066406 -72.648438 25.015625 -74.234375 C 26.859375 -75.554688 29.328125 -76.789062 32.421875 -77.9375 C 33.035156 -78.113281 33.71875 -78.351562 34.46875 -78.65625 C 35.21875 -78.96875 36.035156 -79.300781 36.921875 -79.65625 C 37.710938 -79.925781 38.414062 -80.125 39.03125 -80.25 C 39.65625 -80.382812 40.1875 -80.539062 40.625 -80.71875 C 41.59375 -80.894531 42.804688 -81.09375 44.265625 -81.3125 C 45.722656 -81.53125 47.375 -81.6875 49.21875 -81.78125 Z M 49.21875 -81.78125 "/></g></g></g><g fill="#ffffff" fill-opacity="1"><g transform="translate(70.969402, 407.932931)"><g><path d="M 29.640625 -56.375 C 30.785156 -56.375 31.492188 -56.414062 31.765625 -56.5 C 33.171875 -56.59375 34.929688 -56.460938 37.046875 -56.109375 C 39.253906 -55.671875 41.21875 -54.785156 42.9375 -53.453125 C 44.65625 -52.128906 46.175781 -50.585938 47.5 -48.828125 C 48.820312 -47.066406 50.015625 -45.171875 51.078125 -43.140625 C 52.140625 -41.109375 53.066406 -39.164062 53.859375 -37.3125 C 53.941406 -37.132812 54.003906 -36.914062 54.046875 -36.65625 C 54.097656 -36.394531 54.164062 -36.175781 54.25 -36 C 54.425781 -35.550781 54.601562 -34.863281 54.78125 -33.9375 C 54.957031 -33.007812 55.09375 -31.929688 55.1875 -30.703125 C 55.625 -27.609375 55.625 -25.3125 55.1875 -23.8125 C 55.09375 -23.46875 55.046875 -22.28125 55.046875 -20.25 C 54.960938 -19.1875 54.921875 -18.320312 54.921875 -17.65625 C 54.921875 -17 54.921875 -16.492188 54.921875 -16.140625 C 54.828125 -14.640625 54.601562 -13.140625 54.25 -11.640625 C 53.894531 -10.140625 53.410156 -8.640625 52.796875 -7.140625 C 52.710938 -6.785156 52.582031 -6.523438 52.40625 -6.359375 C 52.40625 -6.179688 52.359375 -6.046875 52.265625 -5.953125 C 52.179688 -5.867188 51.960938 -5.472656 51.609375 -4.765625 C 50.722656 -3.003906 49.441406 -1.285156 47.765625 0.390625 C 46.085938 2.066406 44.234375 3.546875 42.203125 4.828125 C 40.179688 6.109375 38.066406 7.144531 35.859375 7.9375 C 33.648438 8.726562 31.535156 9.125 29.515625 9.125 C 28.453125 9.125 27.28125 9.015625 26 8.796875 C 24.71875 8.578125 23.414062 8.269531 22.09375 7.875 C 20.769531 7.476562 19.515625 7.035156 18.328125 6.546875 C 17.140625 6.066406 16.101562 5.5625 15.21875 5.03125 C 11.070312 2.289062 8.113281 -1.238281 6.34375 -5.5625 C 4.582031 -9.882812 3.570312 -14.425781 3.3125 -19.1875 C 3.21875 -20.15625 3.191406 -21.210938 3.234375 -22.359375 C 3.285156 -23.503906 3.398438 -24.738281 3.578125 -26.0625 C 3.929688 -28.539062 4.347656 -30.925781 4.828125 -33.21875 C 5.316406 -35.507812 5.910156 -37.671875 6.609375 -39.703125 C 6.960938 -40.753906 7.226562 -41.519531 7.40625 -42 C 7.582031 -42.488281 7.757812 -42.890625 7.9375 -43.203125 C 8.113281 -43.515625 8.3125 -43.820312 8.53125 -44.125 C 8.75 -44.4375 9.035156 -44.898438 9.390625 -45.515625 C 9.835938 -46.398438 10.148438 -46.972656 10.328125 -47.234375 C 10.765625 -47.859375 11.160156 -48.457031 11.515625 -49.03125 C 11.867188 -49.601562 12.175781 -50.15625 12.4375 -50.6875 C 12.789062 -51.65625 13.628906 -52.445312 14.953125 -53.0625 C 15.390625 -53.238281 15.804688 -53.390625 16.203125 -53.515625 C 16.609375 -53.648438 16.898438 -53.804688 17.078125 -53.984375 C 18.835938 -54.960938 20.25 -55.492188 21.3125 -55.578125 C 23.332031 -56.015625 26.109375 -56.28125 29.640625 -56.375 Z M 33.75 -38.765625 C 33.476562 -38.859375 32.789062 -38.90625 31.6875 -38.90625 C 30.582031 -38.90625 29.8125 -38.90625 29.375 -38.90625 C 26.90625 -38.46875 25.03125 -37.234375 23.75 -35.203125 C 22.46875 -33.171875 21.566406 -31.097656 21.046875 -28.984375 C 19.804688 -24.742188 19.453125 -21.347656 19.984375 -18.796875 C 20.160156 -17.816406 20.46875 -16.84375 20.90625 -15.875 C 21.34375 -14.90625 21.960938 -13.9375 22.765625 -12.96875 C 23.554688 -12.175781 24.347656 -11.601562 25.140625 -11.25 C 25.847656 -10.894531 27.039062 -10.71875 28.71875 -10.71875 C 31.007812 -10.71875 32.707031 -11.269531 33.8125 -12.375 C 34.914062 -13.476562 35.90625 -15.046875 36.78125 -17.078125 C 37.226562 -17.953125 37.539062 -18.628906 37.71875 -19.109375 C 37.894531 -19.597656 38.023438 -20.039062 38.109375 -20.4375 C 38.203125 -20.84375 38.25 -21.265625 38.25 -21.703125 C 38.25 -22.140625 38.25 -22.800781 38.25 -23.6875 C 38.332031 -27.039062 37.976562 -30.304688 37.1875 -33.484375 C 36.914062 -34.710938 36.425781 -35.851562 35.71875 -36.90625 C 35.019531 -37.96875 34.363281 -38.585938 33.75 -38.765625 Z M 33.75 -38.765625 "/></g></g></g><g fill="#ffffff" fill-opacity="1"><g transform="translate(130.115233, 407.932931)"><g><path d="M 26.46875 -56.234375 C 27.082031 -56.328125 27.585938 -56.375 27.984375 -56.375 C 28.378906 -56.375 28.664062 -56.375 28.84375 -56.375 C 29.113281 -56.28125 29.820312 -56.234375 30.96875 -56.234375 C 32.46875 -56.054688 34.382812 -55.75 36.71875 -55.3125 C 39.0625 -54.875 40.847656 -54.171875 42.078125 -53.203125 C 43.316406 -52.046875 44.203125 -50.851562 44.734375 -49.625 C 45.171875 -48.65625 45.035156 -47.460938 44.328125 -46.046875 C 43.441406 -44.546875 42.226562 -43.375 40.6875 -42.53125 C 39.144531 -41.695312 37.535156 -41.28125 35.859375 -41.28125 C 34.796875 -41.28125 33.515625 -41.414062 32.015625 -41.6875 C 30.960938 -41.863281 29.992188 -41.953125 29.109375 -41.953125 C 28.222656 -41.953125 27.429688 -41.953125 26.734375 -41.953125 C 25.585938 -41.859375 24.523438 -41.148438 23.546875 -39.828125 C 23.285156 -39.390625 23.21875 -38.972656 23.34375 -38.578125 C 23.476562 -38.179688 23.632812 -37.847656 23.8125 -37.578125 C 24.164062 -37.222656 24.914062 -36.847656 26.0625 -36.453125 C 27.207031 -36.054688 29.0625 -35.503906 31.625 -34.796875 C 33.476562 -34.359375 35.484375 -33.742188 37.640625 -32.953125 C 39.804688 -32.160156 41.550781 -31.273438 42.875 -30.296875 C 48.082031 -26.421875 50.992188 -21.347656 51.609375 -15.078125 C 51.609375 -14.734375 51.609375 -14.316406 51.609375 -13.828125 C 51.609375 -13.335938 51.609375 -12.828125 51.609375 -12.296875 C 51.609375 -11.773438 51.582031 -11.316406 51.53125 -10.921875 C 51.488281 -10.523438 51.46875 -10.28125 51.46875 -10.1875 L 51.46875 -9.921875 C 51.46875 -9.835938 51.425781 -9.75 51.34375 -9.65625 C 51.082031 -7.800781 50.351562 -6.082031 49.15625 -4.5 C 47.96875 -2.914062 46.535156 -1.457031 44.859375 -0.125 C 43.179688 1.195312 41.414062 2.382812 39.5625 3.4375 C 37.707031 4.5 36.03125 5.425781 34.53125 6.21875 C 32.414062 7.363281 30.164062 7.984375 27.78125 8.078125 C 26.375 8.253906 25.492188 8.382812 25.140625 8.46875 C 24.609375 8.644531 24.253906 8.644531 24.078125 8.46875 C 22.140625 8.207031 20.488281 7.960938 19.125 7.734375 C 17.757812 7.515625 16.632812 7.226562 15.75 6.875 C 15.570312 6.789062 15.328125 6.769531 15.015625 6.8125 C 14.710938 6.851562 14.5625 6.785156 14.5625 6.609375 C 14.5625 6.441406 14.335938 6.242188 13.890625 6.015625 C 13.453125 5.796875 12.925781 5.554688 12.3125 5.296875 L 11.515625 4.765625 L 11.515625 5.15625 C 11.515625 5.332031 11.46875 5.421875 11.375 5.421875 C 11.195312 5.421875 10.625 4.976562 9.65625 4.09375 C 8.6875 3.21875 7.628906 2.296875 6.484375 1.328125 C 5.335938 0.359375 4.695312 -0.191406 4.5625 -0.328125 C 4.425781 -0.460938 4.445312 -0.707031 4.625 -1.0625 C 4.800781 -1.5 4.867188 -2.023438 4.828125 -2.640625 C 4.785156 -3.265625 4.546875 -3.972656 4.109375 -4.765625 C 3.835938 -5.203125 3.59375 -5.617188 3.375 -6.015625 C 3.15625 -6.410156 3 -6.785156 2.90625 -7.140625 L 2.515625 -8.59375 L 2.515625 -10.984375 C 2.597656 -11.867188 2.660156 -12.570312 2.703125 -13.09375 C 2.753906 -13.625 2.78125 -13.976562 2.78125 -14.15625 C 2.957031 -15.125 3.019531 -15.648438 2.96875 -15.734375 C 2.925781 -15.828125 3.347656 -15.523438 4.234375 -14.828125 C 5.203125 -14.117188 6.148438 -13.539062 7.078125 -13.09375 C 8.003906 -12.65625 8.820312 -12.304688 9.53125 -12.046875 C 10.238281 -11.773438 11.117188 -11.503906 12.171875 -11.234375 C 13.234375 -10.972656 14.335938 -10.734375 15.484375 -10.515625 C 16.628906 -10.296875 17.726562 -10.097656 18.78125 -9.921875 C 19.84375 -9.742188 20.726562 -9.65625 21.4375 -9.65625 C 22.84375 -9.65625 24.226562 -9.875 25.59375 -10.3125 C 26.96875 -10.757812 28.273438 -11.289062 29.515625 -11.90625 C 30.484375 -12.351562 31.1875 -12.972656 31.625 -13.765625 C 32.0625 -14.554688 32.148438 -15.304688 31.890625 -16.015625 C 31.710938 -16.546875 31.179688 -16.984375 30.296875 -17.328125 C 29.421875 -17.679688 27.75 -18.257812 25.28125 -19.0625 C 22.28125 -20.03125 19.851562 -20.84375 18 -21.5 C 16.144531 -22.164062 14.597656 -22.804688 13.359375 -23.421875 C 12.304688 -23.953125 11.316406 -24.632812 10.390625 -25.46875 C 9.460938 -26.3125 8.644531 -27.171875 7.9375 -28.046875 C 5.207031 -31.140625 3.929688 -34.671875 4.109375 -38.640625 C 4.191406 -39.078125 4.253906 -39.535156 4.296875 -40.015625 C 4.335938 -40.503906 4.445312 -40.972656 4.625 -41.421875 C 5.863281 -44.773438 7.320312 -47.441406 9 -49.421875 C 10.675781 -51.410156 13.101562 -53.109375 16.28125 -54.515625 C 17.78125 -55.046875 18.707031 -55.3125 19.0625 -55.3125 C 19.226562 -55.3125 19.664062 -55.398438 20.375 -55.578125 C 21.34375 -55.753906 22.359375 -55.882812 23.421875 -55.96875 C 24.484375 -56.0625 25.5 -56.148438 26.46875 -56.234375 Z M 26.46875 -56.234375 "/></g></g></g><g fill="#ffffff" fill-opacity="1"><g transform="translate(184.629956, 407.932931)"><g><path d="M 20.25 -78.609375 C 20.6875 -78.785156 21.257812 -78.738281 21.96875 -78.46875 C 22.5 -78.289062 23.113281 -77.957031 23.8125 -77.46875 C 24.519531 -76.988281 25.40625 -76.53125 26.46875 -76.09375 C 30.34375 -74.320312 33.164062 -72.425781 34.9375 -70.40625 L 36.125 -69.46875 L 36.125 -67.484375 C 36.125 -64.835938 35.992188 -62.101562 35.734375 -59.28125 C 35.554688 -57.425781 35.554688 -56.410156 35.734375 -56.234375 C 36.085938 -55.796875 37.054688 -55.578125 38.640625 -55.578125 C 39.347656 -55.578125 40.1875 -55.6875 41.15625 -55.90625 C 42.125 -56.125 42.828125 -56.28125 43.265625 -56.375 C 43.972656 -56.550781 44.722656 -56.570312 45.515625 -56.4375 C 46.316406 -56.300781 46.9375 -56.144531 47.375 -55.96875 C 47.632812 -55.882812 47.960938 -55.664062 48.359375 -55.3125 C 48.765625 -54.957031 49.1875 -54.554688 49.625 -54.109375 C 50.0625 -53.671875 50.476562 -53.234375 50.875 -52.796875 C 51.269531 -52.359375 51.554688 -52.003906 51.734375 -51.734375 C 52.359375 -50.941406 52.535156 -49.578125 52.265625 -47.640625 C 52.265625 -46.671875 52.109375 -45.410156 51.796875 -43.859375 C 51.492188 -42.316406 50.898438 -41.28125 50.015625 -40.75 C 49.660156 -40.664062 49.085938 -40.226562 48.296875 -39.4375 C 47.066406 -38.195312 45.875 -37.46875 44.71875 -37.25 C 43.570312 -37.03125 42.207031 -36.921875 40.625 -36.921875 C 39.476562 -36.828125 38.21875 -36.515625 36.84375 -35.984375 C 35.476562 -35.460938 34.488281 -34.671875 33.875 -33.609375 C 33.695312 -33.347656 33.585938 -32.46875 33.546875 -30.96875 C 33.503906 -29.46875 33.484375 -27.484375 33.484375 -25.015625 C 33.484375 -20.242188 33.570312 -17.597656 33.75 -17.078125 C 34.09375 -16.273438 34.707031 -15.363281 35.59375 -14.34375 C 36.476562 -13.332031 37.40625 -12.828125 38.375 -12.828125 C 39.613281 -12.828125 40.828125 -12.9375 42.015625 -13.15625 C 43.203125 -13.382812 44.367188 -13.675781 45.515625 -14.03125 C 47.898438 -14.726562 49.882812 -15.125 51.46875 -15.21875 L 52.265625 -15.21875 L 52.53125 -14.6875 C 52.707031 -14.332031 52.707031 -13.9375 52.53125 -13.5 C 51.738281 -11.289062 51.117188 -9.546875 50.671875 -8.265625 C 50.234375 -6.992188 49.925781 -6.132812 49.75 -5.6875 C 49.226562 -4.363281 48.8125 -3.28125 48.5 -2.4375 C 48.1875 -1.601562 47.988281 -0.878906 47.90625 -0.265625 C 47.726562 0.617188 47.332031 1.414062 46.71875 2.125 C 46.625 2.382812 46.488281 2.601562 46.3125 2.78125 C 46.226562 2.863281 46.1875 2.90625 46.1875 2.90625 C 46.1875 3.351562 45.703125 3.796875 44.734375 4.234375 C 44.109375 4.492188 43.441406 4.890625 42.734375 5.421875 C 41.410156 6.484375 39.691406 7.234375 37.578125 7.671875 C 35.992188 7.765625 34.425781 7.742188 32.875 7.609375 C 31.332031 7.472656 29.8125 7.054688 28.3125 6.359375 C 24.875 4.941406 21.894531 2.691406 19.375 -0.390625 C 16.863281 -3.484375 15.390625 -6.882812 14.953125 -10.59375 C 14.867188 -11.207031 14.828125 -12.085938 14.828125 -13.234375 C 14.828125 -14.378906 14.828125 -15.832031 14.828125 -17.59375 C 14.910156 -21.125 15.171875 -24.082031 15.609375 -26.46875 C 15.785156 -27 15.851562 -27.550781 15.8125 -28.125 C 15.769531 -28.695312 15.75 -29.332031 15.75 -30.03125 L 15.75 -32.28125 L 15.34375 -32.546875 C 14.90625 -33.253906 14.289062 -33.519531 13.5 -33.34375 C 10.9375 -33.082031 9.300781 -32.726562 8.59375 -32.28125 C 8.332031 -32.101562 8.113281 -32.015625 7.9375 -32.015625 C 7.757812 -32.015625 7.40625 -31.882812 6.875 -31.625 C 5.820312 -31.09375 4.8125 -31.050781 3.84375 -31.5 C 3.21875 -31.757812 2.835938 -32.039062 2.703125 -32.34375 C 2.578125 -32.65625 2.382812 -33.296875 2.125 -34.265625 C 1.675781 -36.035156 1.453125 -37.335938 1.453125 -38.171875 C 1.453125 -39.015625 1.628906 -40.097656 1.984375 -41.421875 C 2.421875 -42.390625 2.726562 -43.445312 2.90625 -44.59375 C 4.050781 -50.414062 7.710938 -53.457031 13.890625 -53.71875 C 15.742188 -53.894531 16.9375 -54.25 17.46875 -54.78125 C 17.726562 -55.050781 17.90625 -55.40625 18 -55.84375 C 18.175781 -56.375 18.265625 -57.914062 18.265625 -60.46875 L 18.265625 -73.3125 C 18.441406 -76.488281 19.101562 -78.253906 20.25 -78.609375 Z M 20.25 -78.609375 "/></g></g></g><g fill="#ffffff" fill-opacity="1"><g transform="translate(239.673946, 407.932931)"><g><path d="M 42.609375 -58.21875 C 43.398438 -58.570312 45.03125 -58.53125 47.5 -58.09375 C 51.207031 -57.382812 53.632812 -56.414062 54.78125 -55.1875 C 55.570312 -54.382812 56.054688 -53.363281 56.234375 -52.125 C 56.410156 -50.894531 56.5 -49.753906 56.5 -48.703125 C 56.5 -46.847656 56.429688 -44.90625 56.296875 -42.875 C 56.171875 -40.84375 55.929688 -38.945312 55.578125 -37.1875 C 55.398438 -36.300781 55.289062 -35.414062 55.25 -34.53125 C 55.207031 -33.65625 55.140625 -32.734375 55.046875 -31.765625 C 54.960938 -30.171875 54.921875 -28.335938 54.921875 -26.265625 C 54.921875 -24.191406 54.921875 -21.875 54.921875 -19.3125 C 54.921875 -14.375 55.007812 -11.46875 55.1875 -10.59375 C 55.53125 -9.09375 56.71875 -8.117188 58.75 -7.671875 C 59.195312 -7.585938 59.507812 -7.457031 59.6875 -7.28125 C 60.125 -6.664062 60.253906 -5.738281 60.078125 -4.5 C 59.984375 -4.320312 59.914062 -4.097656 59.875 -3.828125 C 59.832031 -3.566406 59.769531 -3.347656 59.6875 -3.171875 C 59.507812 -2.734375 59.332031 -2.289062 59.15625 -1.84375 C 58.976562 -1.40625 58.84375 -0.96875 58.75 -0.53125 C 58.488281 0.613281 58.003906 1.710938 57.296875 2.765625 C 56.585938 3.828125 55.726562 4.753906 54.71875 5.546875 C 53.707031 6.347656 52.625 6.988281 51.46875 7.46875 C 50.320312 7.957031 49.175781 8.203125 48.03125 8.203125 C 46.882812 8.203125 45.695312 7.71875 44.46875 6.75 C 44.289062 6.570312 44 6.285156 43.59375 5.890625 C 43.195312 5.492188 42.648438 4.941406 41.953125 4.234375 C 40.359375 2.648438 39.429688 1.679688 39.171875 1.328125 L 38.90625 0.921875 L 38.25 1.328125 C 36.394531 2.734375 35.15625 3.570312 34.53125 3.84375 C 34.007812 4.363281 33.238281 4.867188 32.21875 5.359375 C 31.207031 5.847656 30.101562 6.265625 28.90625 6.609375 C 27.71875 6.960938 26.550781 7.25 25.40625 7.46875 C 24.257812 7.695312 23.332031 7.8125 22.625 7.8125 C 20.863281 7.8125 18.988281 7.546875 17 7.015625 C 15.019531 6.484375 13.410156 5.597656 12.171875 4.359375 C 10.941406 3.210938 9.75 1.691406 8.59375 -0.203125 C 7.445312 -2.097656 6.300781 -4.320312 5.15625 -6.875 C 4.800781 -7.9375 4.40625 -10.144531 3.96875 -13.5 C 3.789062 -15.707031 4.234375 -19.851562 5.296875 -25.9375 C 5.472656 -26.644531 5.625 -27.484375 5.75 -28.453125 C 5.882812 -29.421875 6.039062 -30.566406 6.21875 -31.890625 C 6.21875 -31.972656 6.257812 -32.390625 6.34375 -33.140625 C 6.4375 -33.890625 6.570312 -35.015625 6.75 -36.515625 C 7.101562 -39.253906 7.367188 -41.726562 7.546875 -43.9375 C 7.984375 -48.519531 8.070312 -51.078125 7.8125 -51.609375 C 7.632812 -51.960938 7.320312 -52.378906 6.875 -52.859375 C 6.4375 -53.347656 6.21875 -53.769531 6.21875 -54.125 C 6.21875 -55.625 6.878906 -56.59375 8.203125 -57.03125 C 9.523438 -57.46875 10.757812 -57.734375 11.90625 -57.828125 C 12.351562 -57.910156 12.835938 -57.820312 13.359375 -57.5625 C 13.890625 -57.300781 14.460938 -57.125 15.078125 -57.03125 C 15.523438 -56.945312 16.1875 -56.75 17.0625 -56.4375 C 17.945312 -56.125 18.851562 -55.722656 19.78125 -55.234375 C 20.707031 -54.753906 21.566406 -54.269531 22.359375 -53.78125 C 23.148438 -53.300781 23.679688 -52.882812 23.953125 -52.53125 C 24.304688 -51.820312 24.484375 -50.054688 24.484375 -47.234375 C 24.484375 -46.535156 24.484375 -45.609375 24.484375 -44.453125 C 24.484375 -43.304688 24.457031 -42.09375 24.40625 -40.8125 C 24.363281 -39.539062 24.296875 -38.265625 24.203125 -36.984375 C 24.117188 -35.703125 24.035156 -34.535156 23.953125 -33.484375 C 23.953125 -33.304688 23.953125 -33.039062 23.953125 -32.6875 C 23.953125 -32.332031 23.90625 -31.890625 23.8125 -31.359375 C 23.289062 -26.597656 23.03125 -22.273438 23.03125 -18.390625 C 23.03125 -16.273438 23.117188 -14.773438 23.296875 -13.890625 C 23.460938 -13.453125 23.585938 -13.125 23.671875 -12.90625 C 23.765625 -12.6875 23.859375 -12.441406 23.953125 -12.171875 C 24.128906 -11.992188 24.476562 -11.660156 25 -11.171875 C 25.53125 -10.691406 25.929688 -10.453125 26.203125 -10.453125 C 26.460938 -10.453125 27.519531 -11.6875 29.375 -14.15625 C 30.34375 -15.394531 31.15625 -16.539062 31.8125 -17.59375 C 32.476562 -18.65625 33.03125 -19.78125 33.46875 -20.96875 C 33.914062 -22.164062 34.269531 -23.46875 34.53125 -24.875 C 34.800781 -26.289062 35.023438 -27.96875 35.203125 -29.90625 C 35.285156 -30.257812 35.347656 -30.65625 35.390625 -31.09375 C 35.441406 -31.539062 35.46875 -31.804688 35.46875 -31.890625 C 35.375 -31.890625 35.394531 -32.128906 35.53125 -32.609375 C 35.664062 -33.097656 35.734375 -33.648438 35.734375 -34.265625 C 35.816406 -35.148438 35.925781 -36.539062 36.0625 -38.4375 C 36.195312 -40.332031 36.347656 -41.722656 36.515625 -42.609375 C 36.785156 -43.929688 36.984375 -45.207031 37.109375 -46.4375 C 37.242188 -47.675781 37.359375 -48.867188 37.453125 -50.015625 C 37.453125 -52.929688 37.363281 -54.695312 37.1875 -55.3125 C 37.007812 -55.925781 37.140625 -56.054688 37.578125 -55.703125 L 38.109375 -55.453125 L 38.375 -55.84375 C 39.257812 -56.90625 40.671875 -57.695312 42.609375 -58.21875 Z M 42.609375 -58.21875 "/></g></g></g><g fill="#ffffff" fill-opacity="1"><g transform="translate(301.730753, 407.932931)"><g><path d="M 66.296875 -56.90625 C 68.765625 -57.164062 70.96875 -56.8125 72.90625 -55.84375 C 74.675781 -55.226562 76.265625 -53.992188 77.671875 -52.140625 C 78.910156 -50.367188 79.53125 -49.441406 79.53125 -49.359375 C 79.53125 -49.265625 79.660156 -49 79.921875 -48.5625 C 80.453125 -47.769531 80.914062 -46.710938 81.3125 -45.390625 C 81.707031 -44.066406 82.035156 -42.65625 82.296875 -41.15625 C 82.566406 -39.65625 82.789062 -38.195312 82.96875 -36.78125 C 83.144531 -35.375 83.273438 -34.140625 83.359375 -33.078125 C 83.453125 -31.847656 83.410156 -30.945312 83.234375 -30.375 C 83.054688 -29.800781 82.925781 -28.9375 82.84375 -27.78125 C 82.84375 -26.90625 82.753906 -26.023438 82.578125 -25.140625 C 82.484375 -24.703125 82.414062 -24.039062 82.375 -23.15625 C 82.332031 -22.269531 82.351562 -21.164062 82.4375 -19.84375 L 82.4375 -15.875 L 82.84375 -15.078125 C 83.457031 -13.847656 84.226562 -12.988281 85.15625 -12.5 C 86.082031 -12.019531 87.160156 -11.78125 88.390625 -11.78125 C 89.628906 -11.601562 90.425781 -11.425781 90.78125 -11.25 C 91.132812 -11.070312 91.398438 -10.585938 91.578125 -9.796875 L 91.578125 -4.625 C 91.578125 -3.125 91.550781 -1.957031 91.5 -1.125 C 91.457031 -0.289062 91.394531 0.347656 91.3125 0.796875 C 91.039062 1.585938 90.597656 2.378906 89.984375 3.171875 C 89.367188 3.960938 88.617188 4.691406 87.734375 5.359375 C 86.847656 6.023438 85.941406 6.578125 85.015625 7.015625 C 84.085938 7.453125 83.226562 7.757812 82.4375 7.9375 C 80.9375 8.375 79.039062 8.507812 76.75 8.34375 C 75.34375 8.34375 74.550781 8.253906 74.375 8.078125 C 74.019531 7.722656 73.664062 7.585938 73.3125 7.671875 C 72.957031 7.847656 72.425781 7.71875 71.71875 7.28125 C 68.632812 5.332031 66.628906 2.796875 65.703125 -0.328125 C 64.773438 -3.460938 64.3125 -6.75 64.3125 -10.1875 C 64.3125 -11.332031 64.375 -12.632812 64.5 -14.09375 C 64.632812 -15.550781 64.789062 -17.289062 64.96875 -19.3125 C 65.238281 -21.4375 65.375 -23.953125 65.375 -26.859375 C 65.375 -28.179688 65.347656 -29.347656 65.296875 -30.359375 C 65.253906 -31.378906 65.191406 -32.15625 65.109375 -32.6875 C 65.015625 -33.832031 64.898438 -34.734375 64.765625 -35.390625 C 64.640625 -36.054688 64.507812 -36.609375 64.375 -37.046875 C 64.238281 -37.492188 64.0625 -37.890625 63.84375 -38.234375 C 63.625 -38.585938 63.335938 -38.941406 62.984375 -39.296875 L 62.1875 -40.359375 L 61.40625 -40.234375 C 60.519531 -40.054688 59.765625 -39.613281 59.140625 -38.90625 C 58.523438 -38.195312 58 -37.378906 57.5625 -36.453125 C 57.125 -35.523438 56.789062 -34.550781 56.5625 -33.53125 C 56.34375 -32.519531 56.144531 -31.664062 55.96875 -30.96875 C 55.789062 -29.726562 55.617188 -23.066406 55.453125 -10.984375 C 55.453125 -7.898438 55.425781 -5.492188 55.375 -3.765625 C 55.332031 -2.046875 55.269531 -0.96875 55.1875 -0.53125 C 54.5625 2.289062 53.253906 4.5625 51.265625 6.28125 C 49.285156 8 46.796875 8.859375 43.796875 8.859375 C 42.828125 8.859375 42.078125 8.726562 41.546875 8.46875 C 39.347656 7.582031 38.023438 6.476562 37.578125 5.15625 C 37.046875 3.925781 36.582031 2.363281 36.1875 0.46875 C 35.789062 -1.425781 35.503906 -3.390625 35.328125 -5.421875 C 35.148438 -7.453125 35.015625 -9.457031 34.921875 -11.4375 C 34.835938 -13.425781 34.796875 -15.128906 34.796875 -16.546875 C 34.972656 -17.867188 35.148438 -18.789062 35.328125 -19.3125 C 35.679688 -19.9375 35.859375 -21.175781 35.859375 -23.03125 C 35.953125 -23.820312 36.019531 -24.457031 36.0625 -24.9375 C 36.101562 -25.425781 36.171875 -25.847656 36.265625 -26.203125 C 36.347656 -26.460938 36.390625 -27.875 36.390625 -30.4375 C 36.390625 -30.789062 36.367188 -31.429688 36.328125 -32.359375 C 36.285156 -33.285156 36.195312 -34.253906 36.0625 -35.265625 C 35.925781 -36.273438 35.75 -37.195312 35.53125 -38.03125 C 35.3125 -38.875 34.976562 -39.34375 34.53125 -39.4375 C 33.914062 -39.695312 33.390625 -39.472656 32.953125 -38.765625 C 31.984375 -37.265625 31.097656 -35.65625 30.296875 -33.9375 C 29.503906 -32.21875 28.753906 -30.429688 28.046875 -28.578125 C 27.960938 -28.398438 27.789062 -27.914062 27.53125 -27.125 C 27.175781 -26.332031 26.882812 -25.5625 26.65625 -24.8125 C 26.4375 -24.0625 26.238281 -23.242188 26.0625 -22.359375 C 25.976562 -21.742188 25.71875 -20.507812 25.28125 -18.65625 C 25.101562 -17.769531 24.898438 -16.753906 24.671875 -15.609375 C 24.453125 -14.460938 24.210938 -13.140625 23.953125 -11.640625 C 23.421875 -8.554688 23.113281 -6.96875 23.03125 -6.875 C 23.03125 -6.875 22.804688 -6.125 22.359375 -4.625 C 22.003906 -3.476562 21.828125 -2.773438 21.828125 -2.515625 C 21.484375 -0.753906 21.085938 0.703125 20.640625 1.859375 C 19.929688 3.441406 18.742188 4.71875 17.078125 5.6875 C 15.128906 6.65625 13.710938 7.140625 12.828125 7.140625 C 11.066406 7.140625 9.65625 6.695312 8.59375 5.8125 C 7.539062 4.9375 6.484375 3.878906 5.421875 2.640625 L 4.234375 1.328125 L 3.96875 0.125 C 3.882812 -0.3125 3.796875 -0.726562 3.703125 -1.125 C 3.617188 -1.519531 3.53125 -1.984375 3.4375 -2.515625 C 3.257812 -3.660156 3.128906 -4.539062 3.046875 -5.15625 C 2.691406 -7.625 2.820312 -10.050781 3.4375 -12.4375 C 3.613281 -12.875 3.742188 -13.335938 3.828125 -13.828125 C 3.921875 -14.316406 4.015625 -14.867188 4.109375 -15.484375 C 4.273438 -16.804688 4.535156 -18.257812 4.890625 -19.84375 C 5.335938 -21.875 5.5625 -23.023438 5.5625 -23.296875 C 5.738281 -23.734375 5.867188 -24.394531 5.953125 -25.28125 C 7.273438 -31.539062 7.9375 -36.4375 7.9375 -39.96875 C 7.9375 -42.257812 7.757812 -44.351562 7.40625 -46.25 C 7.050781 -48.144531 6.390625 -50.148438 5.421875 -52.265625 C 5.066406 -53.054688 4.84375 -53.582031 4.75 -53.84375 C 4.664062 -54.113281 4.644531 -54.269531 4.6875 -54.3125 C 4.738281 -54.363281 4.804688 -54.34375 4.890625 -54.25 C 4.984375 -54.164062 5.03125 -54.210938 5.03125 -54.390625 C 5.03125 -54.742188 5.820312 -55.050781 7.40625 -55.3125 C 8.113281 -55.488281 8.992188 -55.578125 10.046875 -55.578125 C 11.109375 -55.578125 12.257812 -55.578125 13.5 -55.578125 C 16.050781 -55.492188 17.640625 -55.363281 18.265625 -55.1875 C 18.523438 -55.09375 19.757812 -53.8125 21.96875 -51.34375 C 22.675781 -50.457031 23.140625 -49.96875 23.359375 -49.875 C 23.578125 -49.789062 23.90625 -50.015625 24.34375 -50.546875 C 24.519531 -50.816406 24.675781 -50.992188 24.8125 -51.078125 C 24.945312 -51.171875 25.054688 -51.257812 25.140625 -51.34375 C 25.234375 -51.34375 25.429688 -51.472656 25.734375 -51.734375 C 26.046875 -52.003906 26.597656 -52.359375 27.390625 -52.796875 C 29.679688 -54.210938 31.84375 -55.160156 33.875 -55.640625 C 35.90625 -56.128906 38.195312 -56.375 40.75 -56.375 C 43.3125 -56.375 44.769531 -56.285156 45.125 -56.109375 C 45.738281 -55.929688 46.398438 -55.664062 47.109375 -55.3125 C 47.816406 -54.957031 48.609375 -54.472656 49.484375 -53.859375 C 50.460938 -53.328125 50.992188 -53.0625 51.078125 -53.0625 C 51.253906 -52.976562 51.429688 -52.820312 51.609375 -52.59375 C 51.785156 -52.375 51.960938 -52.175781 52.140625 -52 C 53.285156 -50.769531 53.945312 -50.15625 54.125 -50.15625 C 54.300781 -50.15625 55.664062 -51.171875 58.21875 -53.203125 C 59.195312 -53.992188 60.171875 -54.675781 61.140625 -55.25 C 62.109375 -55.820312 63.078125 -56.238281 64.046875 -56.5 C 64.484375 -56.675781 64.878906 -56.765625 65.234375 -56.765625 C 65.585938 -56.765625 65.941406 -56.8125 66.296875 -56.90625 Z M 66.296875 -56.90625 "/></g></g></g><g fill="#ffffff" fill-opacity="1"><g transform="translate(395.411404, 407.932931)"><g><path d="M 30.5625 -55.96875 C 34.800781 -55.96875 38.660156 -55.0625 42.140625 -53.25 C 45.628906 -51.445312 48.609375 -48.738281 51.078125 -45.125 C 52.929688 -42.5625 54.035156 -40.179688 54.390625 -37.984375 C 54.742188 -35.242188 54.742188 -32.90625 54.390625 -30.96875 C 53.765625 -27.613281 51.78125 -25.273438 48.4375 -23.953125 C 45.082031 -22.710938 39.742188 -21.785156 32.421875 -21.171875 C 32.066406 -21.171875 31.289062 -21.101562 30.09375 -20.96875 C 28.90625 -20.84375 27.671875 -20.691406 26.390625 -20.515625 C 25.117188 -20.335938 23.972656 -20.160156 22.953125 -19.984375 C 21.941406 -19.804688 21.394531 -19.628906 21.3125 -19.453125 C 21.132812 -19.273438 21.085938 -18.832031 21.171875 -18.125 C 21.171875 -16.71875 21.613281 -15.703125 22.5 -15.078125 C 23.726562 -13.671875 25.535156 -12.546875 27.921875 -11.703125 C 30.304688 -10.867188 32.46875 -10.453125 34.40625 -10.453125 C 37.226562 -10.628906 40.113281 -10.9375 43.0625 -11.375 C 46.019531 -11.820312 48.820312 -12.53125 51.46875 -13.5 C 53.0625 -14.03125 53.859375 -14.25 53.859375 -14.15625 C 54.210938 -13.894531 54.253906 -13.144531 53.984375 -11.90625 C 53.546875 -10.226562 53.503906 -9.082031 53.859375 -8.46875 C 54.296875 -7.582031 54.335938 -6.566406 53.984375 -5.421875 C 53.898438 -5.242188 53.859375 -5.046875 53.859375 -4.828125 C 53.859375 -4.609375 53.8125 -4.410156 53.71875 -4.234375 C 53.375 -2.117188 52.492188 -0.289062 51.078125 1.25 C 49.671875 2.800781 47.992188 4.082031 46.046875 5.09375 C 44.109375 6.101562 42.035156 6.875 39.828125 7.40625 C 37.617188 7.9375 35.59375 8.203125 33.75 8.203125 C 32.507812 8.203125 31.226562 8.09375 29.90625 7.875 C 28.582031 7.65625 27.171875 7.320312 25.671875 6.875 C 21.523438 5.289062 18.0625 3.503906 15.28125 1.515625 C 12.5 -0.460938 10.289062 -2.726562 8.65625 -5.28125 C 7.03125 -7.84375 5.863281 -10.78125 5.15625 -14.09375 C 4.457031 -17.40625 4.109375 -21.132812 4.109375 -25.28125 C 4.015625 -27.925781 4.015625 -29.6875 4.109375 -30.5625 C 4.628906 -34.09375 5.570312 -37.398438 6.9375 -40.484375 C 8.3125 -43.578125 10.125 -46.269531 12.375 -48.5625 C 14.625 -50.851562 17.269531 -52.660156 20.3125 -53.984375 C 23.351562 -55.304688 26.769531 -55.96875 30.5625 -55.96875 Z M 32.015625 -41.546875 C 31.578125 -41.546875 31.222656 -41.585938 30.953125 -41.671875 C 30.691406 -41.765625 30.519531 -41.8125 30.4375 -41.8125 L 30.171875 -41.8125 C 30.078125 -41.8125 29.988281 -41.769531 29.90625 -41.6875 C 29.019531 -41.6875 28.09375 -41.488281 27.125 -41.09375 C 26.15625 -40.695312 25.207031 -40.207031 24.28125 -39.625 C 23.351562 -39.050781 22.515625 -38.390625 21.765625 -37.640625 C 21.015625 -36.890625 20.421875 -36.117188 19.984375 -35.328125 C 19.628906 -34.710938 19.628906 -34.226562 19.984375 -33.875 L 20.375 -33.484375 L 21.703125 -33.609375 C 23.816406 -33.785156 26.085938 -34.003906 28.515625 -34.265625 C 30.941406 -34.535156 33.566406 -34.890625 36.390625 -35.328125 L 39.171875 -35.734375 C 39.347656 -35.910156 39.125 -36.570312 38.5 -37.71875 C 37.707031 -38.945312 36.800781 -39.847656 35.78125 -40.421875 C 34.769531 -40.992188 33.515625 -41.367188 32.015625 -41.546875 Z M 32.015625 -41.546875 "/></g></g></g><g fill="#ffffff" fill-opacity="1"><g transform="translate(452.7095, 407.932931)"><g/></g></g><g fill="#ffffff" fill-opacity="1"><g transform="translate(63.230553, 532.983028)"><g><path d="M 19.3125 -82.578125 C 20.550781 -82.929688 22.050781 -82.753906 23.8125 -82.046875 C 24.613281 -81.773438 25.585938 -81.640625 26.734375 -81.640625 C 27.347656 -81.640625 27.875 -81.660156 28.3125 -81.703125 C 28.757812 -81.753906 29.070312 -81.78125 29.25 -81.78125 C 30.039062 -81.957031 31.03125 -82.085938 32.21875 -82.171875 C 33.414062 -82.265625 34.648438 -82.375 35.921875 -82.5 C 37.203125 -82.632812 38.484375 -82.722656 39.765625 -82.765625 C 41.046875 -82.816406 42.210938 -82.84375 43.265625 -82.84375 C 46.441406 -82.84375 49.484375 -82.15625 52.390625 -80.78125 C 55.304688 -79.414062 57.929688 -77.628906 60.265625 -75.421875 C 62.609375 -73.222656 64.550781 -70.6875 66.09375 -67.8125 C 67.632812 -64.945312 68.671875 -62.015625 69.203125 -59.015625 C 69.203125 -58.660156 69.222656 -58.128906 69.265625 -57.421875 C 69.316406 -56.722656 69.34375 -56 69.34375 -55.25 C 69.34375 -54.5 69.316406 -53.789062 69.265625 -53.125 C 69.222656 -52.46875 69.203125 -51.960938 69.203125 -51.609375 C 69.203125 -51.515625 69.15625 -51.222656 69.0625 -50.734375 C 68.976562 -50.253906 68.894531 -49.882812 68.8125 -49.625 C 68.375 -46.269531 67.25 -43.242188 65.4375 -40.546875 C 63.625 -37.859375 61.304688 -35.59375 58.484375 -33.75 C 57.785156 -33.125 57.035156 -32.632812 56.234375 -32.28125 C 55.085938 -31.757812 54.382812 -31.144531 54.125 -30.4375 C 53.945312 -30 53.945312 -29.691406 54.125 -29.515625 C 54.207031 -29.421875 54.46875 -29.019531 54.90625 -28.3125 C 55.351562 -27.613281 56.0625 -26.601562 57.03125 -25.28125 C 58 -23.863281 58.789062 -22.757812 59.40625 -21.96875 C 60.03125 -21.175781 60.472656 -20.554688 60.734375 -20.109375 C 61.003906 -19.929688 61.554688 -19.421875 62.390625 -18.578125 C 63.234375 -17.742188 64.40625 -16.664062 65.90625 -15.34375 C 67.3125 -14.113281 68.410156 -13.144531 69.203125 -12.4375 C 70.003906 -11.726562 70.488281 -11.285156 70.65625 -11.109375 C 71.007812 -10.847656 71.71875 -10.5 72.78125 -10.0625 C 73.75 -9.613281 74.34375 -9.320312 74.5625 -9.1875 C 74.78125 -9.0625 74.847656 -8.691406 74.765625 -8.078125 C 74.679688 -7.191406 74.523438 -6.109375 74.296875 -4.828125 C 74.078125 -3.546875 73.769531 -2.265625 73.375 -0.984375 C 72.976562 0.285156 72.515625 1.492188 71.984375 2.640625 C 71.453125 3.785156 70.878906 4.671875 70.265625 5.296875 C 69.472656 6.171875 68.367188 7.023438 66.953125 7.859375 C 65.546875 8.703125 64.222656 9.125 62.984375 9.125 C 61.128906 9.125 59.320312 8.53125 57.5625 7.34375 C 55.800781 6.15625 54.144531 4.695312 52.59375 2.96875 C 51.050781 1.25 49.660156 -0.578125 48.421875 -2.515625 C 47.191406 -4.453125 46.132812 -6.128906 45.25 -7.546875 C 43.84375 -9.835938 42.695312 -11.753906 41.8125 -13.296875 C 40.9375 -14.835938 40.273438 -16.097656 39.828125 -17.078125 C 39.210938 -18.835938 38.265625 -20.3125 36.984375 -21.5 C 35.703125 -22.695312 34.222656 -23.644531 32.546875 -24.34375 C 31.046875 -25.050781 30.078125 -24.613281 29.640625 -23.03125 C 29.378906 -22.320312 29.203125 -21.503906 29.109375 -20.578125 C 29.023438 -19.648438 28.894531 -18.566406 28.71875 -17.328125 C 28.539062 -16.179688 28.453125 -15.609375 28.453125 -15.609375 C 28.453125 -15.523438 28.453125 -15.484375 28.453125 -15.484375 C 28.453125 -15.484375 28.363281 -15.304688 28.1875 -14.953125 C 27.832031 -12.046875 27.5 -9.707031 27.1875 -7.9375 C 26.882812 -6.175781 26.644531 -4.984375 26.46875 -4.359375 C 26.375 -4.273438 26.328125 -4.015625 26.328125 -3.578125 C 26.242188 -3.484375 26.113281 -3.304688 25.9375 -3.046875 C 25.675781 -2.429688 25.28125 -1.503906 24.75 -0.265625 C 23.863281 1.765625 22.601562 3.660156 20.96875 5.421875 C 19.34375 7.191406 17.335938 8.078125 14.953125 8.078125 C 12.742188 8.078125 10.535156 7.476562 8.328125 6.28125 C 6.128906 5.09375 4.546875 3.484375 3.578125 1.453125 C 3.398438 1.015625 3.578125 -0.175781 4.109375 -2.125 C 4.367188 -3.175781 4.585938 -4.054688 4.765625 -4.765625 C 5.023438 -5.992188 5.285156 -7.113281 5.546875 -8.125 C 5.816406 -9.144531 6.039062 -10.097656 6.21875 -10.984375 C 7.101562 -14.953125 7.894531 -18.988281 8.59375 -23.09375 C 9.300781 -27.195312 9.742188 -31.273438 9.921875 -35.328125 C 10.097656 -38.503906 10.296875 -41.414062 10.515625 -44.0625 C 10.734375 -46.707031 10.929688 -49.175781 11.109375 -51.46875 C 11.378906 -55.789062 11.378906 -59.410156 11.109375 -62.328125 C 11.023438 -62.859375 10.957031 -63.429688 10.90625 -64.046875 C 10.863281 -64.660156 10.800781 -65.363281 10.71875 -66.15625 C 10.71875 -67.75 10.675781 -68.722656 10.59375 -69.078125 C 10.5 -69.609375 10.5 -70.132812 10.59375 -70.65625 C 10.757812 -71.1875 10.800781 -71.671875 10.71875 -72.109375 C 10.632812 -72.554688 10.632812 -73.085938 10.71875 -73.703125 C 10.71875 -74.054688 10.71875 -74.382812 10.71875 -74.6875 C 10.71875 -75 10.628906 -75.378906 10.453125 -75.828125 C 10.191406 -76.523438 9.992188 -77.117188 9.859375 -77.609375 C 9.722656 -78.097656 9.742188 -78.5625 9.921875 -79 C 10.273438 -79.882812 10.9375 -80.632812 11.90625 -81.25 C 12.175781 -81.425781 12.769531 -81.644531 13.6875 -81.90625 C 14.613281 -82.175781 16.488281 -82.398438 19.3125 -82.578125 Z M 39.96875 -64.96875 C 38.90625 -64.96875 37.820312 -64.878906 36.71875 -64.703125 C 35.613281 -64.523438 34.535156 -64.347656 33.484375 -64.171875 C 32.503906 -63.828125 31.769531 -63.453125 31.28125 -63.046875 C 30.800781 -62.648438 30.472656 -61.96875 30.296875 -61 C 30.117188 -60.289062 30.117188 -58 30.296875 -54.125 C 30.390625 -52.351562 30.4375 -50.960938 30.4375 -49.953125 C 30.4375 -48.941406 30.4375 -48.300781 30.4375 -48.03125 C 30.4375 -47.59375 30.703125 -47.019531 31.234375 -46.3125 C 31.410156 -46.132812 31.757812 -46.046875 32.28125 -46.046875 C 33.082031 -46.046875 34.296875 -46.222656 35.921875 -46.578125 C 37.554688 -46.929688 39.253906 -47.375 41.015625 -47.90625 C 42.785156 -48.4375 44.421875 -49.007812 45.921875 -49.625 C 47.421875 -50.238281 48.476562 -50.851562 49.09375 -51.46875 C 50.332031 -52.707031 51.0625 -54.117188 51.28125 -55.703125 C 51.5 -57.296875 51.125 -58.882812 50.15625 -60.46875 C 49.1875 -62.238281 47.726562 -63.429688 45.78125 -64.046875 C 43.84375 -64.660156 41.90625 -64.96875 39.96875 -64.96875 Z M 39.96875 -64.96875 "/></g></g></g><g fill="#ffffff" fill-opacity="1"><g transform="translate(140.900797, 532.983028)"><g><path d="M 42.609375 -58.21875 C 43.398438 -58.570312 45.03125 -58.53125 47.5 -58.09375 C 51.207031 -57.382812 53.632812 -56.414062 54.78125 -55.1875 C 55.570312 -54.382812 56.054688 -53.363281 56.234375 -52.125 C 56.410156 -50.894531 56.5 -49.753906 56.5 -48.703125 C 56.5 -46.847656 56.429688 -44.90625 56.296875 -42.875 C 56.171875 -40.84375 55.929688 -38.945312 55.578125 -37.1875 C 55.398438 -36.300781 55.289062 -35.414062 55.25 -34.53125 C 55.207031 -33.65625 55.140625 -32.734375 55.046875 -31.765625 C 54.960938 -30.171875 54.921875 -28.335938 54.921875 -26.265625 C 54.921875 -24.191406 54.921875 -21.875 54.921875 -19.3125 C 54.921875 -14.375 55.007812 -11.46875 55.1875 -10.59375 C 55.53125 -9.09375 56.71875 -8.117188 58.75 -7.671875 C 59.195312 -7.585938 59.507812 -7.457031 59.6875 -7.28125 C 60.125 -6.664062 60.253906 -5.738281 60.078125 -4.5 C 59.984375 -4.320312 59.914062 -4.097656 59.875 -3.828125 C 59.832031 -3.566406 59.769531 -3.347656 59.6875 -3.171875 C 59.507812 -2.734375 59.332031 -2.289062 59.15625 -1.84375 C 58.976562 -1.40625 58.84375 -0.96875 58.75 -0.53125 C 58.488281 0.613281 58.003906 1.710938 57.296875 2.765625 C 56.585938 3.828125 55.726562 4.753906 54.71875 5.546875 C 53.707031 6.347656 52.625 6.988281 51.46875 7.46875 C 50.320312 7.957031 49.175781 8.203125 48.03125 8.203125 C 46.882812 8.203125 45.695312 7.71875 44.46875 6.75 C 44.289062 6.570312 44 6.285156 43.59375 5.890625 C 43.195312 5.492188 42.648438 4.941406 41.953125 4.234375 C 40.359375 2.648438 39.429688 1.679688 39.171875 1.328125 L 38.90625 0.921875 L 38.25 1.328125 C 36.394531 2.734375 35.15625 3.570312 34.53125 3.84375 C 34.007812 4.363281 33.238281 4.867188 32.21875 5.359375 C 31.207031 5.847656 30.101562 6.265625 28.90625 6.609375 C 27.71875 6.960938 26.550781 7.25 25.40625 7.46875 C 24.257812 7.695312 23.332031 7.8125 22.625 7.8125 C 20.863281 7.8125 18.988281 7.546875 17 7.015625 C 15.019531 6.484375 13.410156 5.597656 12.171875 4.359375 C 10.941406 3.210938 9.75 1.691406 8.59375 -0.203125 C 7.445312 -2.097656 6.300781 -4.320312 5.15625 -6.875 C 4.800781 -7.9375 4.40625 -10.144531 3.96875 -13.5 C 3.789062 -15.707031 4.234375 -19.851562 5.296875 -25.9375 C 5.472656 -26.644531 5.625 -27.484375 5.75 -28.453125 C 5.882812 -29.421875 6.039062 -30.566406 6.21875 -31.890625 C 6.21875 -31.972656 6.257812 -32.390625 6.34375 -33.140625 C 6.4375 -33.890625 6.570312 -35.015625 6.75 -36.515625 C 7.101562 -39.253906 7.367188 -41.726562 7.546875 -43.9375 C 7.984375 -48.519531 8.070312 -51.078125 7.8125 -51.609375 C 7.632812 -51.960938 7.320312 -52.378906 6.875 -52.859375 C 6.4375 -53.347656 6.21875 -53.769531 6.21875 -54.125 C 6.21875 -55.625 6.878906 -56.59375 8.203125 -57.03125 C 9.523438 -57.46875 10.757812 -57.734375 11.90625 -57.828125 C 12.351562 -57.910156 12.835938 -57.820312 13.359375 -57.5625 C 13.890625 -57.300781 14.460938 -57.125 15.078125 -57.03125 C 15.523438 -56.945312 16.1875 -56.75 17.0625 -56.4375 C 17.945312 -56.125 18.851562 -55.722656 19.78125 -55.234375 C 20.707031 -54.753906 21.566406 -54.269531 22.359375 -53.78125 C 23.148438 -53.300781 23.679688 -52.882812 23.953125 -52.53125 C 24.304688 -51.820312 24.484375 -50.054688 24.484375 -47.234375 C 24.484375 -46.535156 24.484375 -45.609375 24.484375 -44.453125 C 24.484375 -43.304688 24.457031 -42.09375 24.40625 -40.8125 C 24.363281 -39.539062 24.296875 -38.265625 24.203125 -36.984375 C 24.117188 -35.703125 24.035156 -34.535156 23.953125 -33.484375 C 23.953125 -33.304688 23.953125 -33.039062 23.953125 -32.6875 C 23.953125 -32.332031 23.90625 -31.890625 23.8125 -31.359375 C 23.289062 -26.597656 23.03125 -22.273438 23.03125 -18.390625 C 23.03125 -16.273438 23.117188 -14.773438 23.296875 -13.890625 C 23.460938 -13.453125 23.585938 -13.125 23.671875 -12.90625 C 23.765625 -12.6875 23.859375 -12.441406 23.953125 -12.171875 C 24.128906 -11.992188 24.476562 -11.660156 25 -11.171875 C 25.53125 -10.691406 25.929688 -10.453125 26.203125 -10.453125 C 26.460938 -10.453125 27.519531 -11.6875 29.375 -14.15625 C 30.34375 -15.394531 31.15625 -16.539062 31.8125 -17.59375 C 32.476562 -18.65625 33.03125 -19.78125 33.46875 -20.96875 C 33.914062 -22.164062 34.269531 -23.46875 34.53125 -24.875 C 34.800781 -26.289062 35.023438 -27.96875 35.203125 -29.90625 C 35.285156 -30.257812 35.347656 -30.65625 35.390625 -31.09375 C 35.441406 -31.539062 35.46875 -31.804688 35.46875 -31.890625 C 35.375 -31.890625 35.394531 -32.128906 35.53125 -32.609375 C 35.664062 -33.097656 35.734375 -33.648438 35.734375 -34.265625 C 35.816406 -35.148438 35.925781 -36.539062 36.0625 -38.4375 C 36.195312 -40.332031 36.347656 -41.722656 36.515625 -42.609375 C 36.785156 -43.929688 36.984375 -45.207031 37.109375 -46.4375 C 37.242188 -47.675781 37.359375 -48.867188 37.453125 -50.015625 C 37.453125 -52.929688 37.363281 -54.695312 37.1875 -55.3125 C 37.007812 -55.925781 37.140625 -56.054688 37.578125 -55.703125 L 38.109375 -55.453125 L 38.375 -55.84375 C 39.257812 -56.90625 40.671875 -57.695312 42.609375 -58.21875 Z M 42.609375 -58.21875 "/></g></g></g><g fill="#ffffff" fill-opacity="1"><g transform="translate(202.957604, 532.983028)"><g><path d="M 33.484375 -56.5 C 34.179688 -56.59375 35.300781 -56.570312 36.84375 -56.4375 C 38.394531 -56.300781 39.613281 -56.101562 40.5 -55.84375 C 40.9375 -55.75 41.460938 -55.617188 42.078125 -55.453125 C 43.140625 -55.359375 44.195312 -54.914062 45.25 -54.125 C 46.3125 -53.332031 47.304688 -52.382812 48.234375 -51.28125 C 49.160156 -50.175781 49.953125 -49.023438 50.609375 -47.828125 C 51.273438 -46.640625 51.738281 -45.5625 52 -44.59375 C 52.707031 -42.5625 53.171875 -40.3125 53.390625 -37.84375 C 53.609375 -35.375 53.675781 -32.726562 53.59375 -29.90625 C 53.5 -28.582031 53.273438 -26.660156 52.921875 -24.140625 C 52.578125 -21.628906 52.050781 -18.4375 51.34375 -14.5625 C 51.082031 -13.40625 51.039062 -12.035156 51.21875 -10.453125 C 51.300781 -9.835938 51.695312 -9.304688 52.40625 -8.859375 C 52.84375 -8.597656 53.8125 -8.46875 55.3125 -8.46875 C 57.070312 -8.46875 58.304688 -8.644531 59.015625 -9 C 60.429688 -9.351562 61.140625 -9.441406 61.140625 -9.265625 C 61.140625 -8.554688 61.023438 -7.628906 60.796875 -6.484375 C 60.578125 -5.335938 60.3125 -4.144531 60 -2.90625 C 59.695312 -1.675781 59.347656 -0.507812 58.953125 0.59375 C 58.554688 1.695312 58.179688 2.515625 57.828125 3.046875 C 56.585938 4.984375 54.882812 6.367188 52.71875 7.203125 C 50.5625 8.046875 48.382812 8.46875 46.1875 8.46875 C 44.414062 8.46875 42.800781 8.023438 41.34375 7.140625 C 39.894531 6.265625 38.285156 4.765625 36.515625 2.640625 C 35.722656 1.671875 35.0625 0.75 34.53125 -0.125 C 34.007812 -1.007812 33.660156 -1.847656 33.484375 -2.640625 C 33.304688 -3.441406 33.148438 -4.503906 33.015625 -5.828125 C 32.878906 -7.148438 32.859375 -8.78125 32.953125 -10.71875 C 33.035156 -12.476562 33.164062 -14.285156 33.34375 -16.140625 C 33.519531 -17.992188 33.742188 -19.9375 34.015625 -21.96875 C 34.359375 -24 34.617188 -25.628906 34.796875 -26.859375 C 34.972656 -28.097656 35.0625 -28.984375 35.0625 -29.515625 C 35.0625 -30.566406 35.015625 -31.644531 34.921875 -32.75 C 34.835938 -33.851562 34.707031 -34.976562 34.53125 -36.125 C 34.53125 -37.09375 34.3125 -37.929688 33.875 -38.640625 C 33.519531 -39.347656 33.320312 -39.703125 33.28125 -39.703125 C 33.238281 -39.703125 33.039062 -39.703125 32.6875 -39.703125 L 32.015625 -39.828125 L 31.359375 -38.765625 C 30.566406 -37.710938 29.835938 -36.300781 29.171875 -34.53125 C 28.515625 -32.769531 28.097656 -31.226562 27.921875 -29.90625 C 27.742188 -28.226562 27.476562 -26.769531 27.125 -25.53125 C 26.769531 -24.300781 26.460938 -23.289062 26.203125 -22.5 C 26.023438 -21.96875 25.710938 -20.84375 25.265625 -19.125 C 24.828125 -17.40625 24.210938 -15.085938 23.421875 -12.171875 C 22.097656 -7.316406 21.4375 -3.4375 21.4375 -0.53125 C 21.351562 0.257812 21.3125 0.921875 21.3125 1.453125 C 21.3125 1.984375 21.265625 2.335938 21.171875 2.515625 C 21.085938 2.953125 20.78125 3.410156 20.25 3.890625 C 19.71875 4.378906 19.117188 4.84375 18.453125 5.28125 C 17.796875 5.726562 17.132812 6.148438 16.46875 6.546875 C 15.8125 6.941406 15.265625 7.226562 14.828125 7.40625 C 14.554688 7.582031 14.175781 7.757812 13.6875 7.9375 C 13.207031 8.113281 12.878906 8.25 12.703125 8.34375 C 11.910156 8.601562 10.851562 8.554688 9.53125 8.203125 C 7.0625 7.585938 5.453125 6.679688 4.703125 5.484375 C 3.953125 4.296875 3.441406 2.554688 3.171875 0.265625 C 2.816406 -2.023438 2.550781 -3.613281 2.375 -4.5 C 2.289062 -5.820312 2.554688 -7.1875 3.171875 -8.59375 C 3.523438 -9.300781 3.8125 -10.359375 4.03125 -11.765625 C 4.25 -13.179688 4.445312 -14.90625 4.625 -16.9375 C 4.976562 -19.320312 5.285156 -21.703125 5.546875 -24.078125 C 5.816406 -26.460938 5.953125 -28.847656 5.953125 -31.234375 C 6.046875 -32.203125 6.113281 -33.035156 6.15625 -33.734375 C 6.195312 -34.441406 6.265625 -35.148438 6.359375 -35.859375 C 6.441406 -36.566406 6.503906 -37.269531 6.546875 -37.96875 C 6.585938 -38.675781 6.609375 -39.429688 6.609375 -40.234375 C 6.609375 -41.640625 6.523438 -42.519531 6.359375 -42.875 C 6.179688 -43.3125 6.132812 -43.882812 6.21875 -44.59375 C 6.3125 -46.976562 5.5625 -48.921875 3.96875 -50.421875 L 3.171875 -51.34375 L 3.4375 -52 C 3.53125 -52.175781 3.726562 -52.441406 4.03125 -52.796875 C 4.34375 -53.148438 4.675781 -53.523438 5.03125 -53.921875 C 5.382812 -54.316406 5.710938 -54.671875 6.015625 -54.984375 C 6.328125 -55.296875 6.570312 -55.453125 6.75 -55.453125 C 6.832031 -55.453125 7.03125 -55.453125 7.34375 -55.453125 C 7.65625 -55.453125 8.03125 -55.363281 8.46875 -55.1875 C 8.90625 -55.09375 9.390625 -55 9.921875 -54.90625 C 10.453125 -54.820312 11.070312 -54.738281 11.78125 -54.65625 C 14.425781 -54.300781 16.5 -53.59375 18 -52.53125 C 18.4375 -52.175781 18.875 -51.800781 19.3125 -51.40625 C 19.757812 -51.007812 20.203125 -50.503906 20.640625 -49.890625 C 20.992188 -49.441406 21.347656 -49 21.703125 -48.5625 C 22.054688 -48.125 22.585938 -47.90625 23.296875 -47.90625 C 23.460938 -47.90625 24.253906 -48.875 25.671875 -50.8125 C 26.554688 -52.226562 27.660156 -53.441406 28.984375 -54.453125 C 30.304688 -55.460938 31.804688 -56.144531 33.484375 -56.5 Z M 33.484375 -56.5 "/></g></g></g><g fill="#ffffff" fill-opacity="1"><g transform="translate(265.80832, 532.983028)"><g><path d="M 33.484375 -56.5 C 34.179688 -56.59375 35.300781 -56.570312 36.84375 -56.4375 C 38.394531 -56.300781 39.613281 -56.101562 40.5 -55.84375 C 40.9375 -55.75 41.460938 -55.617188 42.078125 -55.453125 C 43.140625 -55.359375 44.195312 -54.914062 45.25 -54.125 C 46.3125 -53.332031 47.304688 -52.382812 48.234375 -51.28125 C 49.160156 -50.175781 49.953125 -49.023438 50.609375 -47.828125 C 51.273438 -46.640625 51.738281 -45.5625 52 -44.59375 C 52.707031 -42.5625 53.171875 -40.3125 53.390625 -37.84375 C 53.609375 -35.375 53.675781 -32.726562 53.59375 -29.90625 C 53.5 -28.582031 53.273438 -26.660156 52.921875 -24.140625 C 52.578125 -21.628906 52.050781 -18.4375 51.34375 -14.5625 C 51.082031 -13.40625 51.039062 -12.035156 51.21875 -10.453125 C 51.300781 -9.835938 51.695312 -9.304688 52.40625 -8.859375 C 52.84375 -8.597656 53.8125 -8.46875 55.3125 -8.46875 C 57.070312 -8.46875 58.304688 -8.644531 59.015625 -9 C 60.429688 -9.351562 61.140625 -9.441406 61.140625 -9.265625 C 61.140625 -8.554688 61.023438 -7.628906 60.796875 -6.484375 C 60.578125 -5.335938 60.3125 -4.144531 60 -2.90625 C 59.695312 -1.675781 59.347656 -0.507812 58.953125 0.59375 C 58.554688 1.695312 58.179688 2.515625 57.828125 3.046875 C 56.585938 4.984375 54.882812 6.367188 52.71875 7.203125 C 50.5625 8.046875 48.382812 8.46875 46.1875 8.46875 C 44.414062 8.46875 42.800781 8.023438 41.34375 7.140625 C 39.894531 6.265625 38.285156 4.765625 36.515625 2.640625 C 35.722656 1.671875 35.0625 0.75 34.53125 -0.125 C 34.007812 -1.007812 33.660156 -1.847656 33.484375 -2.640625 C 33.304688 -3.441406 33.148438 -4.503906 33.015625 -5.828125 C 32.878906 -7.148438 32.859375 -8.78125 32.953125 -10.71875 C 33.035156 -12.476562 33.164062 -14.285156 33.34375 -16.140625 C 33.519531 -17.992188 33.742188 -19.9375 34.015625 -21.96875 C 34.359375 -24 34.617188 -25.628906 34.796875 -26.859375 C 34.972656 -28.097656 35.0625 -28.984375 35.0625 -29.515625 C 35.0625 -30.566406 35.015625 -31.644531 34.921875 -32.75 C 34.835938 -33.851562 34.707031 -34.976562 34.53125 -36.125 C 34.53125 -37.09375 34.3125 -37.929688 33.875 -38.640625 C 33.519531 -39.347656 33.320312 -39.703125 33.28125 -39.703125 C 33.238281 -39.703125 33.039062 -39.703125 32.6875 -39.703125 L 32.015625 -39.828125 L 31.359375 -38.765625 C 30.566406 -37.710938 29.835938 -36.300781 29.171875 -34.53125 C 28.515625 -32.769531 28.097656 -31.226562 27.921875 -29.90625 C 27.742188 -28.226562 27.476562 -26.769531 27.125 -25.53125 C 26.769531 -24.300781 26.460938 -23.289062 26.203125 -22.5 C 26.023438 -21.96875 25.710938 -20.84375 25.265625 -19.125 C 24.828125 -17.40625 24.210938 -15.085938 23.421875 -12.171875 C 22.097656 -7.316406 21.4375 -3.4375 21.4375 -0.53125 C 21.351562 0.257812 21.3125 0.921875 21.3125 1.453125 C 21.3125 1.984375 21.265625 2.335938 21.171875 2.515625 C 21.085938 2.953125 20.78125 3.410156 20.25 3.890625 C 19.71875 4.378906 19.117188 4.84375 18.453125 5.28125 C 17.796875 5.726562 17.132812 6.148438 16.46875 6.546875 C 15.8125 6.941406 15.265625 7.226562 14.828125 7.40625 C 14.554688 7.582031 14.175781 7.757812 13.6875 7.9375 C 13.207031 8.113281 12.878906 8.25 12.703125 8.34375 C 11.910156 8.601562 10.851562 8.554688 9.53125 8.203125 C 7.0625 7.585938 5.453125 6.679688 4.703125 5.484375 C 3.953125 4.296875 3.441406 2.554688 3.171875 0.265625 C 2.816406 -2.023438 2.550781 -3.613281 2.375 -4.5 C 2.289062 -5.820312 2.554688 -7.1875 3.171875 -8.59375 C 3.523438 -9.300781 3.8125 -10.359375 4.03125 -11.765625 C 4.25 -13.179688 4.445312 -14.90625 4.625 -16.9375 C 4.976562 -19.320312 5.285156 -21.703125 5.546875 -24.078125 C 5.816406 -26.460938 5.953125 -28.847656 5.953125 -31.234375 C 6.046875 -32.203125 6.113281 -33.035156 6.15625 -33.734375 C 6.195312 -34.441406 6.265625 -35.148438 6.359375 -35.859375 C 6.441406 -36.566406 6.503906 -37.269531 6.546875 -37.96875 C 6.585938 -38.675781 6.609375 -39.429688 6.609375 -40.234375 C 6.609375 -41.640625 6.523438 -42.519531 6.359375 -42.875 C 6.179688 -43.3125 6.132812 -43.882812 6.21875 -44.59375 C 6.3125 -46.976562 5.5625 -48.921875 3.96875 -50.421875 L 3.171875 -51.34375 L 3.4375 -52 C 3.53125 -52.175781 3.726562 -52.441406 4.03125 -52.796875 C 4.34375 -53.148438 4.675781 -53.523438 5.03125 -53.921875 C 5.382812 -54.316406 5.710938 -54.671875 6.015625 -54.984375 C 6.328125 -55.296875 6.570312 -55.453125 6.75 -55.453125 C 6.832031 -55.453125 7.03125 -55.453125 7.34375 -55.453125 C 7.65625 -55.453125 8.03125 -55.363281 8.46875 -55.1875 C 8.90625 -55.09375 9.390625 -55 9.921875 -54.90625 C 10.453125 -54.820312 11.070312 -54.738281 11.78125 -54.65625 C 14.425781 -54.300781 16.5 -53.59375 18 -52.53125 C 18.4375 -52.175781 18.875 -51.800781 19.3125 -51.40625 C 19.757812 -51.007812 20.203125 -50.503906 20.640625 -49.890625 C 20.992188 -49.441406 21.347656 -49 21.703125 -48.5625 C 22.054688 -48.125 22.585938 -47.90625 23.296875 -47.90625 C 23.460938 -47.90625 24.253906 -48.875 25.671875 -50.8125 C 26.554688 -52.226562 27.660156 -53.441406 28.984375 -54.453125 C 30.304688 -55.460938 31.804688 -56.144531 33.484375 -56.5 Z M 33.484375 -56.5 "/></g></g></g><g fill="#ffffff" fill-opacity="1"><g transform="translate(328.659036, 532.983028)"><g><path d="M 30.5625 -55.96875 C 34.800781 -55.96875 38.660156 -55.0625 42.140625 -53.25 C 45.628906 -51.445312 48.609375 -48.738281 51.078125 -45.125 C 52.929688 -42.5625 54.035156 -40.179688 54.390625 -37.984375 C 54.742188 -35.242188 54.742188 -32.90625 54.390625 -30.96875 C 53.765625 -27.613281 51.78125 -25.273438 48.4375 -23.953125 C 45.082031 -22.710938 39.742188 -21.785156 32.421875 -21.171875 C 32.066406 -21.171875 31.289062 -21.101562 30.09375 -20.96875 C 28.90625 -20.84375 27.671875 -20.691406 26.390625 -20.515625 C 25.117188 -20.335938 23.972656 -20.160156 22.953125 -19.984375 C 21.941406 -19.804688 21.394531 -19.628906 21.3125 -19.453125 C 21.132812 -19.273438 21.085938 -18.832031 21.171875 -18.125 C 21.171875 -16.71875 21.613281 -15.703125 22.5 -15.078125 C 23.726562 -13.671875 25.535156 -12.546875 27.921875 -11.703125 C 30.304688 -10.867188 32.46875 -10.453125 34.40625 -10.453125 C 37.226562 -10.628906 40.113281 -10.9375 43.0625 -11.375 C 46.019531 -11.820312 48.820312 -12.53125 51.46875 -13.5 C 53.0625 -14.03125 53.859375 -14.25 53.859375 -14.15625 C 54.210938 -13.894531 54.253906 -13.144531 53.984375 -11.90625 C 53.546875 -10.226562 53.503906 -9.082031 53.859375 -8.46875 C 54.296875 -7.582031 54.335938 -6.566406 53.984375 -5.421875 C 53.898438 -5.242188 53.859375 -5.046875 53.859375 -4.828125 C 53.859375 -4.609375 53.8125 -4.410156 53.71875 -4.234375 C 53.375 -2.117188 52.492188 -0.289062 51.078125 1.25 C 49.671875 2.800781 47.992188 4.082031 46.046875 5.09375 C 44.109375 6.101562 42.035156 6.875 39.828125 7.40625 C 37.617188 7.9375 35.59375 8.203125 33.75 8.203125 C 32.507812 8.203125 31.226562 8.09375 29.90625 7.875 C 28.582031 7.65625 27.171875 7.320312 25.671875 6.875 C 21.523438 5.289062 18.0625 3.503906 15.28125 1.515625 C 12.5 -0.460938 10.289062 -2.726562 8.65625 -5.28125 C 7.03125 -7.84375 5.863281 -10.78125 5.15625 -14.09375 C 4.457031 -17.40625 4.109375 -21.132812 4.109375 -25.28125 C 4.015625 -27.925781 4.015625 -29.6875 4.109375 -30.5625 C 4.628906 -34.09375 5.570312 -37.398438 6.9375 -40.484375 C 8.3125 -43.578125 10.125 -46.269531 12.375 -48.5625 C 14.625 -50.851562 17.269531 -52.660156 20.3125 -53.984375 C 23.351562 -55.304688 26.769531 -55.96875 30.5625 -55.96875 Z M 32.015625 -41.546875 C 31.578125 -41.546875 31.222656 -41.585938 30.953125 -41.671875 C 30.691406 -41.765625 30.519531 -41.8125 30.4375 -41.8125 L 30.171875 -41.8125 C 30.078125 -41.8125 29.988281 -41.769531 29.90625 -41.6875 C 29.019531 -41.6875 28.09375 -41.488281 27.125 -41.09375 C 26.15625 -40.695312 25.207031 -40.207031 24.28125 -39.625 C 23.351562 -39.050781 22.515625 -38.390625 21.765625 -37.640625 C 21.015625 -36.890625 20.421875 -36.117188 19.984375 -35.328125 C 19.628906 -34.710938 19.628906 -34.226562 19.984375 -33.875 L 20.375 -33.484375 L 21.703125 -33.609375 C 23.816406 -33.785156 26.085938 -34.003906 28.515625 -34.265625 C 30.941406 -34.535156 33.566406 -34.890625 36.390625 -35.328125 L 39.171875 -35.734375 C 39.347656 -35.910156 39.125 -36.570312 38.5 -37.71875 C 37.707031 -38.945312 36.800781 -39.847656 35.78125 -40.421875 C 34.769531 -40.992188 33.515625 -41.367188 32.015625 -41.546875 Z M 32.015625 -41.546875 "/></g></g></g><g fill="#ffffff" fill-opacity="1"><g transform="translate(385.952424, 532.983028)"><g><path d="M 7.671875 -55.96875 C 8.023438 -56.0625 8.753906 -56.109375 9.859375 -56.109375 C 10.960938 -56.109375 11.78125 -56.019531 12.3125 -55.84375 C 14.332031 -55.488281 16.40625 -54.472656 18.53125 -52.796875 C 19.851562 -51.828125 20.601562 -51.078125 20.78125 -50.546875 C 20.957031 -49.929688 21.128906 -49.46875 21.296875 -49.15625 C 21.472656 -48.851562 21.738281 -48.390625 22.09375 -47.765625 C 22.539062 -47.585938 23.335938 -48.117188 24.484375 -49.359375 C 24.921875 -49.796875 25.664062 -50.34375 26.71875 -51 C 27.78125 -51.664062 28.578125 -52.175781 29.109375 -52.53125 C 30.078125 -52.976562 31.003906 -53.421875 31.890625 -53.859375 C 32.773438 -54.296875 33.703125 -54.738281 34.671875 -55.1875 C 35.734375 -55.800781 36.925781 -56.019531 38.25 -55.84375 C 39.21875 -55.84375 40.097656 -55.535156 40.890625 -54.921875 L 41.421875 -54.515625 L 41.421875 -53.0625 C 41.421875 -52.53125 41.332031 -51.890625 41.15625 -51.140625 C 40.976562 -50.390625 40.78125 -49.570312 40.5625 -48.6875 C 40.34375 -47.8125 40.097656 -47 39.828125 -46.25 C 39.566406 -45.5 39.347656 -44.859375 39.171875 -44.328125 C 38.378906 -42.648438 37.054688 -40.929688 35.203125 -39.171875 C 34.753906 -38.722656 34.351562 -38.34375 34 -38.03125 C 33.65625 -37.726562 33.347656 -37.445312 33.078125 -37.1875 C 32.992188 -37.007812 32.773438 -36.742188 32.421875 -36.390625 C 32.066406 -36.035156 31.734375 -35.679688 31.421875 -35.328125 C 31.117188 -34.972656 30.8125 -34.640625 30.5 -34.328125 C 30.1875 -34.023438 29.988281 -33.832031 29.90625 -33.75 C 28.582031 -32.425781 27.457031 -30.726562 26.53125 -28.65625 C 25.601562 -26.582031 24.960938 -24.660156 24.609375 -22.890625 C 24.609375 -22.710938 24.585938 -22.140625 24.546875 -21.171875 C 24.503906 -20.203125 24.484375 -19.117188 24.484375 -17.921875 C 24.484375 -16.734375 24.457031 -15.546875 24.40625 -14.359375 C 24.363281 -13.171875 24.34375 -12.265625 24.34375 -11.640625 C 24.34375 -10.410156 24.320312 -9.351562 24.28125 -8.46875 C 24.238281 -7.582031 24.171875 -6.921875 24.078125 -6.484375 C 23.992188 -6.046875 23.925781 -5.5625 23.875 -5.03125 C 23.832031 -4.5 23.8125 -3.925781 23.8125 -3.3125 C 23.8125 -1.894531 23.640625 -0.789062 23.296875 0 C 23.203125 0.351562 23.066406 0.972656 22.890625 1.859375 C 22.804688 2.554688 22.539062 3.523438 22.09375 4.765625 L 21.5625 6.609375 L 19.1875 9 L 15.75 8.859375 C 14.601562 8.773438 13.695312 8.734375 13.03125 8.734375 C 12.375 8.734375 11.910156 8.6875 11.640625 8.59375 C 11.109375 8.425781 10.507812 8.1875 9.84375 7.875 C 9.1875 7.5625 8.421875 7.1875 7.546875 6.75 C 6.128906 5.863281 5.242188 5.113281 4.890625 4.5 C 4.710938 4.0625 4.578125 3.6875 4.484375 3.375 C 4.398438 3.0625 4.316406 2.726562 4.234375 2.375 C 4.054688 1.675781 4.054688 -0.304688 4.234375 -3.578125 C 4.234375 -5.515625 4.253906 -7.078125 4.296875 -8.265625 C 4.335938 -9.460938 4.40625 -10.28125 4.5 -10.71875 C 4.582031 -11.15625 4.644531 -11.703125 4.6875 -12.359375 C 4.738281 -13.023438 4.765625 -13.757812 4.765625 -14.5625 C 4.765625 -16.0625 4.851562 -17.820312 5.03125 -19.84375 C 5.207031 -21.875 5.296875 -24.921875 5.296875 -28.984375 L 5.296875 -35.203125 L 4.890625 -35.859375 C 4.628906 -36.472656 4.367188 -38.238281 4.109375 -41.15625 C 3.929688 -42.476562 3.816406 -43.734375 3.765625 -44.921875 C 3.722656 -46.117188 3.75 -47.203125 3.84375 -48.171875 C 3.925781 -51.253906 4.1875 -53.148438 4.625 -53.859375 C 5.25 -55.003906 6.265625 -55.707031 7.671875 -55.96875 Z M 7.671875 -55.96875 "/></g></g></g></svg>