<svg xmlns="http://www.w3.org/2000/svg" xmlns:xlink="http://www.w3.org/1999/xlink" width="1080" zoomAndPan="magnify" viewBox="0 0 810 809.999993" height="1080" preserveAspectRatio="xMidYMid meet" version="1.0"><defs><clipPath id="b07f5fa8fb"><path d="M 161.605469 22 L 632 22 L 632 315 L 161.605469 315 Z M 161.605469 22 " clip-rule="nonzero"/></clipPath></defs><g clip-path="url(#b07f5fa8fb)"><path fill="#3dced7" d="M 622.648438 22.605469 C 425.5625 76.773438 597.894531 274.203125 395.9375 278.671875 C 286.835938 281.078125 259.363281 262.277344 161.605469 314.898438 C 279.097656 257.390625 311.425781 295.210938 433.390625 288.757812 C 579.5625 280.996094 495.753906 76.425781 632 68.179688 Z M 622.648438 22.605469 " fill-opacity="1" fill-rule="evenodd"/></g><path fill="#3dced7" d="M 497.589844 291.863281 C 582.480469 475.5 417.488281 599.210938 261.234375 642.957031 L 169.882812 662.421875 C 287.722656 643.085938 284.328125 645.925781 348.882812 621.898438 C 510.152344 561.898438 648.214844 397.664062 536.761719 245.839844 C 532.117188 255.097656 526.605469 263.871094 519.871094 271.878906 C 513.128906 279.878906 505.664062 286.480469 497.589844 291.863281 Z M 497.589844 291.863281 " fill-opacity="1" fill-rule="evenodd"/><path fill="#3dced7" d="M 479.578125 314.898438 C 375.078125 383.753906 454.285156 670.59375 280.824219 766.894531 L 236.070312 786.539062 C 557.984375 684.1875 365.5625 407.980469 479.578125 314.898438 Z M 479.578125 314.898438 " fill-opacity="1" fill-rule="evenodd"/><path fill="#3dced7" d="M 432.542969 152.703125 C 451.273438 152.398438 469.941406 172.296875 474.230469 197.136719 C 478.511719 221.972656 466.785156 242.347656 448.054688 242.652344 C 429.320312 242.953125 410.664062 223.046875 406.382812 198.210938 C 402.09375 173.371094 413.808594 153 432.542969 152.703125 Z M 432.542969 152.703125 " fill-opacity="1" fill-rule="evenodd"/></svg>