<svg xmlns="http://www.w3.org/2000/svg" xmlns:xlink="http://www.w3.org/1999/xlink" width="1080" zoomAndPan="magnify" viewBox="0 0 810 809.999993" height="1080" preserveAspectRatio="xMidYMid meet" version="1.0"><defs><clipPath id="5bab4e5f4b"><path d="M 166.5625 17 L 628 17 L 628 304 L 166.5625 304 Z M 166.5625 17 " clip-rule="nonzero"/></clipPath></defs><rect x="-81" width="972" fill="#ffffff" y="-80.999999" height="971.999992" fill-opacity="1"/><rect x="-81" width="972" fill="#3dced7" y="-80.999999" height="971.999992" fill-opacity="1"/><g clip-path="url(#5bab4e5f4b)"><path fill="#ffffff" d="M 618.210938 17.648438 C 425.140625 70.714844 593.960938 264.125 396.117188 268.5 C 289.242188 270.859375 262.328125 252.441406 166.5625 303.988281 C 281.660156 247.65625 313.332031 284.703125 432.8125 278.378906 C 576.003906 270.777344 493.90625 70.375 627.375 62.296875 Z M 618.210938 17.648438 " fill-opacity="1" fill-rule="evenodd"/></g><path fill="#ffffff" d="M 495.703125 281.425781 C 578.867188 461.320312 417.230469 582.511719 264.160156 625.367188 L 174.667969 644.433594 C 290.109375 625.492188 286.78125 628.277344 350.023438 604.738281 C 508.011719 545.957031 643.257812 385.070312 534.074219 236.339844 C 529.523438 245.40625 524.125 254 517.53125 261.84375 C 510.925781 269.683594 503.613281 276.152344 495.703125 281.425781 Z M 495.703125 281.425781 " fill-opacity="1" fill-rule="evenodd"/><path fill="#ffffff" d="M 478.058594 303.988281 C 375.683594 371.445312 453.28125 652.441406 283.351562 746.777344 L 239.507812 766.023438 C 554.867188 665.757812 366.363281 395.175781 478.058594 303.988281 Z M 478.058594 303.988281 " fill-opacity="1" fill-rule="evenodd"/><path fill="#ffffff" d="M 431.980469 145.097656 C 450.332031 144.800781 468.617188 164.292969 472.820312 188.625 C 477.011719 212.957031 465.527344 232.914062 447.175781 233.214844 C 428.824219 233.507812 410.546875 214.011719 406.351562 189.679688 C 402.152344 165.34375 413.628906 145.390625 431.980469 145.097656 Z M 431.980469 145.097656 " fill-opacity="1" fill-rule="evenodd"/></svg>