<svg xmlns="http://www.w3.org/2000/svg" xmlns:xlink="http://www.w3.org/1999/xlink" width="1080" zoomAndPan="magnify" viewBox="0 0 810 809.999993" height="1080" preserveAspectRatio="xMidYMid meet" version="1.0"><defs><clipPath id="6f8983d69d"><path d="M 13.976562 21.214844 L 796.535156 21.214844 L 796.535156 788.785156 L 13.976562 788.785156 Z M 13.976562 21.214844 " clip-rule="nonzero"/></clipPath><clipPath id="c215ddfa5d"><path d="M 52.226562 21.214844 L 757.773438 21.214844 C 767.917969 21.214844 777.648438 25.246094 784.820312 32.417969 C 791.992188 39.59375 796.023438 49.320312 796.023438 59.464844 L 796.023438 750.535156 C 796.023438 760.679688 791.992188 770.40625 784.820312 777.582031 C 777.648438 784.753906 767.917969 788.785156 757.773438 788.785156 L 52.226562 788.785156 C 42.082031 788.785156 32.351562 784.753906 25.179688 777.582031 C 18.003906 770.40625 13.976562 760.679688 13.976562 750.535156 L 13.976562 59.464844 C 13.976562 49.320312 18.003906 39.59375 25.179688 32.417969 C 32.351562 25.246094 42.082031 21.214844 52.226562 21.214844 Z M 52.226562 21.214844 " clip-rule="nonzero"/></clipPath><clipPath id="df20df91d7"><path d="M 175.386719 44 L 620 44 L 620 321 L 175.386719 321 Z M 175.386719 44 " clip-rule="nonzero"/></clipPath></defs><g clip-path="url(#6f8983d69d)"><g clip-path="url(#c215ddfa5d)"><path fill="#3dced7" d="M 13.976562 21.214844 L 796.535156 21.214844 L 796.535156 788.785156 L 13.976562 788.785156 Z M 13.976562 21.214844 " fill-opacity="1" fill-rule="nonzero"/></g></g><g clip-path="url(#df20df91d7)"><path fill="#ffffff" d="M 610.324219 44.714844 C 424.398438 95.8125 586.96875 282.066406 396.449219 286.277344 C 293.527344 288.550781 267.609375 270.816406 175.386719 320.457031 C 286.226562 266.207031 316.722656 301.886719 431.78125 295.792969 C 569.675781 288.472656 490.617188 95.484375 619.144531 87.707031 Z M 610.324219 44.714844 " fill-opacity="1" fill-rule="evenodd"/></g><path fill="#ffffff" d="M 492.34375 298.726562 C 572.429688 471.964844 416.777344 588.671875 269.371094 629.941406 L 183.191406 648.300781 C 294.359375 630.0625 291.160156 632.742188 352.058594 610.074219 C 504.199219 553.46875 634.441406 398.535156 529.296875 255.308594 C 524.917969 264.042969 519.71875 272.316406 513.367188 279.871094 C 507.003906 287.417969 499.964844 293.648438 492.34375 298.726562 Z M 492.34375 298.726562 " fill-opacity="1" fill-rule="evenodd"/><path fill="#ffffff" d="M 475.355469 320.457031 C 376.769531 385.414062 451.492188 656.011719 287.851562 746.859375 L 245.632812 765.390625 C 549.320312 668.835938 367.792969 408.265625 475.355469 320.457031 Z M 475.355469 320.457031 " fill-opacity="1" fill-rule="evenodd"/><path fill="#ffffff" d="M 430.980469 167.445312 C 448.652344 167.15625 466.265625 185.929688 470.308594 209.359375 C 474.347656 232.789062 463.285156 252.011719 445.613281 252.300781 C 427.941406 252.585938 410.339844 233.804688 406.304688 210.375 C 402.257812 186.941406 413.308594 167.726562 430.980469 167.445312 Z M 430.980469 167.445312 " fill-opacity="1" fill-rule="evenodd"/></svg>