<svg xmlns="http://www.w3.org/2000/svg" xmlns:xlink="http://www.w3.org/1999/xlink" width="1080" zoomAndPan="magnify" viewBox="0 0 810 809.999993" height="1080" preserveAspectRatio="xMidYMid meet" version="1.0"><defs><g/><clipPath id="90fc560914"><path d="M 0 169.265625 L 242 169.265625 L 242 321 L 0 321 Z M 0 169.265625 " clip-rule="nonzero"/></clipPath></defs><g clip-path="url(#90fc560914)"><path fill="#ffffff" d="M 236.6875 169.980469 C 135.507812 197.789062 223.976562 299.144531 120.300781 301.4375 C 64.289062 302.671875 50.1875 293.019531 0 320.035156 C 60.316406 290.511719 76.914062 309.929688 139.527344 306.613281 C 214.566406 302.628906 171.542969 197.609375 241.488281 193.375 Z M 236.6875 169.980469 " fill-opacity="1" fill-rule="evenodd"/></g><path fill="#ffffff" d="M 172.484375 308.210938 C 216.066406 402.484375 131.363281 465.992188 51.148438 488.453125 L 4.25 498.441406 C 64.746094 488.515625 63.003906 489.976562 96.144531 477.640625 C 178.933594 446.835938 249.8125 362.523438 192.59375 284.582031 C 190.210938 289.335938 187.382812 293.839844 183.925781 297.949219 C 180.460938 302.054688 176.628906 305.445312 172.484375 308.210938 Z M 172.484375 308.210938 " fill-opacity="1" fill-rule="evenodd"/><path fill="#ffffff" d="M 163.238281 320.035156 C 109.589844 355.382812 150.253906 502.640625 61.203125 552.078125 L 38.226562 562.160156 C 203.488281 509.617188 104.707031 367.820312 163.238281 320.035156 Z M 163.238281 320.035156 " fill-opacity="1" fill-rule="evenodd"/><path fill="#ffffff" d="M 139.089844 236.769531 C 148.707031 236.613281 158.292969 246.828125 160.492188 259.578125 C 162.691406 272.328125 156.671875 282.789062 147.054688 282.945312 C 137.4375 283.101562 127.859375 272.882812 125.664062 260.132812 C 123.460938 247.378906 129.476562 236.921875 139.089844 236.769531 Z M 139.089844 236.769531 " fill-opacity="1" fill-rule="evenodd"/><g fill="#ffffff" fill-opacity="1"><g transform="translate(249.90632, 383.680435)"><g><path d="M 22.484375 -40.078125 C 24.210938 -30.953125 27.628906 -23.753906 32.734375 -18.484375 C 37.835938 -13.222656 43.867188 -10.59375 50.828125 -10.59375 C 55.378906 -10.59375 58.738281 -11.894531 60.90625 -14.5 C 63.082031 -17.101562 64.171875 -19.976562 64.171875 -23.125 C 64.171875 -27.800781 62.132812 -31.738281 58.0625 -34.9375 C 54 -38.144531 48.164062 -41.59375 40.5625 -45.28125 C 30.351562 -50.28125 22.640625 -55.816406 17.421875 -61.890625 C 12.210938 -67.972656 9.609375 -75.359375 9.609375 -84.046875 C 9.609375 -90.453125 11.207031 -96.015625 14.40625 -100.734375 C 17.613281 -105.460938 21.988281 -109.078125 27.53125 -111.578125 C 33.070312 -114.078125 39.257812 -115.328125 46.09375 -115.328125 C 49.675781 -115.328125 53.554688 -114.972656 57.734375 -114.265625 C 61.921875 -113.554688 65.265625 -112.5 67.765625 -111.09375 L 81.609375 -115.328125 C 83.566406 -111.960938 84.816406 -107.316406 85.359375 -101.390625 C 85.898438 -95.472656 86.171875 -88.660156 86.171875 -80.953125 L 86.171875 -78.515625 L 72.65625 -78.515625 C 68.738281 -94.367188 61.082031 -102.296875 49.6875 -102.296875 C 45.34375 -102.296875 42.082031 -101.070312 39.90625 -98.625 C 37.738281 -96.1875 36.65625 -92.957031 36.65625 -88.9375 C 36.65625 -85.675781 37.519531 -82.851562 39.25 -80.46875 C 40.988281 -78.082031 43.1875 -76.046875 45.84375 -74.359375 C 48.507812 -72.671875 52.066406 -70.742188 56.515625 -68.578125 C 63.359375 -65.210938 69.085938 -62.0625 73.703125 -59.125 C 78.316406 -56.195312 82.304688 -52.316406 85.671875 -47.484375 C 89.046875 -42.648438 90.734375 -36.921875 90.734375 -30.296875 C 90.734375 -24.210938 89.210938 -18.703125 86.171875 -13.765625 C 83.128906 -8.828125 78.703125 -4.890625 72.890625 -1.953125 C 67.078125 0.972656 60.316406 2.4375 52.609375 2.4375 C 43.816406 2.4375 35.078125 0.59375 26.390625 -3.09375 L 13.84375 2.4375 C 11.78125 -1.6875 9.988281 -8.117188 8.46875 -16.859375 C 6.945312 -25.597656 6.1875 -33.335938 6.1875 -40.078125 Z M 22.484375 -40.078125 "/></g></g></g><g fill="#ffffff" fill-opacity="1"><g transform="translate(346.495901, 383.680435)"><g><path d="M 37.625 -71.828125 L 37.625 -25.90625 C 37.625 -22.644531 38.273438 -20.390625 39.578125 -19.140625 C 40.878906 -17.890625 42.726562 -17.265625 45.125 -17.265625 C 47.1875 -17.265625 49.359375 -17.804688 51.640625 -18.890625 C 53.921875 -19.984375 55.710938 -21.34375 57.015625 -22.96875 C 58.097656 -22.101562 58.882812 -20.800781 59.375 -19.0625 C 59.863281 -17.320312 60.109375 -15.742188 60.109375 -14.328125 C 60.109375 -11.835938 59.238281 -9.394531 57.5 -7 C 55.757812 -4.613281 53.148438 -2.660156 49.671875 -1.140625 C 46.203125 0.378906 42.023438 1.140625 37.140625 1.140625 C 29.535156 1.140625 23.425781 -1.03125 18.8125 -5.375 C 14.195312 -9.71875 11.890625 -16.941406 11.890625 -27.046875 L 11.890625 -71.828125 L 1.625 -71.828125 L 1.625 -81.765625 C 4.445312 -82.203125 7.1875 -84.019531 9.84375 -87.21875 C 12.507812 -90.425781 14.789062 -94.445312 16.6875 -99.28125 C 18.59375 -104.113281 19.816406 -108.921875 20.359375 -113.703125 C 22.316406 -114.023438 24.109375 -114.1875 25.734375 -114.1875 C 29.640625 -114.1875 32.539062 -113.070312 34.4375 -110.84375 C 36.34375 -108.625 37.296875 -106.15625 37.296875 -103.4375 L 37.296875 -86.328125 L 56.203125 -86.328125 C 56.203125 -83.078125 56.035156 -80.28125 55.703125 -77.9375 C 55.378906 -75.601562 54.675781 -73.566406 53.59375 -71.828125 Z M 37.625 -71.828125 "/></g></g></g><g fill="#ffffff" fill-opacity="1"><g transform="translate(407.902771, 383.680435)"><g><path d="M 83.40625 -19.0625 C 83.40625 -16.457031 84.082031 -14.285156 85.4375 -12.546875 C 86.789062 -10.804688 88.71875 -9.828125 91.21875 -9.609375 L 91.21875 -5.046875 C 89.476562 -3.097656 86.789062 -1.578125 83.15625 -0.484375 C 79.519531 0.597656 75.851562 1.140625 72.15625 1.140625 C 68.46875 1.140625 65.316406 0.164062 62.703125 -1.78125 C 60.097656 -3.738281 58.363281 -6.457031 57.5 -9.9375 C 52.289062 -2.550781 44.851562 1.140625 35.1875 1.140625 C 27.582031 1.140625 21.660156 -1.191406 17.421875 -5.859375 C 13.191406 -10.535156 11.078125 -16.835938 11.078125 -24.765625 L 11.078125 -69.546875 C 11.078125 -71.398438 10.394531 -72.707031 9.03125 -73.46875 C 7.675781 -74.226562 5.695312 -74.609375 3.09375 -74.609375 L 3.09375 -81.765625 C 4.71875 -83.066406 7.835938 -84.367188 12.453125 -85.671875 C 17.078125 -86.984375 21.992188 -87.640625 27.203125 -87.640625 C 30.242188 -87.640625 32.46875 -87.445312 33.875 -87.0625 C 35.289062 -86.6875 36.269531 -85.898438 36.8125 -84.703125 C 37.351562 -83.503906 37.625 -81.601562 37.625 -79 L 37.625 -24.265625 C 37.625 -20.898438 38.191406 -18.375 39.328125 -16.6875 C 40.472656 -15.007812 42.347656 -14.171875 44.953125 -14.171875 C 47.128906 -14.171875 49.273438 -14.847656 51.390625 -16.203125 C 53.503906 -17.566406 55.320312 -19.222656 56.84375 -21.171875 L 56.84375 -69.546875 C 56.84375 -72.921875 53.804688 -74.609375 47.734375 -74.609375 L 47.734375 -81.765625 C 49.460938 -83.179688 52.632812 -84.515625 57.25 -85.765625 C 61.863281 -87.015625 66.941406 -87.640625 72.484375 -87.640625 C 76.941406 -87.640625 79.875 -87.125 81.28125 -86.09375 C 82.695312 -85.0625 83.40625 -82.695312 83.40625 -79 Z M 83.40625 -19.0625 "/></g></g></g><g fill="#ffffff" fill-opacity="1"><g transform="translate(501.071823, 383.680435)"><g><path d="M 90.5625 -4.078125 C 89.039062 -2.117188 86.757812 -0.597656 83.71875 0.484375 C 80.6875 1.578125 77.429688 2.125 73.953125 2.125 C 70.804688 2.125 67.710938 1.441406 64.671875 0.078125 C 61.628906 -1.273438 59.507812 -3.144531 58.3125 -5.53125 C 56.144531 -2.707031 53.457031 -0.726562 50.25 0.40625 C 47.050781 1.550781 43.0625 2.125 38.28125 2.125 C 32.195312 2.125 26.601562 0.578125 21.5 -2.515625 C 16.394531 -5.617188 12.296875 -10.238281 9.203125 -16.375 C 6.109375 -22.507812 4.5625 -30.03125 4.5625 -38.9375 C 4.5625 -49.46875 6.539062 -58.425781 10.5 -65.8125 C 14.46875 -73.195312 19.707031 -78.734375 26.21875 -82.421875 C 32.738281 -86.117188 39.910156 -87.96875 47.734375 -87.96875 C 49.578125 -87.96875 52.882812 -87.75 57.65625 -87.3125 L 57.171875 -97.078125 L 57.171875 -105.234375 C 57.171875 -107.941406 56.410156 -109.945312 54.890625 -111.25 C 53.367188 -112.550781 50.492188 -113.203125 46.265625 -113.203125 L 46.265625 -119.890625 C 50.066406 -121.953125 55.003906 -123.796875 61.078125 -125.421875 C 67.160156 -127.054688 71.941406 -127.875 75.421875 -127.875 C 77.921875 -127.875 79.738281 -127.300781 80.875 -126.15625 C 82.007812 -125.019531 82.578125 -123.09375 82.578125 -120.375 L 82.578125 -18.078125 C 82.578125 -12.753906 85.1875 -9.609375 90.40625 -8.640625 Z M 49.515625 -11.734375 C 52.878906 -11.734375 55.429688 -12.707031 57.171875 -14.65625 L 57.171875 -71.671875 C 54.890625 -74.816406 51.847656 -76.390625 48.046875 -76.390625 C 43.273438 -76.390625 39.445312 -73.890625 36.5625 -68.890625 C 33.6875 -63.898438 32.25 -55.8125 32.25 -44.625 C 32.25 -33.875 33.847656 -25.703125 37.046875 -20.109375 C 40.253906 -14.523438 44.410156 -11.734375 49.515625 -11.734375 Z M 49.515625 -11.734375 "/></g></g></g><g fill="#ffffff" fill-opacity="1"><g transform="translate(593.263578, 383.680435)"><g><path d="M 41.703125 -115.15625 C 41.703125 -110.488281 40.257812 -106.769531 37.375 -104 C 34.5 -101.238281 30.675781 -99.859375 25.90625 -99.859375 C 21.226562 -99.859375 17.503906 -101.238281 14.734375 -104 C 11.972656 -106.769531 10.59375 -110.488281 10.59375 -115.15625 C 10.59375 -119.71875 12.03125 -123.410156 14.90625 -126.234375 C 17.78125 -129.054688 21.550781 -130.46875 26.21875 -130.46875 C 30.894531 -130.46875 34.644531 -129.054688 37.46875 -126.234375 C 40.289062 -123.410156 41.703125 -119.71875 41.703125 -115.15625 Z M 38.609375 -17.59375 C 38.609375 -14.445312 39.394531 -12.191406 40.96875 -10.828125 C 42.539062 -9.472656 44.957031 -8.796875 48.21875 -8.796875 C 48.21875 -5.429688 46.96875 -2.5 44.46875 0 L 7.65625 0 C 5.15625 -2.5 3.90625 -5.429688 3.90625 -8.796875 C 7.164062 -8.796875 9.523438 -9.472656 10.984375 -10.828125 C 12.453125 -12.191406 13.1875 -14.5 13.1875 -17.75 L 13.1875 -65 C 13.1875 -68.03125 12.453125 -70.195312 10.984375 -71.5 C 9.523438 -72.8125 6.675781 -73.46875 2.4375 -73.46875 L 2.4375 -80.625 C 5.050781 -82.257812 9.476562 -83.972656 15.71875 -85.765625 C 21.957031 -87.554688 27.25 -88.453125 31.59375 -88.453125 C 34.09375 -88.453125 35.882812 -87.878906 36.96875 -86.734375 C 38.0625 -85.597656 38.609375 -83.671875 38.609375 -80.953125 Z M 38.609375 -17.59375 "/></g></g></g><g fill="#ffffff" fill-opacity="1"><g transform="translate(644.083061, 383.680435)"><g><path d="M 43.65625 2.125 C 31.707031 2.125 22.148438 -1.648438 14.984375 -9.203125 C 7.816406 -16.753906 4.234375 -27.53125 4.234375 -41.53125 C 4.234375 -51.519531 5.941406 -60.046875 9.359375 -67.109375 C 12.785156 -74.171875 17.59375 -79.492188 23.78125 -83.078125 C 29.96875 -86.660156 37.132812 -88.453125 45.28125 -88.453125 C 53.101562 -88.453125 59.972656 -86.738281 65.890625 -83.3125 C 71.804688 -79.894531 76.421875 -74.875 79.734375 -68.25 C 83.046875 -61.625 84.703125 -53.585938 84.703125 -44.140625 C 84.703125 -34.265625 82.988281 -25.847656 79.5625 -18.890625 C 76.144531 -11.941406 71.34375 -6.703125 65.15625 -3.171875 C 58.96875 0.359375 51.800781 2.125 43.65625 2.125 Z M 44.953125 -9.609375 C 48.753906 -9.609375 51.578125 -11.78125 53.421875 -16.125 C 55.273438 -20.46875 56.203125 -28.503906 56.203125 -40.234375 C 56.203125 -50.117188 55.710938 -57.71875 54.734375 -63.03125 C 53.753906 -68.351562 52.394531 -71.992188 50.65625 -73.953125 C 48.914062 -75.910156 46.691406 -76.890625 43.984375 -76.890625 C 40.179688 -76.890625 37.328125 -74.71875 35.421875 -70.375 C 33.523438 -66.03125 32.578125 -57.882812 32.578125 -45.9375 C 32.578125 -36.164062 33.066406 -28.644531 34.046875 -23.375 C 35.023438 -18.101562 36.410156 -14.488281 38.203125 -12.53125 C 39.992188 -10.582031 42.242188 -9.609375 44.953125 -9.609375 Z M 44.953125 -9.609375 "/></g></g></g><g fill="#ffffff" fill-opacity="1"><g transform="translate(733.024429, 383.680435)"><g/></g></g><g fill="#ffffff" fill-opacity="1"><g transform="translate(328.093006, 538.32489)"><g><path d="M 22.484375 -40.078125 C 24.210938 -30.953125 27.628906 -23.753906 32.734375 -18.484375 C 37.835938 -13.222656 43.867188 -10.59375 50.828125 -10.59375 C 55.378906 -10.59375 58.738281 -11.894531 60.90625 -14.5 C 63.082031 -17.101562 64.171875 -19.976562 64.171875 -23.125 C 64.171875 -27.800781 62.132812 -31.738281 58.0625 -34.9375 C 54 -38.144531 48.164062 -41.59375 40.5625 -45.28125 C 30.351562 -50.28125 22.640625 -55.816406 17.421875 -61.890625 C 12.210938 -67.972656 9.609375 -75.359375 9.609375 -84.046875 C 9.609375 -90.453125 11.207031 -96.015625 14.40625 -100.734375 C 17.613281 -105.460938 21.988281 -109.078125 27.53125 -111.578125 C 33.070312 -114.078125 39.257812 -115.328125 46.09375 -115.328125 C 49.675781 -115.328125 53.554688 -114.972656 57.734375 -114.265625 C 61.921875 -113.554688 65.265625 -112.5 67.765625 -111.09375 L 81.609375 -115.328125 C 83.566406 -111.960938 84.816406 -107.316406 85.359375 -101.390625 C 85.898438 -95.472656 86.171875 -88.660156 86.171875 -80.953125 L 86.171875 -78.515625 L 72.65625 -78.515625 C 68.738281 -94.367188 61.082031 -102.296875 49.6875 -102.296875 C 45.34375 -102.296875 42.082031 -101.070312 39.90625 -98.625 C 37.738281 -96.1875 36.65625 -92.957031 36.65625 -88.9375 C 36.65625 -85.675781 37.519531 -82.851562 39.25 -80.46875 C 40.988281 -78.082031 43.1875 -76.046875 45.84375 -74.359375 C 48.507812 -72.671875 52.066406 -70.742188 56.515625 -68.578125 C 63.359375 -65.210938 69.085938 -62.0625 73.703125 -59.125 C 78.316406 -56.195312 82.304688 -52.316406 85.671875 -47.484375 C 89.046875 -42.648438 90.734375 -36.921875 90.734375 -30.296875 C 90.734375 -24.210938 89.210938 -18.703125 86.171875 -13.765625 C 83.128906 -8.828125 78.703125 -4.890625 72.890625 -1.953125 C 67.078125 0.972656 60.316406 2.4375 52.609375 2.4375 C 43.816406 2.4375 35.078125 0.59375 26.390625 -3.09375 L 13.84375 2.4375 C 11.78125 -1.6875 9.988281 -8.117188 8.46875 -16.859375 C 6.945312 -25.597656 6.1875 -33.335938 6.1875 -40.078125 Z M 22.484375 -40.078125 "/></g></g></g><g fill="#ffffff" fill-opacity="1"><g transform="translate(424.682588, 538.32489)"><g><path d="M 87.96875 -86.5 C 90.132812 -84.21875 91.21875 -80.90625 91.21875 -76.5625 C 88.613281 -76.5625 86.550781 -75.910156 85.03125 -74.609375 C 83.507812 -73.304688 82.257812 -71.132812 81.28125 -68.09375 L 62.71875 -10.265625 C 57.832031 5.585938 52.617188 16.988281 47.078125 23.9375 C 41.535156 30.894531 34.582031 34.375 26.21875 34.375 C 19.707031 34.375 14.710938 33.015625 11.234375 30.296875 C 7.765625 27.578125 6.03125 24.15625 6.03125 20.03125 C 6.03125 17.425781 6.65625 15.09375 7.90625 13.03125 C 9.15625 10.96875 10.753906 9.503906 12.703125 8.640625 C 15.640625 12.109375 19.984375 13.84375 25.734375 13.84375 C 29.210938 13.84375 32.632812 12.160156 36 8.796875 C 39.363281 5.429688 42.132812 0.488281 44.3125 -6.03125 L 30.953125 -6.03125 L 5.859375 -66.953125 C 5.640625 -67.597656 5.097656 -68.953125 4.234375 -71.015625 C 3.367188 -73.078125 2.28125 -74.515625 0.96875 -75.328125 C -0.332031 -76.148438 -2.015625 -76.5625 -4.078125 -76.5625 C -4.078125 -80.789062 -2.9375 -84.101562 -0.65625 -86.5 L 37.796875 -86.5 C 40.398438 -83.675781 41.703125 -80.363281 41.703125 -76.5625 C 36.703125 -76.5625 34.203125 -74.0625 34.203125 -69.0625 C 34.203125 -67.113281 34.472656 -65.320312 35.015625 -63.6875 L 50.171875 -19.546875 L 60.921875 -65.8125 C 61.242188 -67.332031 61.40625 -68.632812 61.40625 -69.71875 C 61.40625 -74.28125 58.742188 -76.5625 53.421875 -76.5625 C 53.421875 -81.007812 54.453125 -84.320312 56.515625 -86.5 Z M 87.96875 -86.5 "/></g></g></g><g fill="#ffffff" fill-opacity="1"><g transform="translate(511.010541, 538.32489)"><g><path d="M 96.4375 -4.390625 C 94.800781 -2.765625 91.894531 -1.460938 87.71875 -0.484375 C 83.539062 0.492188 79.550781 0.984375 75.75 0.984375 C 71.070312 0.984375 67.617188 0.113281 65.390625 -1.625 C 63.171875 -3.363281 62.0625 -6.132812 62.0625 -9.9375 L 62.0625 -60.765625 C 62.0625 -64.992188 61.132812 -68.03125 59.28125 -69.875 C 57.4375 -71.726562 55 -72.65625 51.96875 -72.65625 C 47.507812 -72.65625 43.757812 -70.863281 40.71875 -67.28125 L 40.71875 -17.59375 C 40.71875 -14.445312 41.394531 -12.164062 42.75 -10.75 C 44.113281 -9.34375 46.425781 -8.640625 49.6875 -8.640625 C 49.6875 -5.378906 48.4375 -2.5 45.9375 0 L 8.953125 0 C 6.347656 -2.601562 5.046875 -5.484375 5.046875 -8.640625 C 8.304688 -8.640625 10.640625 -9.34375 12.046875 -10.75 C 13.460938 -12.164062 14.171875 -14.445312 14.171875 -17.59375 L 14.171875 -65.15625 C 14.171875 -68.082031 13.351562 -70.171875 11.71875 -71.421875 C 10.09375 -72.671875 7.273438 -73.296875 3.265625 -73.296875 L 3.265625 -80.625 C 6.734375 -82.582031 11.644531 -84.375 18 -86 C 24.351562 -87.632812 29.160156 -88.453125 32.421875 -88.453125 C 34.910156 -88.453125 36.832031 -87.660156 38.1875 -86.078125 C 39.550781 -84.503906 40.34375 -81.546875 40.5625 -77.203125 C 43.382812 -80.679688 46.910156 -83.425781 51.140625 -85.4375 C 55.378906 -87.445312 60.160156 -88.453125 65.484375 -88.453125 C 73.296875 -88.453125 79.078125 -86.46875 82.828125 -82.5 C 86.578125 -78.539062 88.453125 -72.050781 88.453125 -63.03125 L 88.453125 -18.5625 C 88.453125 -13.25 91.054688 -10.101562 96.265625 -9.125 Z M 96.4375 -4.390625 "/></g></g></g><g fill="#ffffff" fill-opacity="1"><g transform="translate(610.532013, 538.32489)"><g><path d="M 68.734375 -20.6875 C 69.609375 -19.707031 70.34375 -18.398438 70.9375 -16.765625 C 71.53125 -15.140625 71.828125 -13.734375 71.828125 -12.546875 C 71.828125 -10.148438 70.578125 -7.8125 68.078125 -5.53125 C 65.585938 -3.257812 62.25 -1.363281 58.0625 0.15625 C 53.882812 1.675781 49.351562 2.4375 44.46875 2.4375 C 36.539062 2.4375 29.535156 0.644531 23.453125 -2.9375 C 17.367188 -6.519531 12.644531 -11.675781 9.28125 -18.40625 C 5.914062 -25.132812 4.234375 -33.117188 4.234375 -42.359375 C 4.234375 -51.796875 6.050781 -59.988281 9.6875 -66.9375 C 13.332031 -73.894531 18.382812 -79.21875 24.84375 -82.90625 C 31.300781 -86.601562 38.550781 -88.453125 46.59375 -88.453125 C 54.625 -88.453125 60.890625 -86.523438 65.390625 -82.671875 C 69.898438 -78.816406 72.15625 -73.898438 72.15625 -67.921875 C 72.15625 -62.816406 70.851562 -58.828125 68.25 -55.953125 C 65.644531 -53.078125 62.28125 -51.640625 58.15625 -51.640625 C 54.789062 -51.640625 51.96875 -52.882812 49.6875 -55.375 C 47.40625 -57.875 46.265625 -60.914062 46.265625 -64.5 C 46.265625 -66.894531 46.695312 -68.90625 47.5625 -70.53125 C 48.4375 -72.15625 49.628906 -73.625 51.140625 -74.9375 C 49.410156 -75.90625 47.835938 -76.390625 46.421875 -76.390625 C 42.734375 -76.390625 39.476562 -74.191406 36.65625 -69.796875 C 33.832031 -65.398438 32.421875 -58.148438 32.421875 -48.046875 C 32.421875 -36.535156 34.101562 -28.253906 37.46875 -23.203125 C 40.832031 -18.160156 45.769531 -15.640625 52.28125 -15.640625 C 55.320312 -15.640625 58.335938 -16.070312 61.328125 -16.9375 C 64.316406 -17.8125 66.785156 -19.0625 68.734375 -20.6875 Z M 68.734375 -20.6875 "/></g></g></g></svg>